<svg width="960" height="260" viewBox="0 0 960 260" fill="none" xmlns="http://www.w3.org/2000/svg">
  <rect width="960" height="260" rx="36" fill="#F7F8FF"/>

  <g transform="translate(40 26)">
    <rect x="0" y="0" width="208" height="208" rx="48" fill="#F1EFFF"/>
    <rect x="0" y="0" width="208" height="208" rx="48" stroke="#D9D3FA" stroke-width="2"/>

    <g stroke="#6A52DC" stroke-width="13" stroke-linecap="round">
      <line x1="54" y1="148" x2="92" y2="102"/>
      <line x1="92" y1="102" x2="134" y2="126"/>
      <line x1="92" y1="102" x2="146" y2="64"/>
    </g>

    <circle cx="54" cy="148" r="13" fill="#C6BEF8"/>
    <circle cx="92" cy="102" r="13" fill="#C6BEF8"/>
    <circle cx="134" cy="126" r="13" fill="#B0A5F2"/>

    <g transform="translate(146 64)">
      <circle cx="0" cy="0" r="22" fill="#2B1D70"/>
      <path d="M0 -15 L4.5 -4.5 L15 0 L4.5 4.5 L0 15 L-4.5 4.5 L-15 0 L-4.5 -4.5 Z" fill="#16C7D8"/>
      <circle cx="0" cy="0" r="4" fill="#F9FAFF"/>
    </g>
  </g>

  <text x="284" y="138" fill="#211B47" font-size="82" font-weight="700" letter-spacing="1" font-family="Segoe UI, Inter, Arial, sans-serif">Nodex</text>
  <text x="286" y="188" fill="#645A92" font-size="32" font-weight="500" font-family="Segoe UI, Inter, Arial, sans-serif">Анализ данных</text>
</svg>
