<svg width="512" height="512" viewBox="0 0 512 512" fill="none" xmlns="http://www.w3.org/2000/svg">
  <defs>
    <linearGradient id="card" x1="72" y1="56" x2="440" y2="456" gradientUnits="userSpaceOnUse">
      <stop offset="0" stop-color="#FFFFFF"/>
      <stop offset="1" stop-color="#F1F3FF"/>
    </linearGradient>
    <linearGradient id="line" x1="152" y1="172" x2="340" y2="332" gradientUnits="userSpaceOnUse">
      <stop offset="0" stop-color="#9A8BEE"/>
      <stop offset="1" stop-color="#5B3FD6"/>
    </linearGradient>
    <radialGradient id="aura" cx="0" cy="0" r="1" gradientUnits="userSpaceOnUse" gradientTransform="translate(338 170) rotate(90) scale(54)">
      <stop offset="0" stop-color="#7BEAF5"/>
      <stop offset="1" stop-color="#16C7D8"/>
    </radialGradient>
  </defs>

  <rect x="24" y="24" width="464" height="464" rx="104" fill="url(#card)"/>
  <rect x="24" y="24" width="464" height="464" rx="104" stroke="#DDD8FB" stroke-width="2"/>

  <g stroke="url(#line)" stroke-width="28" stroke-linecap="round">
    <line x1="150" y1="330" x2="226" y2="244"/>
    <line x1="226" y1="244" x2="312" y2="292"/>
    <line x1="226" y1="244" x2="338" y2="170"/>
  </g>

  <circle cx="150" cy="330" r="27" fill="#D2CBFA"/>
  <circle cx="226" cy="244" r="27" fill="#D2CBFA"/>
  <circle cx="312" cy="292" r="27" fill="#BAAEF5"/>

  <g transform="translate(338 170)">
    <circle cx="0" cy="0" r="44" fill="#2B1D70"/>
    <circle cx="0" cy="0" r="40" fill="url(#aura)" opacity="0.34"/>
    <path d="M0 -30 L9 -9 L30 0 L9 9 L0 30 L-9 9 L-30 0 L-9 -9 Z" fill="#16C7D8"/>
    <circle cx="0" cy="0" r="8" fill="#F9FAFF"/>
  </g>
</svg>
