<svg width="512" height="512" viewBox="0 0 512 512" fill="none" xmlns="http://www.w3.org/2000/svg">
  <defs>
    <linearGradient id="bg" x1="64" y1="52" x2="448" y2="460" gradientUnits="userSpaceOnUse">
      <stop offset="0" stop-color="#FFFFFF"/>
      <stop offset="1" stop-color="#F2EEFF"/>
    </linearGradient>
    <linearGradient id="nGrad" x1="178" y1="116" x2="332" y2="392" gradientUnits="userSpaceOnUse">
      <stop offset="0" stop-color="#7F67EA"/>
      <stop offset="1" stop-color="#4D31CD"/>
    </linearGradient>
    <linearGradient id="inGrad" x1="90" y1="170" x2="210" y2="300" gradientUnits="userSpaceOnUse">
      <stop offset="0" stop-color="#12C4D6"/>
      <stop offset="1" stop-color="#6F5EE7"/>
    </linearGradient>
  </defs>

  <rect x="24" y="24" width="464" height="464" rx="108" fill="url(#bg)"/>
  <rect x="24" y="24" width="464" height="464" rx="108" stroke="#D8D1FA" stroke-width="3"/>

  <!-- N mark -->
  <g stroke="url(#nGrad)" stroke-width="38" stroke-linecap="round" stroke-linejoin="round">
    <line x1="190" y1="126" x2="190" y2="386"/>
    <line x1="190" y1="126" x2="322" y2="386"/>
    <line x1="322" y1="126" x2="322" y2="386"/>
  </g>

  <!-- incoming data lines -->
  <g stroke="url(#inGrad)" stroke-width="22" stroke-linecap="round">
    <line x1="96" y1="186" x2="164" y2="186"/>
    <line x1="82" y1="256" x2="164" y2="256"/>
    <line x1="96" y1="326" x2="164" y2="326"/>
  </g>

  <!-- source nodes -->
  <circle cx="84" cy="186" r="13" fill="#16C7D8"/>
  <circle cx="70" cy="256" r="13" fill="#16C7D8"/>
  <circle cx="84" cy="326" r="13" fill="#16C7D8"/>

  <!-- merge node -->
  <circle cx="176" cy="256" r="15" fill="#2A1B72"/>
</svg>
