<svg xmlns="http://www.w3.org/2000/svg" width="64" height="64" viewBox="0 0 64 64" fill="none">
  <circle cx="32" cy="32" r="26" fill="#FBFBF9" stroke="#1B1F23" stroke-width="1.5"/>
  <path d="M21 31.5L24 26.5C24.491 25.4684 25.5402 24.8017 26.6824 24.8H37.3176C38.4598 24.8017 39.509 25.4684 40 26.5L43 31.5" fill="#EEF1F3" stroke="#1B1F23" stroke-width="1.7" stroke-linejoin="round"/>
  <path d="M19.5 29.5H44.5C46.433 29.5 48 31.067 48 33V36.5C48 38.433 46.433 40 44.5 40H19.5C17.567 40 16 38.433 16 36.5V33C16 31.067 17.567 29.5 19.5 29.5Z" fill="#FBFBF9" stroke="#1B1F23" stroke-width="1.7"/>
  <circle cx="23.5" cy="41.5" r="3" fill="#EEF1F3" stroke="#1B1F23" stroke-width="1.5"/>
  <circle cx="40.5" cy="41.5" r="3" fill="#EEF1F3" stroke="#1B1F23" stroke-width="1.5"/>
  <path d="M20.5 39.5H43.5" stroke="#1B1F23" stroke-width="1.7" stroke-linecap="round"/>
</svg>
