<svg xmlns="http://www.w3.org/2000/svg" width="64" height="64" viewBox="0 0 64 64" fill="none">
  <circle cx="32" cy="32" r="26" fill="#FBFBF9" stroke="#1B1F23" stroke-width="2.8"/>
  <path d="M24.5 24.5C24.5 22.8431 25.8431 21.5 27.5 21.5H30C31.6569 21.5 33 22.8431 33 24.5V26.2817C33 27.2656 32.5172 28.187 31.7089 28.7476L30.9911 29.2455C30.1828 29.8061 29.7 30.7275 29.7 31.7114V32.5C29.7 34.1569 31.0431 35.5 32.7 35.5H36.5C38.1569 35.5 39.5 36.8431 39.5 38.5V40.5C39.5 42.1569 38.1569 43.5 36.5 43.5H32C30.3431 43.5 29 42.1569 29 40.5" stroke="#1B1F23" stroke-width="2.8" stroke-linecap="round" stroke-linejoin="round"/>
  <path d="M40.5 23.5C43.8627 26.0291 46 30.0519 46 34.5742C46 39.0965 43.8627 43.1193 40.5 45.6484" stroke="#1B1F23" stroke-width="2.8" stroke-linecap="round"/>
  <path d="M37.5 27.5C39.4382 29.0007 40.7 31.3473 40.7 34C40.7 36.6527 39.4382 38.9993 37.5 40.5" stroke="#1B1F23" stroke-width="2.8" stroke-linecap="round"/>
</svg>
