<?xml version="1.0" encoding="UTF-8"?>
<svg xmlns="http://www.w3.org/2000/svg" xmlns:xlink="http://www.w3.org/1999/xlink" width="64px" height="64px" viewBox="0 0 64 64" version="1.1">
<defs>
<linearGradient id="linear0" gradientUnits="userSpaceOnUse" x1="284.966309" y1="-205.851303" x2="226.578293" y2="880.165588" gradientTransform="matrix(0.125,0,0,0.125,0,0)">
<stop offset="0" style="stop-color:rgb(91.764706%,91.372549%,99.607843%);stop-opacity:1;"/>
<stop offset="0.4236" style="stop-color:rgb(93.333333%,93.333333%,99.607843%);stop-opacity:1;"/>
<stop offset="0.8967" style="stop-color:rgb(98.431373%,98.431373%,100%);stop-opacity:1;"/>
<stop offset="1" style="stop-color:rgb(100%,100%,100%);stop-opacity:1;"/>
</linearGradient>
</defs>
<g id="surface1">
<path style=" stroke:none;fill-rule:nonzero;fill:url(#linear0);" d="M 58.605469 33.035156 C 57.417969 32.109375 55.980469 31.3125 55.429688 29.914062 C 54.679688 28.011719 55.878906 25.96875 56.585938 24.046875 C 58.75 18.183594 55.976562 11.242188 50.996094 7.46875 C 41.5 0.265625 22.957031 2.789062 20.367188 12.746094 C 19.273438 16.957031 21.234375 21.761719 19.226562 25.621094 C 16.691406 30.492188 9.96875 30.820312 5.636719 32.988281 C 0.269531 35.667969 -0.800781 41.511719 3.046875 45.960938 C 4.457031 47.59375 6.265625 48.71875 7.5625 50.503906 C 9.4375 53.085938 10.488281 55.941406 13 58.074219 C 16.53125 61.070312 22.4375 61.816406 25.566406 58.394531 C 27.328125 56.46875 27.898438 53.632812 29.824219 51.867188 C 32.351562 49.542969 36.351562 49.855469 39.574219 51.054688 C 42.792969 52.25 45.78125 54.179688 49.171875 54.726562 C 54.476562 55.578125 60.160156 52.464844 62.304688 47.539062 C 64.445312 42.613281 62.84375 36.332031 58.605469 33.035156 Z M 58.605469 33.035156 "/>
<path style=" stroke:none;fill-rule:nonzero;fill:rgb(15.294118%,41.176471%,99.215686%);fill-opacity:1;" d="M 54.597656 20.289062 L 54.597656 43.710938 C 54.597656 45.660156 53.019531 47.242188 51.066406 47.242188 L 12.933594 47.242188 C 10.980469 47.242188 9.402344 45.660156 9.402344 43.710938 L 9.402344 20.289062 C 9.402344 18.339844 10.980469 16.757812 12.933594 16.757812 L 51.066406 16.757812 C 53.019531 16.757812 54.597656 18.339844 54.597656 20.289062 Z M 54.597656 20.289062 "/>
<path style=" stroke:none;fill-rule:nonzero;fill:rgb(92.941177%,92.941177%,92.941177%);fill-opacity:1;" d="M 9.402344 23.222656 L 54.597656 23.222656 L 54.597656 29.484375 L 9.402344 29.484375 Z M 9.402344 23.222656 "/>
<path style=" stroke:none;fill-rule:nonzero;fill:rgb(97.647059%,73.333335%,25.098041%);fill-opacity:1;" d="M 22.210938 34.929688 L 22.210938 40.375 C 22.210938 41.617188 21.214844 42.613281 19.972656 42.613281 L 14.519531 42.613281 C 13.277344 42.613281 12.277344 41.617188 12.277344 40.375 L 12.277344 34.929688 C 12.277344 33.683594 13.277344 32.6875 14.519531 32.6875 L 19.972656 32.6875 C 21.214844 32.6875 22.210938 33.683594 22.210938 34.929688 Z M 22.210938 34.929688 "/>
<path style="fill:none;stroke-width:1.5;stroke-linecap:butt;stroke-linejoin:miter;stroke:rgb(100%,67.058825%,0.784314%);stroke-opacity:1;stroke-miterlimit:10;" d="M 123.65625 340.9375 L 123.65625 261.5 " transform="matrix(0.125,0,0,0.125,0,0)"/>
<path style="fill:none;stroke-width:1.5;stroke-linecap:butt;stroke-linejoin:miter;stroke:rgb(100%,67.058825%,0.784314%);stroke-opacity:1;stroke-miterlimit:10;" d="M 152.28125 261.5 L 152.28125 340.9375 " transform="matrix(0.125,0,0,0.125,0,0)"/>
<path style="fill:none;stroke-width:1.5;stroke-linecap:butt;stroke-linejoin:miter;stroke:rgb(100%,67.058825%,0.784314%);stroke-opacity:1;stroke-miterlimit:10;" d="M 177.6875 315.53125 L 152.28125 315.53125 " transform="matrix(0.125,0,0,0.125,0,0)"/>
<path style="fill:none;stroke-width:1.5;stroke-linecap:butt;stroke-linejoin:miter;stroke:rgb(100%,67.058825%,0.784314%);stroke-opacity:1;stroke-miterlimit:10;" d="M 152.28125 286.90625 L 177.6875 286.90625 " transform="matrix(0.125,0,0,0.125,0,0)"/>
<path style="fill:none;stroke-width:1.5;stroke-linecap:butt;stroke-linejoin:miter;stroke:rgb(100%,67.058825%,0.784314%);stroke-opacity:1;stroke-miterlimit:10;" d="M 98.21875 315.53125 L 123.625 315.53125 " transform="matrix(0.125,0,0,0.125,0,0)"/>
<path style="fill:none;stroke-width:1.5;stroke-linecap:butt;stroke-linejoin:miter;stroke:rgb(100%,67.058825%,0.784314%);stroke-opacity:1;stroke-miterlimit:10;" d="M 123.625 286.90625 L 98.21875 286.90625 " transform="matrix(0.125,0,0,0.125,0,0)"/>
<path style="fill:none;stroke-width:2;stroke-linecap:round;stroke-linejoin:round;stroke:rgb(41.176471%,67.843139%,99.607843%);stroke-opacity:1;stroke-miterlimit:10;" d="M 364.84375 286.375 L 403.1875 286.375 " transform="matrix(0.125,0,0,0.125,0,0)"/>
<path style="fill:none;stroke-width:2;stroke-linecap:round;stroke-linejoin:round;stroke:rgb(41.176471%,67.843139%,99.607843%);stroke-opacity:1;stroke-miterlimit:10;" d="M 218.4375 316.03125 L 332.25 316.03125 " transform="matrix(0.125,0,0,0.125,0,0)"/>
<path style="fill:none;stroke-width:2;stroke-linecap:round;stroke-linejoin:round;stroke:rgb(41.176471%,67.843139%,99.607843%);stroke-opacity:1;stroke-miterlimit:10;" d="M 293.40625 286.375 L 331.75 286.375 " transform="matrix(0.125,0,0,0.125,0,0)"/>
<path style="fill:none;stroke-width:2;stroke-linecap:round;stroke-linejoin:round;stroke:rgb(41.176471%,67.843139%,99.607843%);stroke-opacity:1;stroke-miterlimit:10;" d="M 221.96875 286.375 L 260.34375 286.375 " transform="matrix(0.125,0,0,0.125,0,0)"/>
<path style=" stroke:none;fill-rule:nonzero;fill:rgb(20%,18.039216%,55.686277%);fill-opacity:1;" d="M 12.933594 47.710938 L 51.066406 47.710938 C 53.273438 47.710938 55.066406 45.914062 55.066406 43.710938 C 55.066406 38.539062 55.066406 25.1875 55.066406 20.289062 C 55.066406 18.085938 53.273438 16.289062 51.066406 16.289062 L 12.933594 16.289062 C 10.726562 16.289062 8.933594 18.085938 8.933594 20.289062 C 8.933594 25.648438 8.933594 38.753906 8.933594 43.710938 C 8.933594 45.914062 10.726562 47.710938 12.933594 47.710938 Z M 9.871094 23.691406 L 54.128906 23.691406 L 54.128906 29.015625 L 9.871094 29.015625 Z M 12.933594 17.226562 L 51.066406 17.226562 C 52.757812 17.226562 54.128906 18.601562 54.128906 20.289062 L 54.128906 22.753906 L 9.871094 22.753906 L 9.871094 20.289062 C 9.871094 18.601562 11.242188 17.226562 12.933594 17.226562 Z M 9.871094 29.953125 L 54.128906 29.953125 L 54.128906 43.710938 C 54.128906 45.398438 52.757812 46.773438 51.066406 46.773438 L 12.933594 46.773438 C 11.242188 46.773438 9.871094 45.398438 9.871094 43.710938 Z M 9.871094 29.953125 "/>
<path style=" stroke:none;fill-rule:nonzero;fill:rgb(20%,18.039216%,55.686277%);fill-opacity:1;" d="M 14.519531 43.082031 L 15.445312 43.082031 C 15.449219 43.082031 15.453125 43.085938 15.457031 43.085938 C 15.460938 43.085938 15.464844 43.082031 15.46875 43.082031 L 19.023438 43.082031 C 19.027344 43.082031 19.03125 43.085938 19.035156 43.085938 C 19.039062 43.085938 19.042969 43.082031 19.046875 43.082031 L 19.972656 43.082031 C 21.464844 43.082031 22.679688 41.867188 22.679688 40.375 L 22.679688 34.929688 C 22.679688 33.433594 21.464844 32.21875 19.972656 32.21875 L 19.046875 32.21875 C 19.042969 32.21875 19.039062 32.21875 19.035156 32.21875 C 19.03125 32.21875 19.027344 32.21875 19.023438 32.21875 L 15.46875 32.21875 C 15.464844 32.21875 15.460938 32.21875 15.457031 32.21875 C 15.453125 32.21875 15.449219 32.21875 15.445312 32.21875 L 14.519531 32.21875 C 13.023438 32.21875 11.808594 33.433594 11.808594 34.929688 L 11.808594 40.375 C 11.808594 41.867188 13.023438 43.082031 14.519531 43.082031 Z M 21.742188 38.972656 L 19.503906 38.972656 L 19.503906 36.332031 L 21.742188 36.332031 Z M 18.566406 42.144531 L 15.925781 42.144531 L 15.925781 33.15625 L 18.566406 33.15625 Z M 14.988281 38.972656 L 12.746094 38.972656 L 12.746094 36.332031 L 14.988281 36.332031 Z M 12.746094 40.375 L 12.746094 39.910156 L 14.988281 39.910156 L 14.988281 42.144531 L 14.519531 42.144531 C 13.542969 42.144531 12.746094 41.351562 12.746094 40.375 Z M 19.972656 42.144531 L 19.503906 42.144531 L 19.503906 39.910156 L 21.742188 39.910156 L 21.742188 40.375 C 21.742188 41.351562 20.949219 42.144531 19.972656 42.144531 Z M 21.742188 34.929688 L 21.742188 35.394531 L 19.503906 35.394531 L 19.503906 33.15625 L 19.972656 33.15625 C 20.949219 33.15625 21.742188 33.949219 21.742188 34.929688 Z M 14.519531 33.15625 L 14.988281 33.15625 L 14.988281 35.394531 L 12.746094 35.394531 L 12.746094 34.929688 C 12.746094 33.949219 13.542969 33.15625 14.519531 33.15625 Z M 14.519531 33.15625 "/>
<path style=" stroke:none;fill-rule:nonzero;fill:rgb(20%,18.039216%,55.686277%);fill-opacity:1;" d="M 45.605469 36.265625 L 50.398438 36.265625 C 50.65625 36.265625 50.867188 36.054688 50.867188 35.796875 C 50.867188 35.539062 50.65625 35.328125 50.398438 35.328125 L 45.605469 35.328125 C 45.347656 35.328125 45.136719 35.539062 45.136719 35.796875 C 45.136719 36.054688 45.347656 36.265625 45.605469 36.265625 Z M 45.605469 36.265625 "/>
<path style=" stroke:none;fill-rule:nonzero;fill:rgb(20%,18.039216%,55.686277%);fill-opacity:1;" d="M 27.304688 39.972656 L 41.53125 39.972656 C 41.789062 39.972656 42 39.761719 42 39.503906 C 42 39.246094 41.789062 39.035156 41.53125 39.035156 L 27.304688 39.035156 C 27.046875 39.035156 26.835938 39.246094 26.835938 39.503906 C 26.835938 39.761719 27.046875 39.972656 27.304688 39.972656 Z M 27.304688 39.972656 "/>
<path style=" stroke:none;fill-rule:nonzero;fill:rgb(20%,18.039216%,55.686277%);fill-opacity:1;" d="M 36.675781 36.265625 L 41.46875 36.265625 C 41.730469 36.265625 41.9375 36.054688 41.9375 35.796875 C 41.9375 35.539062 41.730469 35.328125 41.46875 35.328125 L 36.675781 35.328125 C 36.417969 35.328125 36.207031 35.539062 36.207031 35.796875 C 36.207031 36.054688 36.417969 36.265625 36.675781 36.265625 Z M 36.675781 36.265625 "/>
<path style=" stroke:none;fill-rule:nonzero;fill:rgb(20%,18.039216%,55.686277%);fill-opacity:1;" d="M 27.746094 36.265625 L 32.542969 36.265625 C 32.800781 36.265625 33.011719 36.054688 33.011719 35.796875 C 33.011719 35.539062 32.800781 35.328125 32.542969 35.328125 L 27.746094 35.328125 C 27.488281 35.328125 27.277344 35.539062 27.277344 35.796875 C 27.277344 36.054688 27.488281 36.265625 27.746094 36.265625 Z M 27.746094 36.265625 "/>
</g>
</svg>
