<?xml version="1.0" encoding="UTF-8"?>
<svg xmlns="http://www.w3.org/2000/svg" xmlns:xlink="http://www.w3.org/1999/xlink" width="64px" height="64px" viewBox="0 0 64 64" version="1.1">
<g id="surface1">
<path style=" stroke:none;fill-rule:nonzero;fill:rgb(90.588236%,89.019608%,90.196079%);fill-opacity:1;" d="M 59.910156 31.367188 C 59.910156 14.914062 46.570312 1.578125 30.121094 1.578125 C 13.667969 1.578125 0.332031 14.914062 0.332031 31.367188 C 0.332031 47.820312 13.667969 61.15625 30.121094 61.15625 C 46.570312 61.15625 59.910156 47.820312 59.910156 31.367188 Z M 59.910156 31.367188 "/>
<path style=" stroke:none;fill-rule:nonzero;fill:rgb(82.352942%,82.352942%,82.352942%);fill-opacity:1;" d="M 30.121094 62.085938 C 13.179688 62.085938 -0.601562 48.304688 -0.601562 31.367188 C -0.601562 14.429688 13.179688 0.648438 30.121094 0.648438 C 47.058594 0.648438 60.839844 14.429688 60.839844 31.367188 C 60.839844 48.304688 47.058594 62.085938 30.121094 62.085938 Z M 30.121094 2.507812 C 14.207031 2.507812 1.261719 15.453125 1.261719 31.367188 C 1.261719 47.28125 14.207031 60.226562 30.121094 60.226562 C 46.03125 60.226562 58.976562 47.28125 58.976562 31.367188 C 58.976562 15.453125 46.03125 2.507812 30.121094 2.507812 Z M 30.121094 2.507812 "/>
<path style=" stroke:none;fill-rule:nonzero;fill:rgb(82.352942%,82.352942%,82.352942%);fill-opacity:1;" d="M 30.121094 62.085938 C 20.148438 62.085938 12.035156 48.304688 12.035156 31.367188 C 12.035156 14.429688 20.148438 0.648438 30.121094 0.648438 C 40.09375 0.648438 48.203125 14.429688 48.203125 31.367188 C 48.203125 48.304688 40.09375 62.085938 30.121094 62.085938 Z M 30.121094 2.507812 C 21.175781 2.507812 13.898438 15.453125 13.898438 31.367188 C 13.898438 47.28125 21.175781 60.226562 30.121094 60.226562 C 39.066406 60.226562 46.34375 47.28125 46.34375 31.367188 C 46.34375 15.453125 39.066406 2.507812 30.121094 2.507812 Z M 30.121094 2.507812 "/>
<path style=" stroke:none;fill-rule:nonzero;fill:rgb(82.352942%,82.352942%,82.352942%);fill-opacity:1;" d="M 29.1875 1.578125 L 31.050781 1.578125 L 31.050781 61.15625 L 29.1875 61.15625 Z M 29.1875 1.578125 "/>
<path style=" stroke:none;fill-rule:nonzero;fill:rgb(82.352942%,82.352942%,82.352942%);fill-opacity:1;" d="M 30.121094 49.449219 C 13.179688 49.449219 -0.601562 41.339844 -0.601562 31.367188 C -0.601562 21.394531 13.179688 13.28125 30.121094 13.28125 C 47.058594 13.28125 60.839844 21.394531 60.839844 31.367188 C 60.839844 41.339844 47.058594 49.449219 30.121094 49.449219 Z M 30.121094 15.144531 C 14.207031 15.144531 1.261719 22.421875 1.261719 31.367188 C 1.261719 40.3125 14.207031 47.589844 30.121094 47.589844 C 46.03125 47.589844 58.976562 40.3125 58.976562 31.367188 C 58.976562 22.421875 46.03125 15.144531 30.121094 15.144531 Z M 30.121094 15.144531 "/>
<path style=" stroke:none;fill-rule:nonzero;fill:rgb(82.352942%,82.352942%,82.352942%);fill-opacity:1;" d="M 0.332031 30.4375 L 59.910156 30.4375 L 59.910156 32.296875 L 0.332031 32.296875 Z M 0.332031 30.4375 "/>
<path style=" stroke:none;fill-rule:nonzero;fill:rgb(52.156866%,74.117649%,34.117648%);fill-opacity:1;" d="M 19.664062 15.65625 C 19.664062 13.195312 17.667969 11.199219 15.203125 11.199219 C 12.742188 11.199219 10.746094 13.195312 10.746094 15.65625 C 10.746094 18.121094 12.742188 20.117188 15.203125 20.117188 C 17.667969 20.117188 19.664062 18.121094 19.664062 15.65625 Z M 19.664062 15.65625 "/>
<path style=" stroke:none;fill-rule:nonzero;fill:rgb(92.54902%,43.137255%,38.431373%);fill-opacity:1;" d="M 49.53125 16.984375 C 49.53125 14.519531 47.535156 12.523438 45.074219 12.523438 C 42.613281 12.523438 40.617188 14.519531 40.617188 16.984375 C 40.617188 19.445312 42.613281 21.441406 45.074219 21.441406 C 47.535156 21.441406 49.53125 19.445312 49.53125 16.984375 Z M 49.53125 16.984375 "/>
<path style=" stroke:none;fill-rule:nonzero;fill:rgb(100%,78.823531%,40.000001%);fill-opacity:1;" d="M 19.664062 45.75 C 19.664062 43.289062 17.667969 41.292969 15.203125 41.292969 C 12.742188 41.292969 10.746094 43.289062 10.746094 45.75 C 10.746094 48.210938 12.742188 50.207031 15.203125 50.207031 C 17.667969 50.207031 19.664062 48.210938 19.664062 45.75 Z M 19.664062 45.75 "/>
<path style=" stroke:none;fill-rule:nonzero;fill:rgb(32.549021%,69.411767%,88.627452%);fill-opacity:1;" d="M 64.601562 46.578125 C 64.601562 37.316406 57.089844 29.804688 47.824219 29.804688 C 38.5625 29.804688 31.050781 37.316406 31.050781 46.578125 C 31.050781 55.84375 38.5625 63.351562 47.824219 63.351562 C 57.089844 63.351562 64.601562 55.84375 64.601562 46.578125 Z M 64.601562 46.578125 "/>
<path style=" stroke:none;fill-rule:nonzero;fill:rgb(100%,100%,100%);fill-opacity:1;" d="M 39.988281 39.644531 L 42.328125 39.644531 L 42.328125 53.511719 L 39.988281 53.511719 Z M 39.988281 39.644531 "/>
<path style=" stroke:none;fill-rule:nonzero;fill:rgb(100%,100%,100%);fill-opacity:1;" d="M 55.511719 40.855469 C 56.476562 41.660156 56.960938 42.90625 56.960938 44.585938 C 56.960938 46.265625 56.46875 47.496094 55.484375 48.273438 C 54.496094 49.054688 52.984375 49.445312 50.949219 49.445312 L 48.488281 49.445312 L 48.488281 53.511719 L 46.148438 53.511719 L 46.148438 39.644531 L 50.910156 39.644531 C 53.015625 39.644531 54.546875 40.046875 55.511719 40.855469 Z M 53.855469 46.578125 C 54.324219 46.082031 54.5625 45.355469 54.5625 44.394531 C 54.5625 43.4375 54.261719 42.761719 53.667969 42.363281 C 53.070312 41.964844 52.140625 41.765625 50.871094 41.765625 L 48.488281 41.765625 L 48.488281 47.324219 L 51.207031 47.324219 C 52.503906 47.324219 53.386719 47.074219 53.855469 46.578125 Z M 53.855469 46.578125 "/>
</g>
</svg>
