<?xml version="1.0" encoding="UTF-8"?>
<svg xmlns="http://www.w3.org/2000/svg" xmlns:xlink="http://www.w3.org/1999/xlink" width="64px" height="64px" viewBox="0 0 64 64" version="1.1">
<g id="surface1">
<path style=" stroke:none;fill-rule:nonzero;fill:rgb(48.627451%,70.19608%,25.882354%);fill-opacity:1;" d="M 42 31 L 42 6 L 22 4 L 22 31 Z M 42 31 "/>
<path style=" stroke:none;fill-rule:nonzero;fill:rgb(68.235296%,83.529413%,50.588238%);fill-opacity:1;" d="M 22 4 L 7.800781 4.898438 C 6.800781 5 6 5.800781 6 6.898438 L 5 31 L 22 31 Z M 22 4 "/>
<path style=" stroke:none;fill-rule:nonzero;fill:rgb(92.54902%,93.725491%,94.509804%);fill-opacity:1;" d="M 58 31 L 59 6.199219 C 59 5.699219 58.800781 5.101562 58.398438 4.699219 C 58 4.199219 57.300781 4 56.699219 4.101562 L 42 6 L 42 31 Z M 58 31 "/>
<path style=" stroke:none;fill-rule:nonzero;fill:rgb(81.176472%,84.705883%,86.274511%);fill-opacity:1;" d="M 58 31 L 42 31 L 42 57 L 56.800781 57.898438 L 56.898438 57.898438 C 57.398438 57.898438 58 57.699219 58.300781 57.300781 C 58.699219 56.898438 58.898438 56.398438 58.898438 55.800781 Z M 58 31 "/>
<path style=" stroke:none;fill-rule:nonzero;fill:rgb(68.235296%,83.529413%,50.588238%);fill-opacity:1;" d="M 42 57 L 42 31 L 22 31 L 22 59 Z M 42 57 "/>
<path style=" stroke:none;fill-rule:nonzero;fill:rgb(48.627451%,70.19608%,25.882354%);fill-opacity:1;" d="M 5 31 L 6 55.199219 C 6 56.199219 6.800781 57 7.699219 57.101562 L 22 59 L 22 31 Z M 5 31 "/>
<path style=" stroke:none;fill-rule:nonzero;fill:rgb(69.01961%,74.509805%,77.254903%);fill-opacity:1;" d="M 25.898438 51.398438 L 26 45.398438 L 22 45.300781 L 22 51.800781 Z M 25.898438 51.398438 "/>
<path style=" stroke:none;fill-rule:nonzero;fill:rgb(47.058824%,56.470591%,61.176473%);fill-opacity:1;" d="M 30 31 L 32.199219 28.300781 L 32.199219 26.800781 L 31.101562 26.800781 L 31.199219 25.800781 L 34.101562 25.898438 L 34.199219 21.5 L 40.398438 20.800781 L 40 11.699219 L 34.5 10.699219 L 32.5 10.699219 L 32.199219 12.300781 L 29.800781 11.601562 L 29 15 L 27 15.101562 L 26.101562 21.101562 L 26.898438 21.699219 L 26.601562 22.898438 L 23.5 20.5 L 22 20.398438 L 22 31 Z M 30 31 "/>
<path style=" stroke:none;fill-rule:nonzero;fill:rgb(69.01961%,74.509805%,77.254903%);fill-opacity:1;" d="M 22 20.398438 L 17.398438 20.101562 L 14.199219 23.800781 L 7.800781 26.101562 L 7.898438 31 L 22 31 Z M 22 20.398438 "/>
<path style=" stroke:none;fill-rule:nonzero;fill:rgb(69.01961%,74.509805%,77.254903%);fill-opacity:1;" d="M 22 31 L 22 44.398438 L 22.699219 42.101562 L 26.101562 42.199219 L 26.199219 36.699219 L 29.5 36.800781 L 29.601562 31.398438 L 30 31 Z M 22 31 "/>
<path style=" stroke:none;fill-rule:nonzero;fill:rgb(47.058824%,56.470591%,61.176473%);fill-opacity:1;" d="M 7.898438 31 L 8 36.300781 L 13.398438 38.800781 L 10.5 45.601562 L 11.898438 53.101562 L 20.5 54.5 L 21.898438 51.800781 L 22 51.800781 L 22 45.300781 L 21.699219 45.300781 L 22 44.398438 L 22 31 Z M 7.898438 31 "/>
<path style=" stroke:none;fill-rule:nonzero;fill:rgb(30.19608%,81.568629%,88.235295%);fill-opacity:1;" d="M 21.398438 26.699219 L 18.300781 31 L 22 31 L 22 26.898438 Z M 21.398438 26.699219 "/>
<path style=" stroke:none;fill-rule:nonzero;fill:rgb(1.176471%,60.784316%,89.803922%);fill-opacity:1;" d="M 16.398438 33.601562 L 10.699219 36.800781 L 5.199219 36.800781 L 5.398438 41 L 13.398438 41 L 17.699219 37.800781 L 20.601562 39.699219 L 22 39.199219 L 22 31 L 18.300781 31 Z M 16.398438 33.601562 "/>
<path style=" stroke:none;fill-rule:nonzero;fill:rgb(30.19608%,81.568629%,88.235295%);fill-opacity:1;" d="M 40.101562 55.101562 L 37.101562 52.398438 L 36.800781 50 L 34.199219 50 L 31.699219 41.898438 L 31.601562 40.699219 L 42 36 L 41 31 L 36.699219 31 L 36.699219 34.300781 L 32.199219 33.800781 L 31.800781 31 L 22 31 L 22 39.199219 L 26.398438 37.601562 L 28.898438 39.5 L 29.101562 40.5 L 31.101562 42.300781 L 32.699219 51.300781 L 35.898438 53.601562 L 36.699219 56.5 L 37.5 57.5 L 41.199219 57.101562 Z M 40.101562 55.101562 "/>
<path style=" stroke:none;fill-rule:nonzero;fill:rgb(1.176471%,60.784316%,89.803922%);fill-opacity:1;" d="M 31.800781 31 L 22 31 L 22 26.898438 L 25.300781 28.300781 L 30.898438 25.199219 Z M 36.699219 30.199219 L 36.699219 31 L 40.800781 31 Z M 36.699219 30.199219 "/>
<path style=" stroke:none;fill-rule:nonzero;fill:rgb(32.941177%,43.137255%,47.843137%);fill-opacity:1;" d="M 17.5 45.300781 C 17.199219 45.199219 17 45.398438 16.898438 45.699219 C 16.800781 46 17 46.199219 17.300781 46.300781 C 18.800781 46.601562 20.398438 46.898438 22 47 L 22 46 C 20.5 45.800781 19 45.601562 17.5 45.300781 Z M 17.5 45.300781 "/>
<path style=" stroke:none;fill-rule:nonzero;fill:rgb(48.627451%,70.19608%,25.882354%);fill-opacity:1;" d="M 32.398438 45.300781 C 32.300781 45 32.101562 44.898438 31.800781 44.898438 C 28.601562 45.800781 25.300781 46.101562 22 45.800781 L 22 46.800781 C 22.699219 46.800781 23.300781 46.898438 24 46.898438 C 26.699219 46.898438 29.398438 46.5 32.101562 45.800781 C 32.300781 45.898438 32.5 45.601562 32.398438 45.300781 Z M 32.398438 45.300781 "/>
<path style="fill:none;stroke-width:1;stroke-linecap:butt;stroke-linejoin:miter;stroke:rgb(45.882353%,45.882353%,45.882353%);stroke-opacity:1;stroke-miterlimit:10;" d="M 50.5 55.101562 L 46 54.898438 "/>
<path style="fill:none;stroke-width:1;stroke-linecap:butt;stroke-linejoin:miter;stroke:rgb(45.882353%,45.882353%,45.882353%);stroke-opacity:1;stroke-miterlimit:10;" d="M 46 52.898438 L 55.699219 53.398438 "/>
<path style="fill:none;stroke-width:1;stroke-linecap:butt;stroke-linejoin:miter;stroke:rgb(45.882353%,45.882353%,45.882353%);stroke-opacity:1;stroke-miterlimit:10;" d="M 46 50.800781 L 56.800781 51.398438 "/>
<path style="fill:none;stroke-width:1;stroke-linecap:butt;stroke-linejoin:miter;stroke:rgb(45.882353%,45.882353%,45.882353%);stroke-opacity:1;stroke-miterlimit:10;" d="M 46 46.800781 L 54.800781 47.101562 "/>
<path style="fill:none;stroke-width:1;stroke-linecap:butt;stroke-linejoin:miter;stroke:rgb(45.882353%,45.882353%,45.882353%);stroke-opacity:1;stroke-miterlimit:10;" d="M 46 44.800781 L 56.800781 45.101562 "/>
<path style="fill:none;stroke-width:1;stroke-linecap:butt;stroke-linejoin:miter;stroke:rgb(45.882353%,45.882353%,45.882353%);stroke-opacity:1;stroke-miterlimit:10;" d="M 46 40.699219 L 54 41 "/>
<path style="fill:none;stroke-width:1;stroke-linecap:butt;stroke-linejoin:miter;stroke:rgb(45.882353%,45.882353%,45.882353%);stroke-opacity:1;stroke-miterlimit:10;" d="M 46 36.699219 L 56.699219 36.898438 "/>
<path style="fill:none;stroke-width:1;stroke-linecap:butt;stroke-linejoin:miter;stroke:rgb(45.882353%,45.882353%,45.882353%);stroke-opacity:1;stroke-miterlimit:10;" d="M 49.800781 32.699219 L 46 32.699219 "/>
<path style="fill:none;stroke-width:1;stroke-linecap:butt;stroke-linejoin:miter;stroke:rgb(74.117649%,74.117649%,74.117649%);stroke-opacity:1;stroke-miterlimit:10;" d="M 56.699219 5.898438 L 46 7.101562 "/>
<path style="fill:none;stroke-width:1;stroke-linecap:butt;stroke-linejoin:miter;stroke:rgb(74.117649%,74.117649%,74.117649%);stroke-opacity:1;stroke-miterlimit:10;" d="M 56.699219 10 L 46 11 "/>
<path style="fill:none;stroke-width:1;stroke-linecap:butt;stroke-linejoin:miter;stroke:rgb(74.117649%,74.117649%,74.117649%);stroke-opacity:1;stroke-miterlimit:10;" d="M 46 13 L 52.300781 12.398438 "/>
<path style="fill:none;stroke-width:1;stroke-linecap:butt;stroke-linejoin:miter;stroke:rgb(74.117649%,74.117649%,74.117649%);stroke-opacity:1;stroke-miterlimit:10;" d="M 56.699219 16.199219 L 46 16.898438 "/>
<path style="fill:none;stroke-width:1;stroke-linecap:butt;stroke-linejoin:miter;stroke:rgb(74.117649%,74.117649%,74.117649%);stroke-opacity:1;stroke-miterlimit:10;" d="M 46 18.898438 L 53.699219 18.398438 "/>
<path style="fill:none;stroke-width:1;stroke-linecap:butt;stroke-linejoin:miter;stroke:rgb(74.117649%,74.117649%,74.117649%);stroke-opacity:1;stroke-miterlimit:10;" d="M 56.699219 22.398438 L 46 22.800781 "/>
<path style="fill:none;stroke-width:1;stroke-linecap:butt;stroke-linejoin:miter;stroke:rgb(74.117649%,74.117649%,74.117649%);stroke-opacity:1;stroke-miterlimit:10;" d="M 46 26.699219 L 56.699219 26.5 "/>
<path style="fill:none;stroke-width:1;stroke-linecap:butt;stroke-linejoin:miter;stroke:rgb(74.117649%,74.117649%,74.117649%);stroke-opacity:1;stroke-miterlimit:10;" d="M 56.699219 30.601562 L 46 30.601562 "/>
<path style=" stroke:none;fill-rule:nonzero;fill:rgb(89.803922%,22.352941%,20.784314%);fill-opacity:1;" d="M 24 9 C 15.699219 9 9 15.699219 9 24 C 9 34.199219 20.5 47 24 47 C 27.5 47 39 34.199219 39 24 C 39 15.699219 32.300781 9 24 9 Z M 24 32 C 19.601562 32 16 28.398438 16 24 C 16 19.601562 19.601562 16 24 16 C 28.398438 16 32 19.601562 32 24 C 32 28.398438 28.398438 32 24 32 Z M 24 32 "/>
</g>
</svg>
