<?xml version="1.0" encoding="UTF-8"?>
<svg xmlns="http://www.w3.org/2000/svg" xmlns:xlink="http://www.w3.org/1999/xlink" width="64px" height="64px" viewBox="0 0 64 64" version="1.1">
<defs>
<filter id="alpha" filterUnits="objectBoundingBox" x="0%" y="0%" width="100%" height="100%">
  <feColorMatrix type="matrix" in="SourceGraphic" values="0 0 0 0 1 0 0 0 0 1 0 0 0 0 1 0 0 0 1 0"/>
</filter>
<mask id="mask0">
  <g filter="url(#alpha)">
<rect x="0" y="0" width="64" height="64" style="fill:rgb(0%,0%,0%);fill-opacity:0.14902;stroke:none;"/>
  </g>
</mask>
<clipPath id="clip1">
  <rect x="0" y="0" width="64" height="64"/>
</clipPath>
<g id="surface5" clip-path="url(#clip1)">
<path style=" stroke:none;fill-rule:nonzero;fill:rgb(27.058825%,25.490198%,23.529412%);fill-opacity:1;" d="M 61.921875 50.921875 C 61.921875 49.699219 48.410156 48.707031 31.746094 48.707031 C 15.082031 48.707031 1.574219 49.699219 1.574219 50.921875 C 1.574219 52.140625 15.082031 53.132812 31.746094 53.132812 C 48.410156 53.132812 61.921875 52.140625 61.921875 50.921875 Z M 61.921875 50.921875 "/>
</g>
</defs>
<g id="surface1">
<use xlink:href="#surface5" mask="url(#mask0)"/>
<path style=" stroke:none;fill-rule:nonzero;fill:rgb(100%,100%,100%);fill-opacity:1;" d="M 4.773438 14.585938 L 58.734375 14.585938 C 59.542969 14.585938 60.199219 15.242188 60.199219 16.054688 L 60.199219 47.945312 C 60.199219 48.757812 59.542969 49.414062 58.734375 49.414062 L 4.773438 49.414062 C 3.964844 49.414062 3.308594 48.757812 3.308594 47.945312 L 3.308594 16.054688 C 3.308594 15.242188 3.964844 14.585938 4.773438 14.585938 Z M 4.773438 14.585938 "/>
<path style=" stroke:none;fill-rule:nonzero;fill:rgb(94.117647%,94.117647%,94.117647%);fill-opacity:1;" d="M 58.667969 45.828125 L 4.773438 45.828125 C 3.964844 45.828125 3.308594 45.171875 3.308594 44.359375 L 3.308594 48 C 3.308594 48.808594 3.964844 49.464844 4.773438 49.464844 L 58.667969 49.464844 C 59.476562 49.464844 60.132812 48.808594 60.132812 48 L 60.132812 44.359375 C 60.132812 45.171875 59.476562 45.828125 58.667969 45.828125 Z M 58.667969 45.828125 "/>
<path style="fill:none;stroke-width:1;stroke-linecap:round;stroke-linejoin:round;stroke:rgb(27.058825%,25.490198%,23.529412%);stroke-opacity:1;stroke-miterlimit:4;" d="M 3.580078 10.939453 L 44.050781 10.939453 C 44.657227 10.939453 45.149414 11.431641 45.149414 12.041016 L 45.149414 35.958984 C 45.149414 36.568359 44.657227 37.060547 44.050781 37.060547 L 3.580078 37.060547 C 2.973633 37.060547 2.481445 36.568359 2.481445 35.958984 L 2.481445 12.041016 C 2.481445 11.431641 2.973633 10.939453 3.580078 10.939453 Z M 3.580078 10.939453 " transform="matrix(1.333333,0,0,1.333333,0,0)"/>
<path style="fill:none;stroke-width:1;stroke-linecap:round;stroke-linejoin:round;stroke:rgb(27.058825%,25.490198%,23.529412%);stroke-opacity:1;stroke-miterlimit:4;" d="M 2.789062 11.270508 L 23.80957 26.850586 L 44.830078 11.270508 " transform="matrix(1.333333,0,0,1.333333,0,0)"/>
<path style="fill:none;stroke-width:1;stroke-linecap:round;stroke-linejoin:round;stroke:rgb(27.058825%,25.490198%,23.529412%);stroke-opacity:1;stroke-miterlimit:4;" d="M 27.700195 23.970703 L 44.830078 36.670898 " transform="matrix(1.333333,0,0,1.333333,0,0)"/>
<path style="fill:none;stroke-width:1;stroke-linecap:round;stroke-linejoin:round;stroke:rgb(27.058825%,25.490198%,23.529412%);stroke-opacity:1;stroke-miterlimit:4;" d="M 2.789062 36.670898 L 19.918945 23.970703 " transform="matrix(1.333333,0,0,1.333333,0,0)"/>
<path style=" stroke:none;fill-rule:nonzero;fill:rgb(0%,72.156864%,94.117647%);fill-opacity:1;" d="M 45.121094 31.667969 C 45.121094 24.421875 39.246094 18.546875 32 18.546875 C 24.753906 18.546875 18.878906 24.421875 18.878906 31.667969 C 18.878906 38.914062 24.753906 44.785156 32 44.785156 C 39.246094 44.785156 45.121094 38.914062 45.121094 31.667969 Z M 45.121094 31.667969 "/>
<path style=" stroke:none;fill-rule:nonzero;fill:rgb(29.019609%,81.176472%,100%);fill-opacity:1;" d="M 32 21.773438 C 38.640625 21.773438 44.238281 26.738281 45.027344 33.332031 C 45.085938 32.796875 45.117188 32.257812 45.121094 31.71875 C 45.121094 24.472656 39.246094 18.601562 32 18.601562 C 24.753906 18.601562 18.878906 24.472656 18.878906 31.71875 C 18.882812 32.257812 18.914062 32.796875 18.972656 33.332031 C 19.761719 26.738281 25.359375 21.773438 32 21.773438 Z M 32 21.773438 "/>
<path style="fill:none;stroke-width:1;stroke-linecap:round;stroke-linejoin:round;stroke:rgb(27.058825%,25.490198%,23.529412%);stroke-opacity:1;stroke-miterlimit:4;" d="M 33.84082 23.750977 C 33.84082 18.316406 29.43457 13.910156 24 13.910156 C 18.56543 13.910156 14.15918 18.316406 14.15918 23.750977 C 14.15918 29.185547 18.56543 33.588867 24 33.588867 C 29.43457 33.588867 33.84082 29.185547 33.84082 23.750977 Z M 33.84082 23.750977 " transform="matrix(1.333333,0,0,1.333333,0,0)"/>
<path style=" stroke:none;fill-rule:nonzero;fill:rgb(100%,100%,100%);fill-opacity:1;" d="M 31.773438 22.535156 C 32.9375 22.53125 34.09375 22.734375 35.1875 23.132812 C 36.253906 23.515625 37.246094 24.078125 38.121094 24.800781 C 38.953125 25.507812 39.640625 26.367188 40.148438 27.332031 C 40.664062 28.3125 40.929688 29.402344 40.921875 30.507812 C 40.949219 31.53125 40.683594 32.546875 40.160156 33.425781 C 39.683594 34.207031 39.046875 34.875 38.292969 35.386719 C 37.628906 35.835938 36.90625 36.195312 36.148438 36.453125 C 35.628906 36.632812 35.09375 36.738281 34.546875 36.773438 C 33.398438 36.773438 32.828125 36.375 32.828125 35.558594 C 32.515625 35.9375 32.125 36.238281 31.679688 36.441406 C 31.226562 36.660156 30.730469 36.777344 30.226562 36.773438 C 29.71875 36.777344 29.21875 36.652344 28.773438 36.414062 C 28.324219 36.164062 27.925781 35.828125 27.601562 35.425781 C 27.265625 35.003906 27.007812 34.53125 26.828125 34.027344 C 26.640625 33.523438 26.546875 32.988281 26.546875 32.453125 C 26.550781 31.753906 26.667969 31.0625 26.894531 30.398438 C 27.113281 29.75 27.445312 29.144531 27.878906 28.613281 C 28.273438 28.105469 28.769531 27.6875 29.332031 27.386719 C 29.945312 27.074219 30.621094 26.914062 31.308594 26.921875 C 32.472656 26.855469 33.585938 27.425781 34.214844 28.414062 L 34.214844 28.105469 C 34.214844 27.320312 34.667969 26.921875 35.546875 26.921875 C 35.828125 26.914062 36.109375 26.976562 36.359375 27.105469 C 36.554688 27.199219 36.679688 27.398438 36.679688 27.613281 C 36.675781 27.882812 36.644531 28.148438 36.585938 28.414062 L 35.601562 32.921875 C 35.53125 33.191406 35.496094 33.46875 35.492188 33.746094 C 35.492188 34.09375 35.691406 34.265625 36.066406 34.265625 C 36.4375 34.234375 36.792969 34.089844 37.078125 33.851562 C 37.53125 33.503906 37.890625 33.042969 38.121094 32.519531 C 38.457031 31.898438 38.644531 31.203125 38.667969 30.492188 C 38.679688 29.667969 38.492188 28.855469 38.121094 28.121094 C 37.75 27.40625 37.226562 26.78125 36.585938 26.292969 C 35.917969 25.789062 35.171875 25.402344 34.375 25.148438 C 33.511719 24.878906 32.609375 24.75 31.707031 24.761719 C 30.789062 24.753906 29.882812 24.9375 29.039062 25.292969 C 28.214844 25.632812 27.460938 26.132812 26.828125 26.761719 C 26.203125 27.402344 25.699219 28.152344 25.347656 28.972656 C 24.988281 29.816406 24.800781 30.722656 24.800781 31.640625 C 24.800781 32.554688 24.984375 33.460938 25.332031 34.308594 C 26.042969 35.976562 27.371094 37.304688 29.039062 38.011719 C 29.886719 38.367188 30.792969 38.546875 31.707031 38.546875 C 33.5 38.589844 35.277344 38.1875 36.878906 37.375 C 37.140625 37.195312 37.390625 37.003906 37.625 36.800781 C 37.875 36.550781 38.191406 36.382812 38.535156 36.308594 C 38.785156 36.269531 39.042969 36.355469 39.222656 36.535156 C 39.402344 36.71875 39.488281 36.972656 39.453125 37.226562 C 39.449219 37.441406 39.394531 37.652344 39.292969 37.839844 C 39.148438 38.101562 38.980469 38.347656 38.785156 38.574219 C 37.894531 39.390625 36.820312 39.980469 35.652344 40.292969 C 34.347656 40.632812 33.003906 40.792969 31.652344 40.773438 C 30.046875 40.785156 28.464844 40.359375 27.078125 39.546875 C 25.703125 38.742188 24.558594 37.59375 23.761719 36.214844 C 21.230469 31.851562 22.71875 26.261719 27.078125 23.734375 C 28.5 22.902344 30.128906 22.488281 31.773438 22.535156 Z M 30.761719 34.238281 C 31.199219 34.242188 31.632812 34.109375 32 33.867188 C 32.378906 33.621094 32.6875 33.28125 32.894531 32.878906 C 33.109375 32.46875 33.21875 32.011719 33.214844 31.546875 C 33.230469 31.007812 33.054688 30.476562 32.71875 30.054688 C 32.390625 29.660156 31.902344 29.433594 31.386719 29.441406 C 30.960938 29.441406 30.550781 29.582031 30.214844 29.839844 C 29.855469 30.105469 29.5625 30.453125 29.359375 30.851562 C 29.160156 31.238281 29.058594 31.660156 29.054688 32.09375 C 29.042969 32.628906 29.207031 33.152344 29.519531 33.585938 C 29.796875 34 30.261719 34.246094 30.761719 34.238281 Z M 30.761719 34.238281 "/>
</g>
</svg>
