<?xml version="1.0" encoding="UTF-8"?>
<svg xmlns="http://www.w3.org/2000/svg" xmlns:xlink="http://www.w3.org/1999/xlink" width="64px" height="64px" viewBox="0 0 64 64" version="1.1">
<g id="surface1">
<path style=" stroke:none;fill-rule:nonzero;fill:rgb(98.431373%,94.117647%,83.137256%);fill-opacity:1;" d="M 54.40625 9.742188 L 36.15625 7.152344 C 35.808594 7.101562 35.484375 7.347656 35.433594 7.695312 L 34.496094 14.296875 L 35.882812 17.574219 C 35.976562 17.804688 35.933594 18.066406 35.769531 18.25 L 33.589844 20.691406 L 28.867188 52.21875 C 28.710938 53.273438 29.441406 54.257812 30.496094 54.40625 L 46.457031 56.667969 C 47.507812 56.820312 48.480469 56.089844 48.628906 55.039062 L 53.105469 23.457031 L 51.691406 20.507812 C 51.585938 20.285156 51.617188 20.019531 51.773438 19.828125 L 54.015625 17.066406 L 54.949219 10.464844 C 55 10.113281 54.757812 9.789062 54.40625 9.742188 Z M 54.40625 9.742188 "/>
<path style=" stroke:none;fill-rule:nonzero;fill:rgb(68.627453%,85.09804%,84.313726%);fill-opacity:1;" d="M 14.207031 16.511719 C 14.140625 16.164062 14.367188 15.828125 14.714844 15.761719 L 38.664062 11.265625 C 40.402344 10.9375 42.074219 12.082031 42.402344 13.820312 L 48.246094 44.9375 C 48.574219 46.675781 47.429688 48.347656 45.695312 48.675781 L 21.742188 53.171875 C 21.394531 53.238281 21.0625 53.011719 20.996094 52.664062 Z M 14.207031 16.511719 "/>
<path style=" stroke:none;fill-rule:nonzero;fill:rgb(91.37255%,23.529412%,1.568628%);fill-opacity:1;" d="M 54.40625 9.742188 L 36.15625 7.152344 C 35.808594 7.101562 35.484375 7.347656 35.433594 7.695312 L 34.496094 14.296875 L 35.898438 17.613281 C 35.984375 17.820312 36.175781 17.96875 36.398438 18 L 51.160156 20.09375 C 51.382812 20.125 51.605469 20.035156 51.746094 19.863281 L 54.015625 17.066406 L 54.949219 10.464844 C 55 10.113281 54.757812 9.789062 54.40625 9.742188 Z M 54.40625 9.742188 "/>
<path style=" stroke:none;fill-rule:nonzero;fill:rgb(79.607844%,21.960784%,1.960784%);fill-opacity:1;" d="M 14.207031 16.511719 C 14.140625 16.164062 14.367188 15.828125 14.714844 15.761719 L 38.664062 11.265625 C 40.402344 10.9375 42.074219 12.082031 42.402344 13.820312 L 43.316406 18.6875 L 15.445312 23.105469 Z M 14.207031 16.511719 "/>
<path style=" stroke:none;fill-rule:evenodd;fill:rgb(5.882353%,10.196079%,16.862746%);fill-opacity:1;" d="M 33.847656 7.472656 C 34.023438 6.246094 35.15625 5.394531 36.382812 5.566406 L 54.632812 8.15625 C 55.855469 8.332031 56.707031 9.464844 56.535156 10.6875 L 55.535156 17.730469 L 53.398438 20.363281 L 54.757812 23.203125 L 50.210938 55.261719 C 49.9375 57.1875 48.15625 58.527344 46.234375 58.253906 L 31.800781 56.207031 C 30.925781 56.082031 30.316406 55.273438 30.441406 54.398438 C 30.566406 53.523438 31.375 52.914062 32.25 53.039062 L 46.683594 55.085938 C 46.855469 55.109375 47.019531 54.988281 47.042969 54.8125 L 51.453125 23.714844 L 50.25 21.199219 C 49.875 20.421875 49.984375 19.492188 50.53125 18.820312 L 52.492188 16.402344 L 53.230469 11.191406 L 36.882812 8.871094 L 36.144531 14.082031 L 37.355469 16.953125 C 37.691406 17.75 37.539062 18.671875 36.960938 19.316406 L 35.105469 21.394531 L 31.160156 49.214844 C 31.035156 50.089844 30.226562 50.699219 29.351562 50.574219 C 28.476562 50.449219 27.867188 49.640625 27.992188 48.765625 L 32.074219 19.984375 L 34.171875 17.636719 L 32.851562 14.511719 Z M 33.847656 7.472656 "/>
<path style=" stroke:none;fill-rule:evenodd;fill:rgb(5.882353%,10.196079%,16.862746%);fill-opacity:1;" d="M 38.785156 18.359375 C 38.910156 17.484375 39.71875 16.875 40.59375 17 L 47.40625 17.964844 C 48.28125 18.089844 48.890625 18.898438 48.765625 19.773438 C 48.640625 20.648438 47.832031 21.257812 46.957031 21.132812 L 40.144531 20.167969 C 39.269531 20.042969 38.660156 19.234375 38.785156 18.359375 Z M 38.785156 18.359375 "/>
<path style=" stroke:none;fill-rule:nonzero;fill:rgb(17.647059%,29.411766%,37.254903%);fill-opacity:1;" d="M 9.710938 16.34375 C 9.648438 15.996094 9.882812 15.664062 10.230469 15.605469 L 34.226562 11.359375 C 35.964844 11.054688 37.628906 12.214844 37.933594 13.953125 L 43.449219 45.136719 C 43.753906 46.875 42.59375 48.535156 40.855469 48.84375 L 16.855469 53.085938 C 16.507812 53.148438 16.175781 52.914062 16.117188 52.566406 Z M 9.710938 16.34375 "/>
<path style=" stroke:none;fill-rule:evenodd;fill:rgb(5.882353%,10.196079%,16.862746%);fill-opacity:1;" d="M 36.359375 14.234375 C 36.207031 13.363281 35.375 12.78125 34.503906 12.9375 L 11.453125 17.011719 L 17.523438 51.34375 L 40.574219 47.269531 C 41.445312 47.113281 42.027344 46.285156 41.871094 45.414062 Z M 33.949219 9.785156 C 36.558594 9.324219 39.050781 11.066406 39.511719 13.675781 L 45.023438 44.855469 C 45.484375 47.46875 43.742188 49.957031 41.132812 50.417969 L 17.136719 54.664062 C 15.917969 54.878906 14.753906 54.066406 14.539062 52.847656 L 8.136719 16.625 C 7.921875 15.40625 8.734375 14.242188 9.953125 14.027344 Z M 33.949219 9.785156 "/>
<path style=" stroke:none;fill-rule:nonzero;fill:rgb(98.823529%,73.333335%,34.509805%);fill-opacity:1;" d="M 32.664062 25.609375 C 32.664062 21.996094 29.734375 19.066406 26.121094 19.066406 C 22.507812 19.066406 19.582031 21.996094 19.582031 25.609375 C 19.582031 29.222656 22.507812 32.152344 26.121094 32.152344 C 29.734375 32.152344 32.664062 29.222656 32.664062 25.609375 Z M 32.664062 25.609375 "/>
<path style=" stroke:none;fill-rule:evenodd;fill:rgb(98.823529%,73.333335%,34.509805%);fill-opacity:1;" d="M 37.304688 38.714844 C 37.445312 39.496094 36.925781 40.246094 36.140625 40.382812 L 22.046875 42.894531 C 21.265625 43.035156 20.515625 42.511719 20.378906 41.730469 C 20.238281 40.945312 20.757812 40.199219 21.542969 40.058594 L 35.636719 37.546875 C 36.417969 37.410156 37.167969 37.929688 37.304688 38.714844 Z M 37.304688 38.714844 "/>
</g>
</svg>
