<?xml version="1.0" encoding="UTF-8"?>
<svg xmlns="http://www.w3.org/2000/svg" xmlns:xlink="http://www.w3.org/1999/xlink" width="64px" height="64px" viewBox="0 0 64 64" version="1.1">
<g id="surface1">
<path style=" stroke:none;fill-rule:nonzero;fill:rgb(49.019608%,31.764707%,62.7451%);fill-opacity:1;" d="M 32 3.199219 C 16.09375 3.199219 3.199219 16.09375 3.199219 32 C 3.199219 47.90625 16.09375 60.800781 32 60.800781 C 47.90625 60.800781 60.800781 47.90625 60.800781 32 C 60.800781 16.09375 47.90625 3.199219 32 3.199219 Z M 31.65625 15.558594 C 31.75 15.164062 32.109375 14.984375 32.171875 14.953125 C 32.339844 14.871094 32.488281 14.859375 32.785156 14.835938 C 32.785156 14.835938 33.039062 14.820312 33.261719 14.824219 C 40.878906 15.027344 47.453125 20.433594 48.402344 28.625 C 48.464844 29.171875 48.574219 29.820312 48.605469 31.152344 C 48.609375 31.417969 48.617188 31.902344 48.289062 32.214844 C 48.140625 32.355469 47.96875 32.417969 47.851562 32.449219 C 47.6875 32.414062 47.429688 32.328125 47.230469 32.113281 C 46.960938 31.816406 46.945312 31.429688 46.9375 31.300781 C 46.859375 29.8125 46.648438 28.328125 46.304688 26.878906 C 45.039062 21.503906 40.160156 17.261719 34.664062 16.648438 C 34.027344 16.574219 33.386719 16.503906 32.746094 16.476562 C 32.308594 16.457031 31.875 16.375 31.707031 16.082031 C 31.582031 15.871094 31.644531 15.617188 31.65625 15.558594 Z M 34.648438 20.621094 C 34.632812 20.617188 34.328125 20.617188 33.9375 20.515625 C 33.632812 20.433594 33.394531 20.367188 33.214844 20.160156 C 33.042969 19.960938 32.996094 19.71875 32.988281 19.535156 C 33.027344 19.394531 33.109375 19.183594 33.300781 19.03125 C 33.570312 18.8125 33.90625 18.828125 34.066406 18.835938 C 38.554688 19.058594 41.214844 21.65625 41.214844 21.65625 C 41.445312 21.882812 42.410156 22.847656 43.246094 24.410156 C 44.257812 26.296875 44.550781 28.050781 44.644531 29.125 C 44.667969 29.371094 44.660156 29.734375 44.492188 30.109375 C 44.421875 30.261719 44.34375 30.433594 44.160156 30.566406 C 43.933594 30.726562 43.691406 30.742188 43.585938 30.738281 C 43.472656 30.695312 43.328125 30.621094 43.199219 30.488281 C 43.035156 30.320312 42.960938 30.132812 42.949219 30.058594 C 42.714844 27.996094 42.390625 25.984375 41.125 24.246094 C 39.515625 22.035156 37.238281 21.058594 34.648438 20.621094 Z M 40.515625 28.449219 C 40.472656 29.046875 40.230469 29.265625 40.171875 29.316406 C 39.988281 29.472656 39.78125 29.511719 39.652344 29.527344 C 39.507812 29.5 39.296875 29.433594 39.128906 29.265625 C 38.878906 29.019531 38.847656 28.679688 38.835938 28.566406 C 38.773438 28.050781 38.40625 26.398438 37.558594 25.636719 C 37.03125 25.160156 36.300781 24.90625 35.230469 24.753906 C 34.804688 24.691406 34.386719 24.601562 34.238281 24.320312 C 34.121094 24.101562 34.199219 23.855469 34.222656 23.777344 C 34.398438 23.214844 35.085938 23.050781 35.140625 23.039062 C 35.59375 23.101562 38.507812 23.550781 39.839844 25.71875 C 40.5625 26.890625 40.542969 28.113281 40.515625 28.449219 Z M 48.539062 44.492188 C 47.445312 45.820312 46.390625 47.222656 45.097656 48.335938 C 43.984375 49.292969 42.53125 49.40625 41.085938 48.816406 C 29.207031 43.964844 20.691406 35.722656 15.777344 23.824219 C 15.652344 23.523438 15.554688 23.214844 15.449219 22.910156 C 14.527344 20.242188 14.804688 19.203125 16.996094 17.40625 C 17.714844 16.820312 18.480469 16.289062 19.257812 15.78125 C 20.566406 14.933594 22 14.945312 22.988281 16.132812 C 24.632812 18.113281 26.199219 20.183594 27.546875 22.371094 C 28.554688 24.003906 28.191406 24.929688 26.71875 26.15625 C 26.375 26.441406 26.007812 26.695312 25.667969 26.980469 C 24.8125 27.691406 24.453125 28.535156 24.828125 29.660156 C 26.480469 34.582031 29.929688 37.691406 34.734375 39.34375 C 35.292969 39.539062 36.164062 39.105469 36.777344 38.757812 C 37.234375 38.5 37.5 37.910156 37.851562 37.46875 C 38.808594 36.273438 40.351562 35.769531 41.625 36.578125 C 43.902344 38.023438 46.085938 39.628906 48.226562 41.273438 C 48.683594 41.625 48.796875 42.429688 49.042969 42.972656 C 48.84375 43.605469 48.816406 44.152344 48.539062 44.492188 Z M 48.539062 44.492188 "/>
</g>
</svg>
