<?xml version="1.0" encoding="UTF-8"?>
<svg xmlns="http://www.w3.org/2000/svg" xmlns:xlink="http://www.w3.org/1999/xlink" width="64px" height="64px" viewBox="0 0 64 64" version="1.1">
<defs>
<clipPath id="clip1">
  <path d="M 15.4375 5.246094 L 61.542969 5.246094 L 61.542969 40.589844 L 15.4375 40.589844 Z M 15.4375 5.246094 "/>
</clipPath>
<clipPath id="clip2">
  <path d="M 22.328125 34.984375 L 52.945312 34.984375 L 52.945312 51.328125 L 22.328125 51.328125 Z M 22.328125 34.984375 "/>
</clipPath>
<filter id="alpha" filterUnits="objectBoundingBox" x="0%" y="0%" width="100%" height="100%">
  <feColorMatrix type="matrix" in="SourceGraphic" values="0 0 0 0 1 0 0 0 0 1 0 0 0 0 1 0 0 0 1 0"/>
</filter>
<mask id="mask0">
  <g filter="url(#alpha)">
<rect x="0" y="0" width="64" height="64" style="fill:rgb(0%,0%,0%);fill-opacity:0.8;stroke:none;"/>
  </g>
</mask>
<clipPath id="clip3">
  <rect x="0" y="0" width="64" height="64"/>
</clipPath>
<g id="surface5" clip-path="url(#clip3)">
<path style=" stroke:none;fill-rule:nonzero;fill:rgb(100%,77.254903%,18.431373%);fill-opacity:1;" d="M 23.101562 36.699219 L 37.089844 50.6875 L 37.105469 50.671875 C 38.164062 51.585938 39.769531 51.550781 40.777344 50.542969 L 52.171875 39.144531 C 52.75 38.566406 52.996094 37.789062 52.9375 37.03125 L 22.328125 34.984375 C 22.375 35.609375 22.625 36.222656 23.101562 36.699219 "/>
</g>
</defs>
<g id="surface1">
<path style=" stroke:none;fill-rule:nonzero;fill:rgb(86.274511%,88.627452%,91.37255%);fill-opacity:1;" d="M 37.503906 59.152344 C 38.519531 60.167969 40.167969 60.167969 41.183594 59.152344 L 60.777344 39.554688 C 61.796875 38.539062 61.796875 36.890625 60.78125 35.875 L 30.914062 6.007812 C 30.421875 5.515625 29.753906 5.242188 29.058594 5.246094 L 18.296875 5.308594 C 17.613281 5.316406 16.953125 5.585938 16.472656 6.074219 L 2.289062 20.253906 C 1.269531 21.273438 1.269531 22.921875 2.289062 23.9375 "/>
<g clip-path="url(#clip1)" clip-rule="nonzero">
<path style=" stroke:none;fill-rule:nonzero;fill:rgb(86.274511%,88.627452%,91.37255%);fill-opacity:1;" d="M 60.78125 35.875 L 30.914062 6.007812 C 30.421875 5.515625 29.753906 5.242188 29.058594 5.246094 L 18.296875 5.308594 C 17.613281 5.316406 16.957031 5.589844 16.472656 6.074219 L 15.433594 7.109375 C 15.917969 6.625 16.574219 6.347656 17.261719 6.34375 L 28.023438 6.28125 C 28.71875 6.277344 29.386719 6.550781 29.878906 7.042969 L 59.742188 36.910156 C 60.761719 37.925781 60.761719 39.574219 59.742188 40.589844 L 60.777344 39.554688 C 61.796875 38.539062 61.796875 36.890625 60.78125 35.875 "/>
</g>
<path style=" stroke:none;fill-rule:nonzero;fill:rgb(66.274512%,68.627453%,73.333335%);fill-opacity:1;" d="M 38.539062 58.113281 L 3.324219 22.902344 C 2.308594 21.882812 2.308594 20.238281 3.324219 19.21875 L 2.289062 20.257812 C 1.269531 21.273438 1.269531 22.921875 2.289062 23.9375 L 37.503906 59.152344 C 38.519531 60.167969 40.167969 60.167969 41.183594 59.152344 L 42.21875 58.117188 C 41.203125 59.132812 39.554688 59.132812 38.539062 58.113281 "/>
<path style=" stroke:none;fill-rule:nonzero;fill:rgb(35.294119%,38.431373%,44.313726%);fill-opacity:1;" d="M 22.171875 37.625 C 20.605469 36.058594 20.605469 33.507812 22.171875 31.941406 L 33.570312 20.542969 C 35.136719 18.976562 37.6875 18.976562 39.253906 20.542969 L 53.097656 34.390625 C 54.667969 35.957031 54.667969 38.507812 53.101562 40.074219 L 41.703125 51.472656 C 40.136719 53.039062 37.585938 53.039062 36.019531 51.472656 Z M 22.171875 37.625 "/>
<path style=" stroke:none;fill-rule:nonzero;fill:rgb(100%,77.254903%,18.431373%);fill-opacity:1;" d="M 52.171875 39.144531 C 53.175781 38.140625 53.214844 36.539062 52.300781 35.476562 L 52.316406 35.460938 L 38.328125 21.472656 C 37.269531 20.417969 35.554688 20.417969 34.496094 21.46875 L 23.101562 32.867188 C 22.046875 33.925781 22.046875 35.640625 23.101562 36.695312 L 37.089844 50.6875 L 37.105469 50.671875 C 38.164062 51.585938 39.769531 51.550781 40.777344 50.542969 Z M 52.171875 39.144531 "/>
<g clip-path="url(#clip2)" clip-rule="nonzero">
<use xlink:href="#surface5" mask="url(#mask0)"/>
</g>
<path style=" stroke:none;fill-rule:nonzero;fill:rgb(35.294119%,38.431373%,44.313726%);fill-opacity:1;" d="M 41.527344 39.25 L 44.722656 36.054688 L 49.992188 41.324219 L 46.796875 44.519531 Z M 42.945312 48.371094 L 37.675781 43.101562 L 40.867188 39.910156 L 46.140625 45.179688 Z M 40.773438 50.542969 C 39.71875 51.597656 38 51.597656 36.945312 50.542969 L 33.589844 47.1875 L 37.015625 43.761719 L 42.285156 49.03125 Z M 48.816406 31.960938 L 52.171875 35.316406 C 53.226562 36.371094 53.226562 38.089844 52.171875 39.144531 L 50.652344 40.664062 L 45.378906 35.394531 Z M 32.929688 46.527344 L 27.019531 40.617188 L 38.808594 28.824219 L 32.976562 22.992188 L 34.496094 21.46875 C 35.554688 20.417969 37.269531 20.414062 38.328125 21.472656 L 48.15625 31.300781 Z M 29.125 26.84375 L 32.320312 23.652344 L 37.492188 28.824219 L 34.296875 32.015625 Z M 33.636719 32.675781 L 30.445312 35.871094 L 25.273438 30.699219 L 28.464844 27.503906 Z M 26.359375 39.957031 L 23.097656 36.699219 C 22.046875 35.640625 22.046875 33.925781 23.101562 32.867188 L 24.613281 31.359375 L 29.785156 36.53125 Z M 53.097656 34.390625 L 39.253906 20.542969 C 37.6875 18.976562 35.136719 18.976562 33.570312 20.542969 L 22.171875 31.941406 C 20.605469 33.507812 20.605469 36.058594 22.171875 37.625 L 36.019531 51.472656 C 37.585938 53.039062 40.136719 53.039062 41.703125 51.472656 L 53.101562 40.074219 C 54.667969 38.507812 54.667969 35.957031 53.097656 34.390625 "/>
</g>
</svg>
