<?xml version="1.0" encoding="UTF-8"?>
<svg xmlns="http://www.w3.org/2000/svg" xmlns:xlink="http://www.w3.org/1999/xlink" width="64px" height="64px" viewBox="0 0 64 64" version="1.1">
<g id="surface1">
<path style=" stroke:none;fill-rule:evenodd;fill:rgb(36.078432%,37.64706%,38.039216%);fill-opacity:1;" d="M 15.199219 0 L 47.199219 0 C 48.667969 0 49.867188 1.199219 49.867188 2.667969 L 49.867188 61.332031 C 49.867188 62.800781 48.667969 64 47.199219 64 L 15.199219 64 C 13.734375 64 12.535156 62.800781 12.535156 61.332031 L 12.535156 2.667969 C 12.535156 1.199219 13.734375 0 15.199219 0 M 15.199219 8 L 15.199219 56 L 47.199219 56 L 47.199219 8 Z M 15.199219 8 "/>
<path style=" stroke:none;fill-rule:evenodd;fill:rgb(35.294119%,74.901962%,78.039217%);fill-opacity:1;" d="M 15.199219 8 L 47.199219 8 L 47.199219 42.667969 L 15.199219 42.667969 Z M 15.199219 8 "/>
<path style=" stroke:none;fill-rule:evenodd;fill:rgb(0%,57.647061%,80.784315%);fill-opacity:1;" d="M 15.199219 42.667969 L 47.199219 42.667969 L 47.199219 56 L 15.199219 56 Z M 15.199219 42.667969 "/>
<path style=" stroke:none;fill-rule:evenodd;fill:rgb(16.862746%,17.647059%,17.647059%);fill-opacity:1;" d="M 27.199219 2.667969 L 35.199219 2.667969 C 35.933594 2.667969 36.535156 3.265625 36.535156 4 C 36.535156 4.734375 35.933594 5.332031 35.199219 5.332031 L 27.199219 5.332031 C 26.464844 5.332031 25.867188 4.734375 25.867188 4 C 25.867188 3.265625 26.464844 2.667969 27.199219 2.667969 "/>
<path style=" stroke:none;fill-rule:evenodd;fill:rgb(16.862746%,17.647059%,17.647059%);fill-opacity:1;" d="M 20.535156 5.332031 C 21.265625 5.332031 21.867188 4.734375 21.867188 4 C 21.867188 3.265625 21.265625 2.667969 20.535156 2.667969 C 19.800781 2.667969 19.199219 3.265625 19.199219 4 C 19.199219 4.734375 19.800781 5.332031 20.535156 5.332031 "/>
<path style=" stroke:none;fill-rule:evenodd;fill:rgb(16.862746%,17.647059%,17.647059%);fill-opacity:1;" d="M 28.535156 58.667969 L 33.867188 58.667969 C 34.601562 58.667969 35.199219 59.265625 35.199219 60 C 35.199219 60.734375 34.601562 61.332031 33.867188 61.332031 L 28.535156 61.332031 C 27.800781 61.332031 27.199219 60.734375 27.199219 60 C 27.199219 59.265625 27.800781 58.667969 28.535156 58.667969 "/>
<path style=" stroke:none;fill-rule:evenodd;fill:rgb(77.254903%,65.882355%,42.352942%);fill-opacity:1;" d="M 19.535156 13.332031 L 22.867188 13.332031 C 23.800781 13.332031 24.535156 14.066406 24.535156 15 L 24.535156 18.332031 C 24.535156 19.265625 23.800781 20 22.867188 20 L 19.535156 20 C 18.601562 20 17.867188 19.265625 17.867188 18.332031 L 17.867188 15 C 17.867188 14.066406 18.601562 13.332031 19.535156 13.332031 "/>
<path style=" stroke:none;fill-rule:evenodd;fill:rgb(51.372552%,60.392159%,56.078434%);fill-opacity:1;" d="M 29.535156 13.332031 L 32.867188 13.332031 C 33.800781 13.332031 34.535156 14.066406 34.535156 15 L 34.535156 18.332031 C 34.535156 19.265625 33.800781 20 32.867188 20 L 29.535156 20 C 28.601562 20 27.867188 19.265625 27.867188 18.332031 L 27.867188 15 C 27.867188 14.066406 28.601562 13.332031 29.535156 13.332031 "/>
<path style=" stroke:none;fill-rule:evenodd;fill:rgb(29.803923%,63.921571%,67.058825%);fill-opacity:1;" d="M 39.535156 13.332031 L 42.867188 13.332031 C 43.800781 13.332031 44.535156 14.066406 44.535156 15 L 44.535156 18.332031 C 44.535156 19.265625 43.800781 20 42.867188 20 L 39.535156 20 C 38.601562 20 37.867188 19.265625 37.867188 18.332031 L 37.867188 15 C 37.867188 14.066406 38.601562 13.332031 39.535156 13.332031 "/>
<path style=" stroke:none;fill-rule:evenodd;fill:rgb(61.960787%,77.64706%,27.058825%);fill-opacity:1;" d="M 19.535156 22.667969 L 22.867188 22.667969 C 23.800781 22.667969 24.535156 23.398438 24.535156 24.332031 L 24.535156 27.667969 C 24.535156 28.601562 23.800781 29.332031 22.867188 29.332031 L 19.535156 29.332031 C 18.601562 29.332031 17.867188 28.601562 17.867188 27.667969 L 17.867188 24.332031 C 17.867188 23.398438 18.601562 22.667969 19.535156 22.667969 "/>
<path style=" stroke:none;fill-rule:evenodd;fill:rgb(78.431374%,76.862746%,45.882353%);fill-opacity:1;" d="M 29.535156 22.667969 L 32.867188 22.667969 C 33.800781 22.667969 34.535156 23.398438 34.535156 24.332031 L 34.535156 27.667969 C 34.535156 28.601562 33.800781 29.332031 32.867188 29.332031 L 29.535156 29.332031 C 28.601562 29.332031 27.867188 28.601562 27.867188 27.667969 L 27.867188 24.332031 C 27.867188 23.398438 28.601562 22.667969 29.535156 22.667969 "/>
<path style=" stroke:none;fill-rule:evenodd;fill:rgb(89.803922%,64.313728%,33.725491%);fill-opacity:1;" d="M 39.535156 22.667969 L 42.867188 22.667969 C 43.800781 22.667969 44.535156 23.398438 44.535156 24.332031 L 44.535156 27.667969 C 44.535156 28.601562 43.800781 29.332031 42.867188 29.332031 L 39.535156 29.332031 C 38.601562 29.332031 37.867188 28.601562 37.867188 27.667969 L 37.867188 24.332031 C 37.867188 23.398438 38.601562 22.667969 39.535156 22.667969 "/>
<path style=" stroke:none;fill-rule:evenodd;fill:rgb(77.254903%,65.882355%,42.352942%);fill-opacity:1;" d="M 19.535156 32 L 22.867188 32 C 23.800781 32 24.535156 32.734375 24.535156 33.667969 L 24.535156 37 C 24.535156 37.933594 23.800781 38.667969 22.867188 38.667969 L 19.535156 38.667969 C 18.601562 38.667969 17.867188 37.933594 17.867188 37 L 17.867188 33.667969 C 17.867188 32.734375 18.601562 32 19.535156 32 "/>
<path style=" stroke:none;fill-rule:evenodd;fill:rgb(73.333335%,38.82353%,61.960787%);fill-opacity:1;" d="M 29.535156 32 L 32.867188 32 C 33.800781 32 34.535156 32.734375 34.535156 33.667969 L 34.535156 37 C 34.535156 37.933594 33.800781 38.667969 32.867188 38.667969 L 29.535156 38.667969 C 28.601562 38.667969 27.867188 37.933594 27.867188 37 L 27.867188 33.667969 C 27.867188 32.734375 28.601562 32 29.535156 32 "/>
<path style=" stroke:none;fill-rule:evenodd;fill:rgb(75.686276%,55.29412%,38.82353%);fill-opacity:1;" d="M 39.535156 32 L 42.867188 32 C 43.800781 32 44.535156 32.734375 44.535156 33.667969 L 44.535156 37 C 44.535156 37.933594 43.800781 38.667969 42.867188 38.667969 L 39.535156 38.667969 C 38.601562 38.667969 37.867188 37.933594 37.867188 37 L 37.867188 33.667969 C 37.867188 32.734375 38.601562 32 39.535156 32 "/>
<path style=" stroke:none;fill-rule:evenodd;fill:rgb(63.137257%,73.333335%,68.235296%);fill-opacity:1;" d="M 19.199219 9.332031 L 43.199219 9.332031 C 43.933594 9.332031 44.535156 9.933594 44.535156 10.667969 C 44.535156 11.398438 43.933594 12 43.199219 12 L 19.199219 12 C 18.464844 12 17.867188 11.398438 17.867188 10.667969 C 17.867188 9.933594 18.464844 9.332031 19.199219 9.332031 "/>
<path style=" stroke:none;fill-rule:evenodd;fill:rgb(76.47059%,79.215688%,79.607844%);fill-opacity:1;" d="M 37.867188 42.667969 C 37.867188 41.929688 37.269531 41.332031 36.535156 41.332031 C 35.796875 41.332031 35.199219 41.929688 35.199219 42.667969 C 35.199219 43.402344 35.796875 44 36.535156 44 C 37.269531 44 37.867188 43.402344 37.867188 42.667969 Z M 37.867188 42.667969 "/>
<path style=" stroke:none;fill-rule:evenodd;fill:rgb(76.47059%,79.215688%,79.607844%);fill-opacity:1;" d="M 32.535156 42.667969 C 32.535156 41.929688 31.9375 41.332031 31.199219 41.332031 C 30.464844 41.332031 29.867188 41.929688 29.867188 42.667969 C 29.867188 43.402344 30.464844 44 31.199219 44 C 31.9375 44 32.535156 43.402344 32.535156 42.667969 Z M 32.535156 42.667969 "/>
<path style=" stroke:none;fill-rule:evenodd;fill:rgb(16.862746%,17.647059%,17.647059%);fill-opacity:1;" d="M 27.199219 42.667969 C 27.199219 41.929688 26.601562 41.332031 25.867188 41.332031 C 25.128906 41.332031 24.535156 41.929688 24.535156 42.667969 C 24.535156 43.402344 25.128906 44 25.867188 44 C 26.601562 44 27.199219 43.402344 27.199219 42.667969 Z M 27.199219 42.667969 "/>
<path style=" stroke:none;fill-rule:evenodd;fill:rgb(61.960787%,77.64706%,27.058825%);fill-opacity:1;" d="M 19.535156 46.667969 L 22.867188 46.667969 C 23.800781 46.667969 24.535156 47.398438 24.535156 48.332031 L 24.535156 51.667969 C 24.535156 52.601562 23.800781 53.332031 22.867188 53.332031 L 19.535156 53.332031 C 18.601562 53.332031 17.867188 52.601562 17.867188 51.667969 L 17.867188 48.332031 C 17.867188 47.398438 18.601562 46.667969 19.535156 46.667969 "/>
<path style=" stroke:none;fill-rule:evenodd;fill:rgb(88.235295%,53.333336%,50.980395%);fill-opacity:1;" d="M 29.535156 46.667969 L 32.867188 46.667969 C 33.800781 46.667969 34.535156 47.398438 34.535156 48.332031 L 34.535156 51.667969 C 34.535156 52.601562 33.800781 53.332031 32.867188 53.332031 L 29.535156 53.332031 C 28.601562 53.332031 27.867188 52.601562 27.867188 51.667969 L 27.867188 48.332031 C 27.867188 47.398438 28.601562 46.667969 29.535156 46.667969 "/>
<path style=" stroke:none;fill-rule:evenodd;fill:rgb(63.137257%,73.333335%,68.235296%);fill-opacity:1;" d="M 39.535156 46.667969 L 42.867188 46.667969 C 43.800781 46.667969 44.535156 47.398438 44.535156 48.332031 L 44.535156 51.667969 C 44.535156 52.601562 43.800781 53.332031 42.867188 53.332031 L 39.535156 53.332031 C 38.601562 53.332031 37.867188 52.601562 37.867188 51.667969 L 37.867188 48.332031 C 37.867188 47.398438 38.601562 46.667969 39.535156 46.667969 "/>
<path style=" stroke:none;fill-rule:evenodd;fill:rgb(49.803922%,50.980395%,44.705883%);fill-opacity:1;" d="M 21.199219 18 C 21.933594 18 22.535156 17.398438 22.535156 16.667969 C 22.535156 15.933594 21.933594 15.332031 21.199219 15.332031 C 20.464844 15.332031 19.867188 15.933594 19.867188 16.667969 C 19.867188 17.398438 20.464844 18 21.199219 18 "/>
<path style=" stroke:none;fill-rule:evenodd;fill:rgb(85.882354%,23.921569%,34.117648%);fill-opacity:1;" d="M 29.867188 34 L 32.535156 34 C 33.265625 34 33.867188 34.601562 33.867188 35.332031 C 33.867188 36.066406 33.265625 36.667969 32.535156 36.667969 L 29.867188 36.667969 C 29.132812 36.667969 28.535156 36.066406 28.535156 35.332031 C 28.535156 34.601562 29.132812 34 29.867188 34 "/>
<path style=" stroke:none;fill-rule:evenodd;fill:rgb(92.156863%,76.47059%,18.039216%);fill-opacity:1;" d="M 41.199219 28.667969 C 42.667969 28.667969 43.867188 27.464844 43.867188 26 C 43.867188 24.535156 42.667969 23.332031 41.199219 23.332031 C 39.734375 23.332031 38.535156 24.535156 38.535156 26 C 38.535156 27.464844 39.734375 28.667969 41.199219 28.667969 "/>
<path style=" stroke:none;fill-rule:evenodd;fill:rgb(92.156863%,76.47059%,18.039216%);fill-opacity:1;" d="M 21.199219 51.332031 C 21.933594 51.332031 22.535156 50.734375 22.535156 50 C 22.535156 49.265625 21.933594 48.667969 21.199219 48.667969 C 20.464844 48.667969 19.867188 49.265625 19.867188 50 C 19.867188 50.734375 20.464844 51.332031 21.199219 51.332031 "/>
</g>
</svg>
