<svg xmlns="http://www.w3.org/2000/svg" width="64" height="64"><defs><clipPath id="a"><path d="M2 2h56v60H2Zm0 0"/></clipPath><clipPath id="b"><path d="M2.203 31.895c0 16.32 12.461 29.558 27.832 29.558s27.832-13.238 27.832-29.558c0-16.325-12.46-29.56-27.832-29.56-15.37 0-27.832 13.235-27.832 29.56"/></clipPath><clipPath id="d"><path d="M2 3h56v58H2Zm0 0"/></clipPath><clipPath id="e"><path d="M32.27 3.652c-.083 0-.153-.004-.204.028-.195.023-.035 0-.28-.004-.411-.012-.575.066-.692.14-.133-.007-.668-.093-.938-.097-.293 0-.101.082-.562.078 0 .027-.059.027-.114.031h-.14c-.05 0-.11 0-.168.004-.402-.008-1.3.086-1.41.168.093.008.199 0 .312-.008.063-.008.145-.031.211-.031.133-.012.285-.02.422-.012-.172.012-.25.035-.398.07.023.012.191.02.253.028.27-.02.278-.082.567-.082.086 0 .191-.004.281.008-.37.03-.715.027-.879.132.102-.007.383 0 .664-.011-.183.004-.28.027-.383.047.098.03.489.062.778.074.113-.004.21-.012.312-.04h.184c-.086.063.281.079.57.087.051 0 .09-.008.133-.016a.5.5 0 0 1 .148-.02c.137.008.231.032.5.047.47-.011.77.004 1.055-.043.063.008.149 0 .211.008-.156.043-.398.063-.672.078-.25-.003-.46-.027-.707-.027-.027.016-.097.012-.097.035 0 .04.46.125.53.145-.402-.012-.519-.121-.886-.164-.285-.032-.59-.02-.754-.02-.062 0-.152-.012-.215 0 .035.024.051.043.145.047-.137-.004-.285-.02-.29.031.009.11.95.09.973.211-.003.117-.203.11-.445.102a3 3 0 0 0-.34 0 .9.9 0 0 0-.433.136c0 .024-.004.024-.004.051.066 0 .156-.011.219 0 .043-.015.101-.015.144-.031h.215c.004.148.453.168.656.227-.078-.008-.183-.008-.262-.008-.273-.047-.437-.133-.898-.125q-.065.001-.125-.004c-.121-.008-.23-.016-.238.05.008.11.304.09.476.122-.3.082-1.047.008-1.062.183 0 .024.047.043.144.035a.4.4 0 0 0 .176-.046c.52.058.89.082 1.387.09.11 0 .187-.008.25-.02.066-.008.12-.02.187-.016.368.012.727.012 1.094.028.29.004.145.078.48.09.333.035 1.141.011 1.149-.094.008-.055-.18-.04-.219-.047a3 3 0 0 0-.36-.02c.005-.148.587-.015.587-.164.004-.043-.078-.031-.102-.074.242.04.473.035.715.05.234-.019.328-.124.613-.136-.093-.062-.246-.101-.422-.133.282.032.438.067.399-.039a7 7 0 0 1-.39-.035c.206-.02.562-.008.87-.004.223.012.532.082.72.067.405-.043.671-.137 1.214-.125.469.043 1.203.101 1.484.066-.328-.059-.843-.121-.992-.18.703.004 1.32.196 1.809.2a.5.5 0 0 1 .148.023c.09.016.172.039.156-.008-.046-.101-.683-.187-.855-.258-.078-.03-.082-.058-.234-.105a1.5 1.5 0 0 0-.239-.07q-.51-.062-1.023-.098c.05 0 .086 0 .117.004.035 0 .066.004.113-.004-.293-.11-1.414-.27-1.742-.313-.117-.027-.238-.027-.379-.043-.113-.011-.199-.054-.41-.074a.8.8 0 0 0-.203.008.7.7 0 0 1-.223.008c-.21 0-.265-.074-.523-.09-.063.004-.129.016-.16.008a112 112 0 0 1-1.59-.106zm-2.171.68h.02zm-3.22-.238c.009.058.114.058.235.054.051 0 .106 0 .153.004q-.052-.004-.11.004-.054.013-.101.008c-.258-.008-.371.027-.54.063.008 0 .13.058.176.05.04.004.102 0 .172-.007.07-.008.149-.016.223-.012a.5.5 0 0 1-.156.047c-.102-.004-.176-.02-.38-.004-.116.015-.316-.012-.323.058.011.063.421.036.609.051 0 0-.078.04-.129.035-.137 0-.352-.011-.418-.011a.6.6 0 0 0-.21.011c.058.172.312.117.804.078-.078.043-.188.047-.332.067.008.039.008.039.11.039.1-.016.155-.031.3-.047.039.035.05.055.195.04.168 0 .207-.04.43-.052.215 0 .367-.008.582.016-.191.012-1.07.027-1.09.117.012.094.387.09.637.078-.035.02-.078.024-.188.04.051.07.332.062.57.054.215.004.356.004.348-.105.133.03.387.074.516.066 0-.024.004-.027.004-.055h.258c-.051-.031-.106-.047-.184-.082.066-.023.106-.039.172-.066.039.07.039.09.23.086.196.011.375-.13.676-.133.102.004.274.012.328-.016.04-.023.012-.02.012-.062-.191-.004-.555-.055-.7-.055-.023 0-.237.05-.241 0 0-.039.101-.02.101-.062 0-.043-.168-.016-.172-.059 0-.07.02-.07-.183-.066h-.145a.13.13 0 0 0 .074.027c0 .027-.003.027-.003.055h-.168c-.137-.035-.036-.086-.254-.11-.094 0-.172.004-.246.008a2 2 0 0 1-.32 0c-.22-.008-.165-.121-.442-.152a9 9 0 0 0-.344-.008q-.238.001-.535.008m-1.992.281c-.008.09.152.047.234.07.07-.015.16-.015.234-.023.012-.047.004-.043.012-.09-.086.02-.297.02-.48.043m.422.418c-.032.144.273.102.437.152-.039.008-.137.028-.144.059-.008.086.468.004.984-.059-.047-.078 0-.074.008-.125 0-.078-.13-.066-.254-.05-.117.015-.227.027-.227-.036-.16.028-.422.004-.476-.035-.149.028-.325.024-.328.094m-1.602.062c-.094.024-.164.051-.273.067-.07.004-.122-.004-.18-.012-.074-.008-.16-.015-.317-.008-.167.032-.265.067-.437.094-.012.086.027.055.215.04-.035.01-.067.05-.106.058.11.02.172-.024.473-.059-.031.012-.043.05-.012.055-.18.058-.277.055-.414.113.114.024.16.012.356-.008.199-.039.367-.074.445-.035.254-.031.395-.027.64-.047.16-.011.227.012.298.032a.6.6 0 0 0 .308.03c.098-.019.242-.01.258-.085.012-.078-.266-.067-.371-.098.039-.012.082-.039.117-.058-.07-.004-.207-.09-.395-.07-.078 0-.136.05-.214.058-.075.008-.102-.016-.145-.035-.039-.016-.086-.035-.183-.035q-.03 0-.063.003m13.785.106c.02.117.781.191 1.028.238.035.149-.098.149-.317.153-.285 0-.77-.125-1.152-.137-.133-.008-.235 0-.336.008-.098.007-.192.015-.313.007-.304-.007-.797-.105-.78.028.034.09 1.378.351 1.433.36.168.01.312.05.484.062.063.023.102.008.129-.028.187.02.352.067.547.078-.047.07-.024.075-.156.082-.27-.035-.52-.074-.786-.109-.078.02-.101.027-.246.008-.105-.016-.238-.02-.347-.043-.102-.012-.383-.043-.407.05.157.048.188.048.254.044.043 0 .106 0 .235.015.168.012.347.106.574.157-.055.054-.137.03-.266.043.196.085.633.203.93.246.04-.004.063 0 .082.004.027.007.043.015.094 0-.043-.012-.102-.04-.145-.059.067.004.114 0 .274.023.168.02.297.079.418.098a1 1 0 0 0 .187 0c.074-.004.137-.008.235.008.156.02.27.047.406.066 1.523.27 2.445.785 2.945 1.348.008.035.004.047.02.078.109.047.308.066.343.168.024.137-.257.059-.218.176.007.113.129.133.367.18a.4.4 0 0 0 .172-.012c.035-.012.062-.02.12-.012.41.113.598.387.99.547.007.043.015.086-.099.055-.296-.075-.5-.211-.773-.27-.11-.031-.105-.035-.227-.05.098.175 1.004.433 1.41.577-.07.141-.222.141-.265.309-.184-.094-.18-.082-.348-.074.004 0 .004.008.004.012-.242.043-.277.136-.433.218a1 1 0 0 0 .03.145.6.6 0 0 1 .259.058c-.024.079-.11.055-.094.125.031.168.398.317.504.457.05.063.12.211.172.239.11.054.172.05.226.047.067-.008.125-.012.246.078-.097.023-.183-.004-.16.082.04.203.551.715.84.883.031.023.043.101.113.148.23.105.32.105.453.285.141.031.32-.004.489.04.304.09.347.359.636.448h.063a.4.4 0 0 1 .16.016c.024.047.078.074.156.106.305.074.09-.286.332-.293-.043-.075-.062-.25-.09-.356-.05-.203.465-.074.43-.273-.039-.07-.148-.137-.168-.18 0-.035.008-.027.055-.047 0-.023-.031-.039-.04-.062-.042-.121.165-.075.376-.028.129.028.258.059.324.047.129-.023.02-.078.156-.062.012.043.028.066.04.109.054.031.093.023.148.059.176 0 .512.16.66.14.21-.035-.262-.46-.121-.465.113 0 .11.024.187.016-.035-.047.067-.016.141-.004.063.031.117.059.176.086a28.2 28.2 0 0 0-7.149-5.789c-.05-.02-.086-.016-.078.02.04.023.07.074.125.105-.062-.02-.117-.02-.172-.055-.238-.093-.425-.148-.593-.254h-.102c.012.043.063.055.086.086-.23-.058-.309-.18-.535-.246-.324-.078-.54-.09-.883-.148-.473-.125-.629-.121-1.14-.211-.204-.035-.208.004-.212.043-.007.039-.011.082-.25.039a1.3 1.3 0 0 1-.347-.094c-.246.027-.809.004-1.258-.008a.5.5 0 0 0-.148-.02c-.059 0-.114.009-.11.036m-10.37.035c-.013 0-.032-.004-.09 0-.278.016-.766.055-.927.11l.887.007c.113.004.223-.023.219-.062.016-.024.008-.031.004-.067-.09.012-.082.012-.094.012m-.836.149c-.164.007-.418.015-.43.101.016.063.852.129 1.004.121.102.004.2-.023.293-.062.235.09.29.152.559.25-.055.004-.184.043-.18.093 0 .145.703.215 1.035.223.114-.012.356-.078.41-.101a.3.3 0 0 0 .087 0 .2.2 0 0 1 .09 0c-.044.117.413.117.726.082.394.02.777.011 1.168.015.144-.015.16-.047.363-.058.04.035.102.086.293.09.516.019 1.156.062 1.195-.141 0 0-.082.012-.191-.012.023-.027.047-.027.07-.05a.4.4 0 0 0 .118 0c-.227-.15-.583-.184-1.165-.204-.77-.039-.992.09-1.808.094-.363.004-.645-.04-1-.063-.05.004-.238.082-.23-.023 0-.02.074-.027.105-.027-.215-.067-.559.015-.649-.11.196.004.383 0 .579-.011-.133-.067-.782-.008-.672-.141-.075.004-.18.008-.258.004a.7.7 0 0 1-.285.05c-.227.005-.367-.03-.516-.062a1.9 1.9 0 0 0-.508-.066c-.062 0-.129 0-.203.008m-2.5.058c-.05 0-.383.129-.133.086.215-.016.364-.031.446-.074-.086-.012-.133-.02-.2-.02q-.044.001-.113.008m-1.578.137c-.02.098.277.156.43.137.09-.008.18-.036.203-.082-.223-.016-.274-.067-.453-.067q-.07 0-.18.012m2.938.027c-.098.028-.18.043-.286.07-.27 0-.402-.011-.625.004-.086 0-.152 0-.25.028.078.082.235.043.477.023-.008.055-.004.063-.016.113-.18.028-.289.004-.394-.015a.9.9 0 0 0-.352-.024c.004.032-.02.036-.012.063.055.039.165.047.266.062-.226.04-.379-.007-.531-.05-.14-.04-.277-.082-.469-.055a.5.5 0 0 0-.164.02c.031 0 .016.027.035.054-.004-.004-.012-.004-.015-.008-.008.043-.012.047-.016.094a.8.8 0 0 0 .332.012c.027 0 .016.023.035.043.059-.016.145-.016.207-.02-.02.04.059.059.156.047.282-.02.766-.129 1.028-.152.05.011.117 0 .164 0-.074.039-.34.047-.36.113-.011.02.004.031-.007.05-.051.016-.09.036-.106.063 0 .07.363-.004.45-.011.035-.008.347-.036.57-.067-.04-.136.136-.234.148-.344.02-.09 0-.113-.148-.113zm-4.563.043c-.168.031-.937.258-.977.344.098-.024.16-.066.266-.086.125-.016.152 0 .309-.023.187-.043.36-.063.554-.102.153-.04.25-.078.36-.106-.032-.046-.09-.062-.18-.062-.082 0-.195.016-.332.035m5.953.16c-.332-.008-.289.13-.441.145-.024.004-.168.023-.192.094l.922.097c.207-.011.29-.093.301-.187.004-.082-.254-.157-.488-.157a1 1 0 0 0-.102.008m-5.847.004c-.27.051-1.032.207-1.083.313.008.066.18.086.375.058.286-.07.707-.168.723-.273q-.105.028-.2.039a1.7 1.7 0 0 0 .407-.129c-.031-.004-.05-.016-.113-.016q-.04.001-.11.008M21 5.81c-.156.066-.477.16-.512.242 0 .047.106.039.203.031q.066-.007.11-.008c-.028.012-.004.035-.012.067-.035.015-.117.03-.137.043.051.015.11-.012.262-.028-.066.047-.137.082-.309.114-.316.043-.52.03-.703.02-.156-.009-.297-.02-.484.007-.094.023-.207.027-.293.055-.012-.086-.145-.036-.195-.032-.11.02-.18.028-.414.09-.008.035.023.024.082.027.007 0-.024.012-.032.008a1.2 1.2 0 0 0-.265.11c.023-.012.047-.008.07-.004q.01-.001.02.004-.016.002-.032.004s-.117.011-.21.05c-.012.036-.004.043-.024.075.043-.008.078 0 .121-.008-.039.02-.086 0-.125.023-.148.016-.2.082-.324.121.058.047-.004.004-.02.075-.03.05.067.074.16.035a5 5 0 0 0 .43-.059c.16-.02.317-.086.543-.144.008-.043.082-.075.152-.098.004.082.102.05.192.078-.176.023-.332.031-.375.133-.008.043.183.043.34.012.328-.059.586-.149.867-.235.039 0 .894-.234.91-.23.02-.004.79-.086.875-.114.129-.03.473-.207.496-.308.012-.086-.12-.106-.293-.09-.168.02-.246.11-.375.113-.262.055-.48-.004-.469-.117-.007-.012-.007-.004.016-.062-.09.015-.164 0-.246 0m-2.336.82a.2.2 0 0 1-.102.016h.02a.2.2 0 0 0 .082-.016m3.797-.52c.102-.007.14-.007.273-.027.075-.004.207-.004.22-.09.003-.05-.06-.031-.083-.066-.215.027-.344.094-.41.183m-3.566-.082c-.008.032.109.032.23.016.086-.02.145-.043.191-.094-.023.004-.062 0-.109 0q-.048-.005-.098-.004c-.097 0-.195.012-.214.082m8.066 0c-.3.004-.398.094-.398.102.003.02-.028.059-.004.059-.094.011-.223.007-.332.011-.008.043 0 .059-.008.098.093.11-.02.195.215.262-.008.027-.012.058-.02.109-.195.031-.11.078-.098.152-.18.035-.414.024-.421.133-.004.09.117.086.105.176-.008.086-.2.066-.203.176-.016.25.98.03.996.293-.012.05-.133.23-.133.23.094-.016.195-.055.32-.086.168.305-.785.196-.832.57-.507.094-.097-.164-.21-.257-.043-.04-.43-.063-.672-.047-.266.023-.375.097-.391.27-.102 0-.223-.016-.383-.032a5.5 5.5 0 0 0-1.152 0c-.805.074-1.402.012-1.55-.254-.278.047-1.095.188-1.138.348-.007.062.051.082.164.058.227-.02.61-.144.79-.218.019.254-.66.129-.711.383-.016.058.117.214.05.218-.3.028-.304-.14-.543-.172-.066-.007-.136-.02-.203-.023-.304.043-.586.098-.887.14-.285.024-.453.133-.761.188-.54.113-.512.008-.508-.016.02-.078.414-.12.508-.171-.328-.22-.258-.2-1.02.003-.402.09-.726.086-1.043.079-.324-.004-.64-.012-1.02.086-.234.054-.128.156-.327.222-.125.028-.203-.031-.23-.101-.227.101-.27.23-.505.308-.117.035-.23-.008-.324-.054-.078-.036-.145-.075-.176-.063-.238.07-.191.234-.437.309-.098.03-.14.054-.168-.02-.367.14-.461.211-.79.395-.113.054-.378.3-.5.261-.222-.058-.241.118-.327.168-.68.27-.246.262-.348.29-.234.105-.508.316-.809.347a29 29 0 0 0-2.746 3.41l.535-.183c.157-.09.313-.137.473-.211.11.011.234-.016.356-.043.144-.032.285-.063.402-.028.168.012.168.196.383.13.097-.028.129-.118.187-.192.106.058.121.066.278.015.062-.05.105-.043.171-.003-.035.043-.129.097-.144.195-.016.055.078.086.129.074.144-.031.101-.113.312-.195l-.023.11c-.031.062-.176.116-.195.183 0 .054.027.113.164.066.222-.035.324-.105.3.031-.007.043-.011.082-.023.125-.008.098.219.168.418.125.027-.03.074-.027.117-.035-.008.043.05.051.043.102-.02.113-.043.668.11.68.105 0 .183-.02.25.011.117.078-.063.203.074.242 0 0 .293.075.3.102.067.187.024.43.461.352.016.082.125.082.243.078.132 0 .28-.004.324.117.031.09.34.047.469.125.046.02.09.031.14.035.035.094.152.098.145.191-.02.079-.145.211-.22.29-.05-.09-.16-.133-.362-.102-.047.02-.196.047-.207.098-.008.207.277.238.265.457-.043.3-.476 1.687-.394 2.035.093.351.043.531.156.836-.07.058-.223.168-.16.289.195.414.43 1.008.73 1.043-.117.62.192.379.375.894.02.106-.027.278.09.324.504.165 1.207.434 1.434.895-.008-.004-.02 0-.032 0a.6.6 0 0 1-.003.113c.097.36.214.434.34.707.081.192.062.621.23.735.258.172.5.492.723.828.101.164-.137.16-.258.152-.024 0-.047-.004-.055-.004.152.239.492.18.7.395.16.156.277.324.44.5-.003.105-.007.285-.007.422.027.066.055.086.156.14.176.125.309.485.606.489 0 .054.23.343.257.347.04-.008.106-.191.114-.25 0-.101-.18-.402-.317-.273-.289-.196-.375-.606-.488-.996-.121-.344-.402-.496-.516-.871-.07-.27-.097-.426-.304-.645-.157-.164-.348-.144-.453-.379-.11-.262-.25-.457-.243-.789 0-.039 0-.156.035-.207.18.188.43.164.696.277.101.059.078.403.215.547.12.137.074.403.215.551.167.172.312.328.519.543.035-.043.035-.031.176-.004-.004.39.465.402.625.695.066.176-.051.329.086.47.144.148.406.218.574.378.348.36.71.887.906 1.488.024.09.16.157.164.383.016.188-.16.278-.168.461.004.113.106.332.246.332.082.223.559.336.766.527.043.032.137.086.184.122.21.097.324.062.55.16.215.125.293.316.524.386.098.028.168.016.242.008.078-.008.156-.015.254.024.195.09.738.476.957.488.102 0 .27-.031.395.035.054.024.21.149.347.152.297-.003.344-.332.652-.335q.157.002.383.132h.106c.469.23.594.918 1.148 1.184.348.172.578.09.922.238.223.106.402.27.73.29.094-.008.212-.079.337-.087a.3.3 0 0 0 .105 0c.11.414.395.551.68.828.062.063.175.133.226.286.09.265-.086.484.176.656.023-.004.059 0 .098 0 .027 0 .058.004.074 0-.024-.024-.024-.11.004-.149.012-.003.594.344.66.45.047.101.062.289.312.351-.003.028.063.106.086.102.09 0 .391-.102.524.015.137.141.304.446.586.446.101.008.222-.082.261-.25-.027-.016-.132-.102-.14-.149.012-.074.48-.433.61-.437.183 0 .07.375.26.472-.026.051-.097.118-.1.168 0 .04.163.106.19.13.013 0 .032-.016.044-.02-.008.027-.028.078-.032.105.004.305.297.239.305.598-.004.164-.082.234-.09.43.008.097.098.226.102.359-.004.023 0 .066 0 .09-.02.031-.059.097-.07.129-.004.039.101.144.168.164-.122.445-.543.324-.747.695-.136.274-.253.695-.726.715.062.734-.18 1.035-.188 1.406-.004.23.02.531.266.543.09-.004.102-.086.254.008-.082.25-.375.32-.535.57a.9.9 0 0 0-.192.477c-.004.27.23.598.414.762.055.043.196.023.25.12.04.087.082.313.196.426.047.028.164.012.218.106.137.289.235.48.348.836.113.316.195.66.32 1.012.07.226.301.32.297.55 0 .192-.074.344.051.453.293.274.5.446.957.555.223.059.313.09.504.262.172.14.352.121.586.195.297.14.512.297.645.633.03.152.066.945.058 1.082-.023.203-.183.566-.195.762-.02.183-.031.363-.043.574-.043.125-.137.367-.14.453 0 .035-.009.078-.009.113-.043.426-.293.692-.336 1.168-.011.192-.195.375-.125.575-.023.304-.035.582-.062.863-.117.27-.14.457-.262.719-.027.043-.093.05-.14.09-.075.078-.125.222-.196.312-.144.152-.37.41-.398.652-.02.082-.016.344.035.344 0 0 .07.027.074.102-.011.03-.054.058-.152.07-.066.184-.172.266-.188.45-.007.12-.066.343.059.343.086-.02.117-.078.227-.121.039-.012.09-.004.128-.016-.003.067-.007.082-.02.145-.237.39-.46.785-.706 1.156-.102.012-.125-.016-.156-.047-.032-.027-.067-.059-.192-.05-.066 0-.133.027-.136.09l-.016.003c-.031.008-.016.04-.008.07.02.118.168.145.164.23-.047.165-.324.196-.355.313-.012.118.164.32.144.461.008.047 0 .04-.015.086-.012.125.347.07.328.211-.016.067-.063.07-.114.11.04.015.067.015.106.023-.05.078-.246.027-.274.121.004.02.067.035.11.043.172.07.242.117.625.078.008.055.02.063.129.055.074-.02.164-.016.246-.031-.05.183.265.058.45.054.202.012.062.153.355.102.125-.012.23-.047.355-.05.035-.013.094-.032.129-.044.047-.012.094-.023.14-.023.126-.02.458-.168.645-.207a.37.37 0 0 0 .207-.055c-.324.004-.637.02-.89-.059-.157-.039-.075-.289-.29-.324-.074.004-.175 0-.164-.105.047-.203.11-.203.285-.313.13-.058.329-.062.446-.172.101-.093.086-.156.195-.238.223-.113.543-.195.586-.379.035-.226-.566-.008-.52-.3.036-.114.223-.255.454-.31.035-.011.125 0 .218.012.137.02.286.04.32-.015.126-.219.157-.363.434-.567-.07 0-.136-.015-.12-.109.062-.016.105 0 .148.012a.4.4 0 0 0 .183.011c.024-.011.153-.062.16-.136.016-.059-.046-.028-.105-.067-.035.016-.137.078-.203.09-.11.028-.23-.176-.215-.312.004-.063.055-.13.16-.133a.6.6 0 0 1 .3.012c.075.02.15.039.286.02.086-.024.3-.11.332-.165 0-.043.008-.05.02-.094.117-.148-.04-.25.164-.398.144-.113.554-.078.78-.164.34-.137.583-.149.856-.352.145-.129.258-.191.407-.363.09-.074.097-.133.125-.277.039-.121-.18-.059-.203-.164-.028-.157-.008-.22-.094-.29-.043-.027-.219-.027-.207-.132.008-.032.082-.067.12-.075a.8.8 0 0 1 .278.012c.086.016.164.031.254.012.04-.008.106-.004.191 0 .114.008.25.012.376-.008.601-.133.804-.648 1.128-1.035.282-.32.61-.602.903-.941.074-.09.078-.067.082-.047s.004.039.062-.047v.008c.176-.25.344-.461.606-.641.058-.293.097-.613.148-.938.012-.113 0-.101.012-.09.016.016.05.028.148-.062.114-.113.282-.14.403-.328.293-.387.547-.29.902-.633.035-.043.05-.113.145-.164.18-.121.359-.152.586-.207.203-.043.468-.273.566-.437.031-.047.043-.188.11-.278.214-.285.288-.418.515-.746.031-.043.101-.312.133-.43.011-.097.133-.246.199-.32.023-.035.082-.101.082-.164.035-.156.219-.848.254-1.07.047-.313-.125-.399.066-.649.133-.148.254-.21.399-.425.093-.137.136-.176.218-.305.383-.621.895-1.223 1.036-2.23.039-.297.011-.56-.188-.602a.4.4 0 0 0-.207.02.4.4 0 0 1-.191.019c-.18-.05-.465-.375-.559-.574-.14-.059-.297-.13-.527-.149-.137.035-.301.09-.461.13-.125.019-.188-.032-.262-.083a.4.4 0 0 0-.273-.086c-.114.02-.164.121-.29.192-.027.007-.058.004-.09.011.012-.11.036-.23.005-.36-.02-.105-.121-.07-.23-.136-.161-.094-.614-.332-.848-.312-.23.027-.395.343-.547.597-.032.063-.114.188-.16.192-.04.004-.063-.121-.06-.16-.1-.004-.202.03-.327.03a.38.38 0 0 0-.215-.327c-.063-.02-.195 0-.188-.149.047-.46.508-1.062.754-1.383-.004-.124-.164-.14-.234-.289-.055-.168-.215-.648-.211-.832-.238-.046-.516-.53-.746-.535-.027.004-.063.004-.086.004.008 0-.004-.023 0-.035-.137.016-.375-.105-.473-.148-.113.003-.261.003-.382.015-.407-.062-1.008.012-1.13-.437-.062.004-.199-.035-.226-.086-.191-.395-.305-.336-.602-.64-.136.015-.289.007-.433.015-.074-.223.004-.446-.211-.52-.23-.066-.559-.113-.676-.344-.004-.03.004-.097.004-.128.04.023.191.003.238-.04 0 0-.293-.042-.445-.042-.039.023-.383.058-.402.09-.125.195-.258.199-.504.242-.102 0-.324-.028-.324-.18-.29.012-.582.012-.883.016-.078-.012-.192-.13-.196-.297-.238-.043-.625-.137-.687-.407-.074 0-.219-.004-.293 0-.012.2.25.121.316.317a4 4 0 0 1-.402.004c-.152.105-.41.066-.426.32-.008.195.184.309.2.512-.004.047-.11.261-.16.27-.204-.009-.294-.321-.274-.497-.012-.113.101-.433.156-.683a.21.21 0 0 0 .172-.204c0-.011-.09-.195-.152-.199-.196.012-.27.246-.492.32-.438.133-.688.204-1.106.344-.219.078-.375.117-.465.39-.023.099-.066.34-.16.415-.082.035-.262.121-.273.289-.024.004-.098.059-.106.086a.2.2 0 0 1 0 .098c-.086.035-.074.027-.207.004-.035.023-.094.09-.129.113.028-.031.09-.098.117-.133-.277-.203-.3-.687-.8-.703-.418.004-.633.332-1.094.34-.3-.012-.29-.301-.485-.403-.28-.132-.628-.265-.64-.652-.004-.352.008-.672 0-1.035.105-.16.12-.82.12-.977.013-.062 0-.191 0-.254-.308-.07-.41-.351-.835-.355-.613.004-1.082.102-1.66.102-.078.003-.207-.067-.211-.184a.2.2 0 0 1 0-.086c.078-.066.308-.168.312-.34a19 19 0 0 1 0-.812c.036-.008.11 0 .141 0-.008.027.004.09 0 .12.11-.167.207-.28.211-.558.004-.332.289-.625.297-.863v-.152a5 5 0 0 1-.402-.036c-.047-.03-.196-.062-.348-.047-.477 0-1.09-.02-1.106.48-.007.255-.285.477-.367.677-.012.047-.105.261-.246.27-.05.003-.14-.102-.328-.102-.36 0-.621.23-.957.238-.102-.004-.14-.148-.293-.203-.465-.14-.453-.41-.758-.723-.117-.113-.344-.351-.41-.484-.078-.156.016-.246-.05-.403-.032-.043-.16-.19-.137-.332.007-.308.011-.613.007-.933.055-.258.18-.36.18-.672 0-.07-.047-.191-.066-.266-.008-.004-.016-.027-.012-.039q.007-.004.02.004.017.008.023.004c.008-.035-.078-.125-.082-.164.015-.496.222-.941.61-1.082.073-.031.14-.027.21-.023.09.007.172.011.254-.067.215-.195.445-.605.95-.617.198 0 .292.16.484.156.074-.004.18-.129.257-.133.352.008.747.543 1.243.325-.211-.137-.059-.29-.032-.528-.082.02-.066.051-.242.004.301-.101.656-.07.938-.14 0 .039.078.136.12.136.048 0 .095-.035.157-.066a.5.5 0 0 1 .273-.07c.207 0 .36.093.493.187.14.098.265.195.43.191.113 0 .222-.21.378-.21.774.011.567.992.836 1.543.14.273.305.367.528.617.093.175.085.406.343.422.297-.004.38-.309.38-.668 0-.309-.157-.461-.212-.664v-.082c-.015-.536-.476-.688-.492-1.243.008-1.203.84-1.261 1.648-1.675l-.046-.032c.078-.07.078-.136.285-.203.105-.012.222-.148.422-.187.07-.004.156-.121.195-.168a1.3 1.3 0 0 0-.203-.117c.004-.032-.004-.094 0-.13.113 0 .23.016.258-.152-.063-.02-.164-.031-.235-.148.063 0 .219-.047.219-.184 0-.043.004-.12-.004-.16-.016-.008-.043-.008-.07-.004q-.03.005-.047.004c-.074-.078 0-.086-.004-.238-.008-.16-.09-.446-.098-.551 0 0-.011-.145.012-.207.031.168.203.39.2.523.003.043.003.125.003.172.004.024.043.094.067.098.039-.012.367-.559.37-.633-.007-.098-.12-.164-.156-.3.02-.02.063-.055.083-.075.019.027.082.125.117.125.09-.004.422-.535.449-.652 0 0-.156-.125-.152-.188-.016-.031.058-.082.093-.105.04.008.114.012.153.023.078-.008.152-.004.218-.004.133 0 .25 0 .403-.05-.051-.043-.145-.032-.239-.02-.058.004-.117.012-.171.008a.5.5 0 0 0-.168-.008c.332-.191.879-.082 1.207-.285.047.047.332.027.53-.024-.003-.027 0-.078-.003-.105 0 0-.148.094-.172.098-.078 0-.176-.22-.176-.282-.039-.011-.062-.101-.07-.136-.004-.598.566-.383.828-.61.156-.062.168-.093.363-.082a.53.53 0 0 0 .493-.218c-.028-.02-.055-.079-.075-.106a.1.1 0 0 0-.011-.047c0-.012 0-.031-.004-.043.027.004.117.008.16.012.074.004.484.082.625.016.14-.09.121-.262.352-.262.019.191-.004.207.25.234-.364-.004-.899.195-.883.516.011.11.246.375.336.39.097-.007.39-.355.691-.43.066-.003 1.07-.304 1.09-.417-.024-.149-.399-.207-.5-.215-.445-.043-1.156-.492-1.203-.848-.086-.015-.223-.058-.336-.062.082-.106.62-.121.613-.414-.035-.242-.484-.25-.82-.274-.688-.043-.961.348-1.438.387.192-.367.512-.23.844-.5.215-.195.031-.316.36-.387.574-.117.902.004 1.492.059.765.074 1.351.41 1.754-.055.187-.219 1.265-.055 1.242-.379-.032-.242-.145-.351-.297-.511-.102-.02.039-.079-.133-.16 0-.044-.02-.087-.016-.122a4.9 4.9 0 0 1-1.32.121.3.3 0 0 1-.148-.062c.277-.074 1.043-.04 1.125-.219 0-.05-.114-.086-.133-.129-.352-.02-1.074-.215-1.125-.554-.008-.004-.004-.02-.004-.028-.32-.047-.524-.199-.723-.32.063-.027.203-.031.196-.149-.008-.093-.145-.195-.133-.277-.145-.055-.633-.289-.528-.46.121-.204-.48-.313-.57-.575-.039 0-.215-.105-.262-.148-.093.043-.359.101-.308.222.086.207-.168.223-.43.309-.176.066-.312.207-.469.191-.27-.027-.488-.347-.672-.37-.25-.036-.164-.462-.218-.673-.106-.258-.864-.156-.918-.488-.43-.07-.38-.238-.817-.266-.093-.011-.222-.015-.336-.02-.449-.03-.722-.198-1.168-.222-.234-.012-.457.04-.453.207.012.09.567.238.067.418-.2.063.297.305.336.434.066.308-.368.343-.578.379.222.207.636.277.828.464.152.16.066.426.078.73-.012.18-.93.59-1.258.634.578.21.371.746.594.949-.047.055-.223.277-.239.383-.199.011-.367.062-.53-.024-.415-.234-1.009-.632-1.028-.914-.012-.304.004-.558-.461-.73-.34-.074-.68-.125-1.024-.18-.609-.242-1.261-.41-1.984-.558-.098-.024-.488-.168-.715-.168-.246.007-.36.152-.597.152-.008-.219-.23-.703-.582-.711-.165.008-.239.082-.399.102.059-.102 0-.153.016-.399.015-.371.242-.7.613-.914.133-.102.41-.406.531-.441a.8.8 0 0 1 .282.007c.136.02.234.043.242-.085 0-.149-.59-.122-.805-.184.04.008.008-.008.008-.024-.008-.03.082-.058.922.06.336.03.133-.177.32-.18.094-.008.223-.012.34-.008.387-.004.582-.211.828-.313v-.121c-.527-.066-1.04-.012-1.277-.246.074-.008.203-.012.277-.004.2.047.39.168.691.172.25-.008.801-.055.817-.149-.008-.152-.04-.218-.067-.242.301.016.426.156.63.164.1-.008.195-.004.296.004q.107.002.219.004c-.07-.039-.02-.184.184-.035.113.082.863-.246.878-.348-.011-.078-.347-.148-.355-.203.004-.058-.219-.164.262-.281.062-.066.004-.05-.004-.188-.239-.003-.328-.05-.434-.097.367.011.7.031.906.043-.003.054-.066.136.125.148.145.012.274-.043.391-.098.106-.046.203-.097.297-.097.172.031.98.344 1.121.414h-.055c-.105-.004-.289-.004-.293.055.012.003.075.074.125.09.196 0 .278-.063.47-.044.308.036 1.26.41 1.296.582.008.106-.285.204-.418.258-.027.004-.07 0-.117-.004-.113-.004-.25-.011-.246.07 0 .06.218.134.277.16a5 5 0 0 1-.664.048c-.23-.02-.43-.043-.652-.047-.211-.027-.59.07-.598.144.016.106.492.22.668.23.098.013.168-.01.242-.034.063-.02.125-.04.207-.035.11.011.106.05.258.066a.57.57 0 0 0 .297-.078c.445.144.691.289 1.195.437-.222.203.653.29 1.028.41.39.141.648.141 1.093.282.035.015.094.094.157.101.05.008.136-.015.136-.066-.05-.195-.855-.43-1.125-.61.059.024.157.024.223.024.168.113 1.11.395 1.383.441.054-.078.183-.171.18-.246-.02-.078-.274-.136-.278-.187a1 1 0 0 1-.02-.137c-.07.004-.171-.023-.242-.031-.043-.121-.129-.063-.414-.133-.093-.043-.308-.207-.347-.293-.055-.008-.137-.012-.188-.023-.004-.036-.004-.067-.015-.098.05.023.128.031.218.027-.008-.031 0-.05-.011-.082-.114-.008-.157-.004-.29-.047a1 1 0 0 1 .282-.035c.707.094.77.528 1.484.637.16.016.168-.078.16-.156.27.027.297-.012.293-.032-.004-.03-.011-.054-.011-.085.175.027.402.054.398-.043-.016-.118-.129-.168-.398-.207-.063-.012-.192-.036-.254-.07-.086-.098-.137-.098-.239-.095a1 1 0 0 1-.257-.015c-.204-.031-.293-.137-.344-.266-.293-.05-.68-.164-.739-.316-.195.004-.265-.055-.402-.098.117-.105.227-.062.45-.086a.7.7 0 0 0-.223-.082c-.157-.02-.282-.05-.426-.066.102-.067.277-.035.484-.024-.117-.09-.215-.172-.418-.195-.066-.027-.172-.027-.242-.031-.004-.043 0-.063-.015-.102-.399-.086-.625-.187-1.02-.285.031-.125-.336-.152-.488-.168-.106 0-.235-.031-.36-.039-.484-.05-.597-.266-.93-.375-.199-.082-.808-.145-1.097-.168-.133-.012-.215.023-.297.055a.5.5 0 0 1-.281.054c-.11 0-.176-.066-.34-.078-.14-.011-.215.047-.289.047-.066-.008 0-.09-.008-.117-.004-.137-.215-.34-.601-.352-.586-.03-1.559.032-1.567.247-.004.074.149.085.149.16-.004.058-.207.113-.297.113-.184 0-.149-.043-.149-.102 0 0-.027-.054 0-.105-.062 0-.117-.012-.117-.059 0-.183.48-.18.629-.289l-.484-.066c-.5 0-.871.09-1.176.21-.047.036.004.13-.106.165-.23.055-.304.094-.304.27.004.066.218.156.218.156s.672.023.82.058c0 .031-.003.047-.003.078-.254-.015-.469-.039-.672-.015.04.097.242.105.328.18.125.007.25.003.375 0 .113 0 .227-.005.344 0 .078.054.332.128.45.128h.062c0 .117.226.125.226.203-.004.09-.344.075-.426.149-.117.121-.074.226-.297.375-.347.238-.648.031-.652-.059-.004-.117.25-.074.262-.195-.02-.059-.438-.262-.563-.258-.445.004-.136.32-.613.336-.012-.148-.016-.223-.34-.289a.5.5 0 0 1 .153-.09c-.243-.062-.567.008-.75-.09.09-.027.378-.093.382-.191 0-.14-.425-.117-.441-.223.004-.176-.191-.285-.559-.316.118-.05.192-.074.23-.152a1 1 0 0 1-.097.003h-.094c.067-.093.082-.078.192-.062.05.004.121.012.223.008.453-.02.644-.145.847-.254 0 0 .254-.074.266-.09-.004-.031.004-.043.004-.074-.274.011-.508 0-.739-.012-.171-.008-.34-.016-.52-.016q-.083.002-.167.004m1.773 9.461c.215-.062.243.008.422-.07.164-.074.098-.273.262-.281.191.015.336.25.387.289.027-.043.02-.164.02-.184h.124c.078.004.781.469.817.508.097.168 0 .285.132.402.38.309.868.278 1.293.477.067.016.16.016.258.012h.164c.196.12.438.254.45.46-.004.079-.086.169-.16.16-.196.016-.403-.206-.462-.241-.062.207-.199.875-.43.886-.175-.113-.171-.21-.238-.441-.16.039-.125.094-.328.094.047-.196.18-.32.176-.512-.004-.156-.605-.418-.738-.418-.27.008.02.32-.59.363-.18 0-.184.418-.18.606 0 .12.004.3 0 .449.008.195-.078.598-.328.605-.183.004-.375-.12-.379-.28 0-.36.133-1.075.414-1.388-.164.004-.226.106-.394.196.047-.282.687-.657 1.047-.66.101.003.488.074.738.003.004-.046 0-.113-.004-.164-.348-.011-.527-.168-.93-.18-.18 0-.242.134-.457.137-.086 0-.261-.082-.277-.164h-.325c.052-.09.177-.148.18-.336-.242.051-.535.293-.718.301-.114-.004-.164.168-.442.18-.097 0-.175-.004-.242-.129-.086.012-.18.05-.293.098-.066 0-.183.004-.242.004.39-.399.828-.543 1.273-.782m10.164 1.336c.024.04.02.106.024.153-.008-.043-.016-.11-.024-.153m.055.336c.016.035.027.098.043.137-.016-.031-.031-.102-.043-.137m.05.164c.028.016.048.086.056.121-.016-.03-.036-.093-.055-.12m-5.797.57c0-.055.172-.098.211-.11.36-.078 1.105-.215 1.52-.219 0 .52-1.024.368-1.5.344-.032 0-.051.004-.075.008a.6.6 0 0 1-.125.004c.02.023.043.066.059.094-.024-.036-.086-.082-.09-.121m.11.156c.007.015.023.054.035.066-.02-.004-.032-.05-.036-.066m.047.097c.016.032.032.086.047.114-.02-.028-.031-.082-.047-.114m-1.23.262c.152-.113.39-.12.62-.105.224.015.333.097.395.07.043-.02.106-.047.16-.07-.363.16-1.019.422-1.421.43-.168-.012-.23-.208-.235-.356.04.055.176.164.25.172h.004c.11 0 .18-.09.227-.14M18.949 6.226c-.02.062.086.046.145.03.093-.007.176-.034.281-.058.027 0 .016-.031.016-.058-.153.027-.293.054-.442.086m-1.12.117c-.106.039-.106.015-.212.043-.336.082-.433.234-.676.34-.222.109-.394.168-.593.25-.043.03-.278.144-.285.164-.016.007.062-.012.093.039.098-.016.133-.082.207-.098.125-.035.176-.023.328-.09.02.035.082.047.176.024a.45.45 0 0 0 .285-.176c.196-.047.391-.172.457-.254.051-.004.067.016.086.039.024.023.055.05.176.027.192-.09.375-.187.578-.28.012-.056-.078 0-.074-.075.086-.024.18-.063.184-.113q.009-.034-.051-.032c-.168 0-.68.192-.68.192m14.59-.094c-.004.082.156.09.297.137-.098.07.156.133.45.148.26.02.378-.023.538-.023.168.027.238.058.438.07.113 0 .203-.02.254-.074-.27-.078-.602-.219-1-.246-.313-.028-.407-.07-.73-.086-.102.008-.25 0-.247.074m-6.984-.02c-.204.024-.372.024-.575.04-.316.035-.62.03-.859.136-.023.008-.098.035-.105.055-.012.098.253.043.445.035 0 .063 0 .09-.016.152-.062.02-.152.016-.215.02a2 2 0 0 1-.347-.004c-.102-.004-.196-.012-.285-.004-.016.035-.012.05-.012.098.394.125.82.054 1.226.199.079.035.102.086.309.078.113-.012.168-.078.3-.11.49-.085.512-.003.606-.34a11 11 0 0 0-.328-.007c.004-.074.043-.004.047-.086.004-.054-.164-.027-.32-.004-.086.016-.172.032-.215.032.101-.043.457-.13.48-.243-.004-.03-.078-.047-.12-.047zm-3.313.301c-.223-.004-.41.074-.43.145.028 0 0 .031.008.058-.133.04-.16.036-.203.036a.6.6 0 0 0-.18.015c-.101.008-.25.047-.257.106-.024.062.156.289.242.347-.063.028-.074.051-.184.07-.265.028-.129-.12-.195-.18-.07-.073-.235-.1-.418-.093-.094.004-.195.027-.297.047.035.04.035.023.047.09a4 4 0 0 1-.406.105c-.078-.097-.188-.136-.563-.066-.2.039-.312.125-.426.176-.047-.047.012-.192-.172-.153-.476.086-1.632.524-1.722.805-.004.035.207.055.348.031.16-.054.246-.066.437-.09-.14.086-.496.094-.531.223-.035.145.656-.035.957-.094.222-.039.457-.086.695-.125a.6.6 0 0 1 .219-.004q.051.002.098.004c-.16.043-.235.051-.438.086-.55.106-.95.207-1.29.375.11.059.278.137.56.09.18-.043.585-.129.718-.101.16.027-.023.148.215.113.395-.067.793-.14 1.219-.188.3-.148.633-.129 1.02-.257.21-.07.132-.133.382-.153.207-.031.352 0 .516.028.164.03.348.062.629.03.36-.023.683-.07.832-.187-.047-.02-.117-.011-.133-.074-.05.016-.215.027-.211-.027.004-.055.082-.059.191-.082.27-.02.313-.004.586-.094-.28-.074-1.43-.074-1.425-.277.02-.157-.329-.239-.305-.45.008-.066.312-.128.332-.218.012-.067-.066-.09-.188-.09-.078 0-.175.012-.277.023m-4.93.438c.004.05.094.031.188.008a.8.8 0 0 0 .414-.262c-.125.008-.563.168-.602.254m.348.242c-.16.027-.332.133-.422.117-.27.05-.367.02-.617.059-.203.039-.344.117-.48.16-.286.074-.387.066-.688.2-.012.081.129.073.11.128-.06.18-.669.5-.739.68-.023.047.125.015.27-.012a1 1 0 0 1 .246-.035c.027.043.082.07.144.058.028-.007.047 0 .067.004a.16.16 0 0 0 .09.004c.093-.043.94-.37.976-.414.05-.125.629-.48 1.035-.625.121-.05.782-.219.824-.285.008-.066-.148-.09-.332-.09-.168 0-.359.02-.484.05m7.758.274c-.293.012-.25.18-.43.227-.047.012-.312-.004-.324.055.02.007 1.074.12 1.27.109.164-.012.222-.074.378-.117-.086-.082-.64-.274-.878-.274zm7.89.274c.192.012.286-.043.336-.125h-.02c-.179 0-.491.11-.316.125m.895.426c.004.086.156.156.383.164.187.023.539-.02.543-.102-.02-.133-.328-.223-.582-.223-.188 0-.344.047-.344.16m1.066-.007c.004.043.094.066.196.066.148.02.097.012.293.012a.9.9 0 0 0-.301-.129h-.008c-.039 0-.176.031-.18.05m-4.082.419c-.015.047.102.11.309.113-.086-.039-.11-.121-.242-.121q-.028.001-.067.008m-.96.422v.101c-.004.047-.09.067-.157.09-.023.04-.215.031-.23.137.101 0 .41-.024.664.008-.028.07-.074.136.11.144.062 0 .081-.02.124-.055.227.043.719-.097.723-.242.074.02.59.188.59.188.113.011.27.011.418.015.191.004.34-.023.504-.054-.141-.102-.414-.063-.664-.16-.067-.024-.032-.075-.114-.126-.277-.167-.765-.117-1.094-.304-.043.015-.105.027-.14.055-.067-.07-.149-.102-.23-.196-.438.008-.505.281-.505.399m12.926-.266c.04.078.184.23.309.27.09-.004.176.035.277.062.215.035.465.094.473 0-.34-.129-.473-.297-.805-.383-.055-.004-.11-.011-.152-.011-.067 0-.11.011-.102.062m-9.375.777c.157.067.192.067.352.016-.13-.023-.172-.059-.23-.059a.26.26 0 0 0-.122.043m-2.336.211c-.004.032-.008.063 0 .09.239-.004.63-.144.77-.219-.188-.039-.113-.039-.438-.039-.011.04-.203.094-.332.168m1.43.172s.21.113.234.117c.164.008.184-.09.274-.14a.75.75 0 0 0-.317-.075c-.105 0-.191.032-.191.098m-.316 3.73c.062.055.23.137.332.13.015.003.047.011.058 0-.011-.145-.195-.211-.39-.211a.3.3 0 0 1 0 .082m-22.13.293c-.015-.004-.038-.008-.117.02-.042.026-.124.05-.144.132-.031.133.055.207.21.176-.042.148-.019.23.079.308.137-.12.055-.222.105-.351-.019.023-.109.058-.105.031-.031-.148.027-.14.094-.375-.094.066-.102.063-.121.059m.328.718c.097-.078.09-.074.137-.066.023 0 .05.004.105 0-.04.05-.02.121-.043.187.004 0 .023.036.055.075.031.043.074.082.125.074.062-.02.093-.05.105-.117.043-.192-.246-.153-.16-.418-.219.031-.277.039-.324.265m32.637.649c-.18.25-.29.742-.676.86.011.03.086.066.12.07.013.015.013.05.009.07.007.004-.243.156-.243.199.004.027.094.129.157.137.082.011.14 0 .203-.012a.8.8 0 0 1 .242-.012c.168.008.254.098.441.133.09 0 .184 0 .282-.027.066.093.168.093.273.09q.064-.002.129.007c-.031.067-.14.047-.137.168-.004.016.028.016.055.012h.031c.172.016.27-.133.375-.266.121.114.063.32.172.336.035.016.078.016.113.036.012.043.032.148.141.156.137.023.203-.11.191-.25 0-.106-.105-.113-.125-.262-.082.04-.03.074-.171.05-.004-.073-.106-.148-.118-.198 0-.043.114-.059.118-.157-.047-.023-.118 0-.149.012-.027-.172-.016-.27-.031-.379-.067.028-.242.004-.402-.054a.5.5 0 0 1-.165.023c-.007-.012-.007-.043-.003-.055-.079-.011-.18-.023-.254-.035l-.012-.105c.023-.012.043-.032.062-.051a.6.6 0 0 0-.23-.086c-.086-.012-.086.055-.203.07l-.012-.11c.055-.187.34-.28.313-.53-.008-.04-.059-.11-.11-.125q-.023-.005-.047-.004c-.191 0-.246.16-.34.289m-32.374.086c-.07.027.082-.13.09-.133-.051.012-.087.004-.118 0-.035-.008-.07-.016-.125 0 .008.023 0 .05-.015.074.046.063.05.156.101.137.074-.004.063.078.152.082-.011.015-.058.062-.062.121-.027.07.039.176.121.148.133-.023-.062-.129-.055-.168.004-.035.063-.074.075-.109.011-.047-.032-.055-.032-.105.036-.086.051-.149.04-.211a.3.3 0 0 1-.172.164m29.32.011c.187.133.644.41.894.434q.146.024.203-.05c-.316-.173-.597-.387-1.023-.387q-.036 0-.074.003m-27.973.704c-.062.011-.129.054-.18.082.012.011.032-.008.051-.008.063 0 .11.004.176.004a.5.5 0 0 1-.137.117c.04.121.352.148.61.101-.04.032-.106.063-.14.125.19.09.585.266.89.23.035-.01.082-.007.117-.019-.004-.03.012-.066.012-.097-.309-.223-.57-.403-1.09-.457-.078-.004-.145-.082-.262-.082q-.023-.001-.047.004m27.723.257q-.001.005.004.004.006.005.011.004c-.003-.012-.007-.023-.011-.023 0 0-.004.004-.004.015m.055.016c-.008 0-.024-.004-.04-.008.012.035.032.098.04.008m.378.41c.024.067.59.36.696.371.023-.008.176-.054.172-.117-.016-.012 0-.055-.004-.074-.16-.012-.301-.024-.457-.04-.153-.054-.266-.081-.352-.222-.027.008-.058.05-.055.082m1.258.445c0 .067.098.153.25.157.168.027.324-.051.317-.13-.004-.019-.004-.058-.004-.081-.344-.04-.121-.086-.137-.196.004-.039-.086-.085-.113-.128-.133.03-.317.316-.313.378m-7.773 9.063c.027-.004.082 0 .14.004.09.004.2.008.301 0-.035-.031-.09-.125-.203-.14-.066.003-.21.085-.238.136m.847.21c-.023-.026-.062-.1-.085-.136-.012.04.046.149.085.137m22.622.613c-.079.094-.223.211-.293.445q-.142.614-.22 1.399c-.023.195-.151.348-.148.629.04.535.172.973.172 1.578.004.344-.105.988-.238 1.152.031.188.133.446.145.637-.008.113.011.223.015.43-.012 0-.004.004-.015.004.035.093.035.101.07.183 0 .051.258.645.297.711.11.246.12.555.195.914.031.2.102.262.18.371.054.075.023.157.086.332a31.736 31.736 0 0 0-.137-9.187c-.031.156-.066.332-.11.402m-23.035.34c.024-.004.075-.062.086-.086-.015-.086-.05-.219-.191-.238-.016 0-.05.004-.066-.004 0 .101 0 .324.171.328m-3.265 1.363a.4.4 0 0 1 .094 0c.023 0 .046.004.062 0 .176-.172.625-.406.961-.414.062-.004.187.008.238.055-.035.039-.062.113.035.191.168 0 .317.012.5 0 .235.012.352.258.598.262.098 0 .215-.047.36.02.046.027.042.156.187.156.043.27.316.246.582.363-.008.063-.11.156-.168.156.008.024 0 .078 0 .102.32.004.59.121.98.125.196.008.516.004.641-.203-.086-.043-.2-.29-.387-.344a3 3 0 0 0-.257-.02c-.008-.027 0-.097 0-.12-.383-.008-.809-.192-1.051-.438-.028-.02-.18-.195-.29-.207-.57-.004-.913-.422-1.679-.438-.781 0-1.121.27-1.406.754m.875-.101q-.011.006-.016 0c.008.031 0 .093 0 .12-.035.005-.148.028-.156.157.008.024.23.004.242 0 .024-.066.004-.195 0-.262-.012.004-.039-.015-.05-.015h-.02m4.445.386c-.004.024.004.075 0 .102.016.004.05 0 .066 0 .063 0 .22-.05.27-.102 0-.039 0-.117-.004-.152-.05.07-.2.188-.332.152m-33.66.207h.016c-.016.012-.02.012-.028.012-.008-.004-.015-.004-.035.012 0 0-.012.11.074.117.035-.031.047-.043.051-.078-.016-.035 0-.074.004-.11q-.017-.004-.027-.003c-.028 0-.016.011-.055.05m.25.157c-.012 0-.027 0-.082.004-.004.054-.027.136.043.14.098-.043.101-.082.133-.16-.075.02-.078.016-.094.016m.156.164c.043.074-.02.164.09.176.02 0 .043-.043.043-.043-.035-.082-.027-.137-.098-.137q-.011-.001-.035.004m33.543.21c-.008.071.145.192.219.192a.46.46 0 0 0 .117.356c-.21.101-.36.02-.754.02-.012.01-.058.07-.086.066.016.074.102.25.203.273-.004-.031.016-.102.02-.137.059.043.074.008.2 0 .05.004.12 0 .194 0 .196-.008.442-.015.555.055.055.05.035.223.203.227.184-.008.168-.301.38-.31.062 0 .089.087.167.087.086.004.18-.067.297-.137q.125.006.25 0 .18-.001.355.004c-.125-.16-.257-.23-.414-.355.02.02.04.039.051.046-.285-.16-.387-.437-.926-.449-.187 0-.277.067-.496.063-.113 0-.234-.121-.402-.121h-.004c-.039 0-.129.082-.129.12m-33.36.403c-.007.094-.003.149-.007.262 0 .058-.004.129.062.133.153.004.106-.059.208-.106v-.133c-.067-.109-.145-.156-.247-.156zm36.265.313c0 .171.22.187.407.187.074 0 .215.004.257-.098-.039-.082-.449-.187-.484-.191-.039 0-.184.04-.18.102m-5.257.015c0 .102.136.258.273.262.207 0 .367-.066.563-.106-.008-.05-.047-.117-.153-.156l.031.04c-.07-.032-.336-.141-.539-.141-.05 0-.175.05-.175.101m8.043 3.95h-.055c-.074.003-.168.18-.188.367.008.043.102.004.141-.004.07 0 .156-.184.184-.239-.008-.03.007-.093.004-.128-.024.007-.055.003-.086.003m4.382 5.118c-.011 0-.015-.004-.023 0-.18 0-.27.191-.293.437-.004.156.309.414.52.41.167-.02.367-.422.39-.562-.004-.035-.035-.149-.082-.149-.062.004-.2.2-.21-.015-.099.011-.2-.075-.27-.13-.004.013-.02.013-.032.009m-11.39 17.722c-.07 0-.196.246-.196.246-.007.043 0 .051-.011.098-.008.043.07.098.144.094a.5.5 0 0 1 .125-.016c.032-.097.012-.12.032-.226.003-.032.062-.024.062-.086.004-.075-.016-.114-.11-.114q-.017-.001-.046.004m5.277 1.399c-.086.023-.152.082-.234.105-.051.004-.051.067-.145.098-.015.035.012.047-.027.062.031-.011.062-.007.086-.02a.3.3 0 0 0 .191-.109c.102 0 .281-.07.324-.14.008-.028.008-.02.02-.047-.07.031-.098.012-.215.05m-.668.137c-.027.012.012.047.074.036-.043.074-.132.078-.203.132.028-.011.024.02.051.024.184-.078.297-.156.484-.242.012-.032.02-.02.02-.051-.156.05-.266.074-.426.101"/></clipPath><clipPath id="g"><path d="M2 10h60v44H2Zm0 0"/></clipPath><clipPath id="h"><path d="M58.566 10.313c-1.066 1.789-5.379 5.699-11.32 8.66l5.184 2.379c-2.57 6.03-9.446 15.98-21.25 22.226-10.91 5.77-21.785 7.215-28.516 4.477 4.926 6.98 19.168 6.851 33.473-.715 11.218-5.934 19.402-14.817 21.746-22.645l.015.008 3.48 2.078c1.087-4.664-1.812-16.55-2.698-16.55q-.065 0-.114.082"/></clipPath><linearGradient id="f" x1="0" x2="1" y1="0" y2="0" gradientTransform="matrix(54.512 -31.24196 29.42204 57.88385 14.799 40.776)" gradientUnits="userSpaceOnUse"><stop offset="0" style="stop-color:#238313;stop-opacity:1"/><stop offset=".411" style="stop-color:#5cbb00;stop-opacity:1"/><stop offset=".77" style="stop-color:#5cbb00;stop-opacity:1"/><stop offset="1" style="stop-color:#5cbb00;stop-opacity:1"/></linearGradient><linearGradient id="i" x1="0" x2="1" y1="0" y2="0" gradientTransform="matrix(58.95707 0 0 62.6039 2.663 31.693)" gradientUnits="userSpaceOnUse"><stop offset="0" style="stop-color:#be1e2d;stop-opacity:1"/><stop offset=".481" style="stop-color:#f7941e;stop-opacity:1"/><stop offset="1" style="stop-color:#f7941e;stop-opacity:1"/></linearGradient><radialGradient id="c" cx="0" cy="0" r="1" fx="0" fy="0" gradientTransform="matrix(52.36167 0 0 55.60052 50.92 18.24)" gradientUnits="userSpaceOnUse"><stop offset="0" style="stop-color:#e1e781;stop-opacity:1"/><stop offset=".006" style="stop-color:#e1e781;stop-opacity:1"/><stop offset=".432" style="stop-color:#79d600;stop-opacity:1"/><stop offset=".69" style="stop-color:#79d600;stop-opacity:1"/><stop offset="1" style="stop-color:#2e712c;stop-opacity:1"/></radialGradient></defs><g clip-path="url(#a)"><g clip-path="url(#b)"><path d="M2.203 31.895c0 16.32 12.461 29.558 27.832 29.558s27.832-13.238 27.832-29.558c0-16.325-12.46-29.56-27.832-29.56-15.37 0-27.832 13.235-27.832 29.56" style="stroke:none;fill-rule:nonzero;fill:url(#c)"/></g></g><g clip-path="url(#d)"><g clip-path="url(#e)"><path d="M32.27 3.652c-.083 0-.153-.004-.204.028-.195.023-.035 0-.28-.004-.411-.012-.575.066-.692.14-.133-.007-.668-.093-.938-.097-.293 0-.101.082-.562.078 0 .027-.059.027-.114.031h-.14c-.05 0-.11 0-.168.004-.402-.008-1.3.086-1.41.168.093.008.199 0 .312-.008.063-.008.145-.031.211-.031.133-.012.285-.02.422-.012-.172.012-.25.035-.398.07.023.012.191.02.253.028.27-.02.278-.082.567-.082.086 0 .191-.004.281.008-.37.03-.715.027-.879.132.102-.007.383 0 .664-.011-.183.004-.28.027-.383.047.098.03.489.062.778.074.113-.004.21-.012.312-.04h.184c-.086.063.281.079.57.087.051 0 .09-.008.133-.016a.5.5 0 0 1 .148-.02c.137.008.231.032.5.047.47-.011.77.004 1.055-.043.063.008.149 0 .211.008-.156.043-.398.063-.672.078-.25-.003-.46-.027-.707-.027-.027.016-.097.012-.097.035 0 .04.46.125.53.145-.402-.012-.519-.121-.886-.164-.285-.032-.59-.02-.754-.02-.062 0-.152-.012-.215 0 .035.024.051.043.145.047-.137-.004-.285-.02-.29.031.009.11.95.09.973.211-.003.117-.203.11-.445.102a3 3 0 0 0-.34 0 .9.9 0 0 0-.433.136c0 .024-.004.024-.004.051.066 0 .156-.011.219 0 .043-.015.101-.015.144-.031h.215c.004.148.453.168.656.227-.078-.008-.183-.008-.262-.008-.273-.047-.437-.133-.898-.125q-.065.001-.125-.004c-.121-.008-.23-.016-.238.05.008.11.304.09.476.122-.3.082-1.047.008-1.062.183 0 .024.047.043.144.035a.4.4 0 0 0 .176-.046c.52.058.89.082 1.387.09.11 0 .187-.008.25-.02.066-.008.12-.02.187-.016.368.012.727.012 1.094.028.29.004.145.078.48.09.333.035 1.141.011 1.149-.094.008-.055-.18-.04-.219-.047a3 3 0 0 0-.36-.02c.005-.148.587-.015.587-.164.004-.043-.078-.031-.102-.074.242.04.473.035.715.05.234-.019.328-.124.613-.136-.093-.062-.246-.101-.422-.133.282.032.438.067.399-.039a7 7 0 0 1-.39-.035c.206-.02.562-.008.87-.004.223.012.532.082.72.067.405-.043.671-.137 1.214-.125.469.043 1.203.101 1.484.066-.328-.059-.843-.121-.992-.18.703.004 1.32.196 1.809.2a.5.5 0 0 1 .148.023c.09.016.172.039.156-.008-.046-.101-.683-.187-.855-.258-.078-.03-.082-.058-.234-.105a1.5 1.5 0 0 0-.239-.07q-.51-.062-1.023-.098c.05 0 .086 0 .117.004.035 0 .066.004.113-.004-.293-.11-1.414-.27-1.742-.313-.117-.027-.238-.027-.379-.043-.113-.011-.199-.054-.41-.074a.8.8 0 0 0-.203.008.7.7 0 0 1-.223.008c-.21 0-.265-.074-.523-.09-.063.004-.129.016-.16.008a112 112 0 0 1-1.59-.106zm-2.171.68h.02zm-3.22-.238c.009.058.114.058.235.054.051 0 .106 0 .153.004q-.052-.004-.11.004-.054.013-.101.008c-.258-.008-.371.027-.54.063.008 0 .13.058.176.05.04.004.102 0 .172-.007.07-.008.149-.016.223-.012a.5.5 0 0 1-.156.047c-.102-.004-.176-.02-.38-.004-.116.015-.316-.012-.323.058.011.063.421.036.609.051 0 0-.078.04-.129.035-.137 0-.352-.011-.418-.011a.6.6 0 0 0-.21.011c.058.172.312.117.804.078-.078.043-.188.047-.332.067.008.039.008.039.11.039.1-.016.155-.031.3-.047.039.035.05.055.195.04.168 0 .207-.04.43-.052.215 0 .367-.008.582.016-.191.012-1.07.027-1.09.117.012.094.387.09.637.078-.035.02-.078.024-.188.04.051.07.332.062.57.054.215.004.356.004.348-.105.133.03.387.074.516.066 0-.024.004-.027.004-.055h.258c-.051-.031-.106-.047-.184-.082.066-.023.106-.039.172-.066.039.07.039.09.23.086.196.011.375-.13.676-.133.102.004.274.012.328-.016.04-.023.012-.02.012-.062-.191-.004-.555-.055-.7-.055-.023 0-.237.05-.241 0 0-.039.101-.02.101-.062 0-.043-.168-.016-.172-.059 0-.07.02-.07-.183-.066h-.145a.13.13 0 0 0 .074.027c0 .027-.003.027-.003.055h-.168c-.137-.035-.036-.086-.254-.11-.094 0-.172.004-.246.008a2 2 0 0 1-.32 0c-.22-.008-.165-.121-.442-.152a9 9 0 0 0-.344-.008q-.238.001-.535.008m-1.992.281c-.008.09.152.047.234.07.07-.015.16-.015.234-.023.012-.047.004-.043.012-.09-.086.02-.297.02-.48.043m.422.418c-.032.144.273.102.437.152-.039.008-.137.028-.144.059-.008.086.468.004.984-.059-.047-.078 0-.074.008-.125 0-.078-.13-.066-.254-.05-.117.015-.227.027-.227-.036-.16.028-.422.004-.476-.035-.149.028-.325.024-.328.094m-1.602.062c-.094.024-.164.051-.273.067-.07.004-.122-.004-.18-.012-.074-.008-.16-.015-.317-.008-.167.032-.265.067-.437.094-.012.086.027.055.215.04-.035.01-.067.05-.106.058.11.02.172-.024.473-.059-.031.012-.043.05-.012.055-.18.058-.277.055-.414.113.114.024.16.012.356-.008.199-.039.367-.074.445-.035.254-.031.395-.027.64-.047.16-.011.227.012.298.032a.6.6 0 0 0 .308.03c.098-.019.242-.01.258-.085.012-.078-.266-.067-.371-.098.039-.012.082-.039.117-.058-.07-.004-.207-.09-.395-.07-.078 0-.136.05-.214.058-.075.008-.102-.016-.145-.035-.039-.016-.086-.035-.183-.035q-.03 0-.063.003m13.785.106c.02.117.781.191 1.028.238.035.149-.098.149-.317.153-.285 0-.77-.125-1.152-.137-.133-.008-.235 0-.336.008-.098.007-.192.015-.313.007-.304-.007-.797-.105-.78.028.034.09 1.378.351 1.433.36.168.01.312.05.484.062.063.023.102.008.129-.028.187.02.352.067.547.078-.047.07-.024.075-.156.082-.27-.035-.52-.074-.786-.109-.078.02-.101.027-.246.008-.105-.016-.238-.02-.347-.043-.102-.012-.383-.043-.407.05.157.048.188.048.254.044.043 0 .106 0 .235.015.168.012.347.106.574.157-.055.054-.137.03-.266.043.196.085.633.203.93.246.04-.004.063 0 .082.004.027.007.043.015.094 0-.043-.012-.102-.04-.145-.059.067.004.114 0 .274.023.168.02.297.079.418.098a1 1 0 0 0 .187 0c.074-.004.137-.008.235.008.156.02.27.047.406.066 1.523.27 2.445.785 2.945 1.348.008.035.004.047.02.078.109.047.308.066.343.168.024.137-.257.059-.218.176.007.113.129.133.367.18a.4.4 0 0 0 .172-.012c.035-.012.062-.02.12-.012.41.113.598.387.99.547.007.043.015.086-.099.055-.296-.075-.5-.211-.773-.27-.11-.031-.105-.035-.227-.05.098.175 1.004.433 1.41.577-.07.141-.222.141-.265.309-.184-.094-.18-.082-.348-.074.004 0 .004.008.004.012-.242.043-.277.136-.433.218a1 1 0 0 0 .03.145.6.6 0 0 1 .259.058c-.024.079-.11.055-.094.125.031.168.398.317.504.457.05.063.12.211.172.239.11.054.172.05.226.047.067-.008.125-.012.246.078-.097.023-.183-.004-.16.082.04.203.551.715.84.883.031.023.043.101.113.148.23.105.32.105.453.285.141.031.32-.004.489.04.304.09.347.359.636.448h.063a.4.4 0 0 1 .16.016c.024.047.078.074.156.106.305.074.09-.286.332-.293-.043-.075-.062-.25-.09-.356-.05-.203.465-.074.43-.273-.039-.07-.148-.137-.168-.18 0-.035.008-.027.055-.047 0-.023-.031-.039-.04-.062-.042-.121.165-.075.376-.028.129.028.258.059.324.047.129-.023.02-.078.156-.062.012.043.028.066.04.109.054.031.093.023.148.059.176 0 .512.16.66.14.21-.035-.262-.46-.121-.465.113 0 .11.024.187.016-.035-.047.067-.016.141-.004.063.031.117.059.176.086a28.2 28.2 0 0 0-7.149-5.789c-.05-.02-.086-.016-.078.02.04.023.07.074.125.105-.062-.02-.117-.02-.172-.055-.238-.093-.425-.148-.593-.254h-.102c.012.043.063.055.086.086-.23-.058-.309-.18-.535-.246-.324-.078-.54-.09-.883-.148-.473-.125-.629-.121-1.14-.211-.204-.035-.208.004-.212.043-.007.039-.011.082-.25.039a1.3 1.3 0 0 1-.347-.094c-.246.027-.809.004-1.258-.008a.5.5 0 0 0-.148-.02c-.059 0-.114.009-.11.036m-10.37.035c-.013 0-.032-.004-.09 0-.278.016-.766.055-.927.11l.887.007c.113.004.223-.023.219-.062.016-.024.008-.031.004-.067-.09.012-.082.012-.094.012m-.836.149c-.164.007-.418.015-.43.101.016.063.852.129 1.004.121.102.004.2-.023.293-.062.235.09.29.152.559.25-.055.004-.184.043-.18.093 0 .145.703.215 1.035.223.114-.012.356-.078.41-.101a.3.3 0 0 0 .087 0 .2.2 0 0 1 .09 0c-.044.117.413.117.726.082.394.02.777.011 1.168.015.144-.015.16-.047.363-.058.04.035.102.086.293.09.516.019 1.156.062 1.195-.141 0 0-.082.012-.191-.012.023-.027.047-.027.07-.05a.4.4 0 0 0 .118 0c-.227-.15-.583-.184-1.165-.204-.77-.039-.992.09-1.808.094-.363.004-.645-.04-1-.063-.05.004-.238.082-.23-.023 0-.02.074-.027.105-.027-.215-.067-.559.015-.649-.11.196.004.383 0 .579-.011-.133-.067-.782-.008-.672-.141-.075.004-.18.008-.258.004a.7.7 0 0 1-.285.05c-.227.005-.367-.03-.516-.062a1.9 1.9 0 0 0-.508-.066c-.062 0-.129 0-.203.008m-2.5.058c-.05 0-.383.129-.133.086.215-.016.364-.031.446-.074-.086-.012-.133-.02-.2-.02q-.044.001-.113.008m-1.578.137c-.02.098.277.156.43.137.09-.008.18-.036.203-.082-.223-.016-.274-.067-.453-.067q-.07 0-.18.012m2.938.027c-.098.028-.18.043-.286.07-.27 0-.402-.011-.625.004-.086 0-.152 0-.25.028.078.082.235.043.477.023-.008.055-.004.063-.016.113-.18.028-.289.004-.394-.015a.9.9 0 0 0-.352-.024c.004.032-.02.036-.012.063.055.039.165.047.266.062-.226.04-.379-.007-.531-.05-.14-.04-.277-.082-.469-.055a.5.5 0 0 0-.164.02c.031 0 .016.027.035.054-.004-.004-.012-.004-.015-.008-.008.043-.012.047-.016.094a.8.8 0 0 0 .332.012c.027 0 .016.023.035.043.059-.016.145-.016.207-.02-.02.04.059.059.156.047.282-.02.766-.129 1.028-.152.05.011.117 0 .164 0-.074.039-.34.047-.36.113-.011.02.004.031-.007.05-.051.016-.09.036-.106.063 0 .07.363-.004.45-.011.035-.008.347-.036.57-.067-.04-.136.136-.234.148-.344.02-.09 0-.113-.148-.113zm-4.563.043c-.168.031-.937.258-.977.344.098-.024.16-.066.266-.086.125-.016.152 0 .309-.023.187-.043.36-.063.554-.102.153-.04.25-.078.36-.106-.032-.046-.09-.062-.18-.062-.082 0-.195.016-.332.035m5.953.16c-.332-.008-.289.13-.441.145-.024.004-.168.023-.192.094l.922.097c.207-.011.29-.093.301-.187.004-.082-.254-.157-.488-.157a1 1 0 0 0-.102.008m-5.847.004c-.27.051-1.032.207-1.083.313.008.066.18.086.375.058.286-.07.707-.168.723-.273q-.105.028-.2.039a1.7 1.7 0 0 0 .407-.129c-.031-.004-.05-.016-.113-.016q-.04.001-.11.008M21 5.81c-.156.066-.477.16-.512.242 0 .047.106.039.203.031q.066-.007.11-.008c-.028.012-.004.035-.012.067-.035.015-.117.03-.137.043.051.015.11-.012.262-.028-.066.047-.137.082-.309.114-.316.043-.52.03-.703.02-.156-.009-.297-.02-.484.007-.094.023-.207.027-.293.055-.012-.086-.145-.036-.195-.032-.11.02-.18.028-.414.09-.008.035.023.024.082.027.007 0-.024.012-.032.008a1.2 1.2 0 0 0-.265.11c.023-.012.047-.008.07-.004q.01-.001.02.004-.016.002-.032.004s-.117.011-.21.05c-.012.036-.004.043-.024.075.043-.008.078 0 .121-.008-.039.02-.086 0-.125.023-.148.016-.2.082-.324.121.058.047-.004.004-.02.075-.03.05.067.074.16.035a5 5 0 0 0 .43-.059c.16-.02.317-.086.543-.144.008-.043.082-.075.152-.098.004.082.102.05.192.078-.176.023-.332.031-.375.133-.008.043.183.043.34.012.328-.059.586-.149.867-.235.039 0 .894-.234.91-.23.02-.004.79-.086.875-.114.129-.03.473-.207.496-.308.012-.086-.12-.106-.293-.09-.168.02-.246.11-.375.113-.262.055-.48-.004-.469-.117-.007-.012-.007-.004.016-.062-.09.015-.164 0-.246 0m-2.336.82a.2.2 0 0 1-.102.016h.02a.2.2 0 0 0 .082-.016m3.797-.52c.102-.007.14-.007.273-.027.075-.004.207-.004.22-.09.003-.05-.06-.031-.083-.066-.215.027-.344.094-.41.183m-3.566-.082c-.008.032.109.032.23.016.086-.02.145-.043.191-.094-.023.004-.062 0-.109 0q-.048-.005-.098-.004c-.097 0-.195.012-.214.082m8.066 0c-.3.004-.398.094-.398.102.003.02-.028.059-.004.059-.094.011-.223.007-.332.011-.008.043 0 .059-.008.098.093.11-.02.195.215.262-.008.027-.012.058-.02.109-.195.031-.11.078-.098.152-.18.035-.414.024-.421.133-.004.09.117.086.105.176-.008.086-.2.066-.203.176-.016.25.98.03.996.293-.012.05-.133.23-.133.23.094-.016.195-.055.32-.086.168.305-.785.196-.832.57-.507.094-.097-.164-.21-.257-.043-.04-.43-.063-.672-.047-.266.023-.375.097-.391.27-.102 0-.223-.016-.383-.032a5.5 5.5 0 0 0-1.152 0c-.805.074-1.402.012-1.55-.254-.278.047-1.095.188-1.138.348-.007.062.051.082.164.058.227-.02.61-.144.79-.218.019.254-.66.129-.711.383-.016.058.117.214.05.218-.3.028-.304-.14-.543-.172-.066-.007-.136-.02-.203-.023-.304.043-.586.098-.887.14-.285.024-.453.133-.761.188-.54.113-.512.008-.508-.016.02-.078.414-.12.508-.171-.328-.22-.258-.2-1.02.003-.402.09-.726.086-1.043.079-.324-.004-.64-.012-1.02.086-.234.054-.128.156-.327.222-.125.028-.203-.031-.23-.101-.227.101-.27.23-.505.308-.117.035-.23-.008-.324-.054-.078-.036-.145-.075-.176-.063-.238.07-.191.234-.437.309-.098.03-.14.054-.168-.02-.367.14-.461.211-.79.395-.113.054-.378.3-.5.261-.222-.058-.241.118-.327.168-.68.27-.246.262-.348.29-.234.105-.508.316-.809.347a29 29 0 0 0-2.746 3.41l.535-.183c.157-.09.313-.137.473-.211.11.011.234-.016.356-.043.144-.032.285-.063.402-.028.168.012.168.196.383.13.097-.028.129-.118.187-.192.106.058.121.066.278.015.062-.05.105-.043.171-.003-.035.043-.129.097-.144.195-.016.055.078.086.129.074.144-.031.101-.113.312-.195l-.023.11c-.031.062-.176.116-.195.183 0 .054.027.113.164.066.222-.035.324-.105.3.031-.007.043-.011.082-.023.125-.008.098.219.168.418.125.027-.03.074-.027.117-.035-.008.043.05.051.043.102-.02.113-.043.668.11.68.105 0 .183-.02.25.011.117.078-.063.203.074.242 0 0 .293.075.3.102.067.187.024.43.461.352.016.082.125.082.243.078.132 0 .28-.004.324.117.031.09.34.047.469.125.046.02.09.031.14.035.035.094.152.098.145.191-.02.079-.145.211-.22.29-.05-.09-.16-.133-.362-.102-.047.02-.196.047-.207.098-.008.207.277.238.265.457-.043.3-.476 1.687-.394 2.035.093.351.043.531.156.836-.07.058-.223.168-.16.289.195.414.43 1.008.73 1.043-.117.62.192.379.375.894.02.106-.027.278.09.324.504.165 1.207.434 1.434.895-.008-.004-.02 0-.032 0a.6.6 0 0 1-.003.113c.097.36.214.434.34.707.081.192.062.621.23.735.258.172.5.492.723.828.101.164-.137.16-.258.152-.024 0-.047-.004-.055-.004.152.239.492.18.7.395.16.156.277.324.44.5-.003.105-.007.285-.007.422.027.066.055.086.156.14.176.125.309.485.606.489 0 .054.23.343.257.347.04-.008.106-.191.114-.25 0-.101-.18-.402-.317-.273-.289-.196-.375-.606-.488-.996-.121-.344-.402-.496-.516-.871-.07-.27-.097-.426-.304-.645-.157-.164-.348-.144-.453-.379-.11-.262-.25-.457-.243-.789 0-.039 0-.156.035-.207.18.188.43.164.696.277.101.059.078.403.215.547.12.137.074.403.215.551.167.172.312.328.519.543.035-.043.035-.031.176-.004-.004.39.465.402.625.695.066.176-.051.329.086.47.144.148.406.218.574.378.348.36.71.887.906 1.488.024.09.16.157.164.383.016.188-.16.278-.168.461.004.113.106.332.246.332.082.223.559.336.766.527.043.032.137.086.184.122.21.097.324.062.55.16.215.125.293.316.524.386.098.028.168.016.242.008.078-.008.156-.015.254.024.195.09.738.476.957.488.102 0 .27-.031.395.035.054.024.21.149.347.152.297-.003.344-.332.652-.335q.157.002.383.132h.106c.469.23.594.918 1.148 1.184.348.172.578.09.922.238.223.106.402.27.73.29.094-.008.212-.079.337-.087a.3.3 0 0 0 .105 0c.11.414.395.551.68.828.062.063.175.133.226.286.09.265-.086.484.176.656.023-.004.059 0 .098 0 .027 0 .058.004.074 0-.024-.024-.024-.11.004-.149.012-.003.594.344.66.45.047.101.062.289.312.351-.003.028.063.106.086.102.09 0 .391-.102.524.015.137.141.304.446.586.446.101.008.222-.082.261-.25-.027-.016-.132-.102-.14-.149.012-.074.48-.433.61-.437.183 0 .07.375.26.472-.026.051-.097.118-.1.168 0 .04.163.106.19.13.013 0 .032-.016.044-.02-.008.027-.028.078-.032.105.004.305.297.239.305.598-.004.164-.082.234-.09.43.008.097.098.226.102.359-.004.023 0 .066 0 .09-.02.031-.059.097-.07.129-.004.039.101.144.168.164-.122.445-.543.324-.747.695-.136.274-.253.695-.726.715.062.734-.18 1.035-.188 1.406-.004.23.02.531.266.543.09-.004.102-.086.254.008-.082.25-.375.32-.535.57a.9.9 0 0 0-.192.477c-.004.27.23.598.414.762.055.043.196.023.25.12.04.087.082.313.196.426.047.028.164.012.218.106.137.289.235.48.348.836.113.316.195.66.32 1.012.07.226.301.32.297.55 0 .192-.074.344.051.453.293.274.5.446.957.555.223.059.313.09.504.262.172.14.352.121.586.195.297.14.512.297.645.633.03.152.066.945.058 1.082-.023.203-.183.566-.195.762-.02.183-.031.363-.043.574-.043.125-.137.367-.14.453 0 .035-.009.078-.009.113-.043.426-.293.692-.336 1.168-.011.192-.195.375-.125.575-.023.304-.035.582-.062.863-.117.27-.14.457-.262.719-.027.043-.093.05-.14.09-.075.078-.125.222-.196.312-.144.152-.37.41-.398.652-.02.082-.016.344.035.344 0 0 .07.027.074.102-.011.03-.054.058-.152.07-.066.184-.172.266-.188.45-.007.12-.066.343.059.343.086-.02.117-.078.227-.121.039-.012.09-.004.128-.016-.003.067-.007.082-.02.145-.237.39-.46.785-.706 1.156-.102.012-.125-.016-.156-.047-.032-.027-.067-.059-.192-.05-.066 0-.133.027-.136.09l-.016.003c-.031.008-.016.04-.008.07.02.118.168.145.164.23-.047.165-.324.196-.355.313-.012.118.164.32.144.461.008.047 0 .04-.015.086-.012.125.347.07.328.211-.016.067-.063.07-.114.11.04.015.067.015.106.023-.05.078-.246.027-.274.121.004.02.067.035.11.043.172.07.242.117.625.078.008.055.02.063.129.055.074-.02.164-.016.246-.031-.05.183.265.058.45.054.202.012.062.153.355.102.125-.012.23-.047.355-.05.035-.013.094-.032.129-.044.047-.012.094-.023.14-.023.126-.02.458-.168.645-.207a.37.37 0 0 0 .207-.055c-.324.004-.637.02-.89-.059-.157-.039-.075-.289-.29-.324-.074.004-.175 0-.164-.105.047-.203.11-.203.285-.313.13-.058.329-.062.446-.172.101-.093.086-.156.195-.238.223-.113.543-.195.586-.379.035-.226-.566-.008-.52-.3.036-.114.223-.255.454-.31.035-.011.125 0 .218.012.137.02.286.04.32-.015.126-.219.157-.363.434-.567-.07 0-.136-.015-.12-.109.062-.016.105 0 .148.012a.4.4 0 0 0 .183.011c.024-.011.153-.062.16-.136.016-.059-.046-.028-.105-.067-.035.016-.137.078-.203.09-.11.028-.23-.176-.215-.312.004-.063.055-.13.16-.133a.6.6 0 0 1 .3.012c.075.02.15.039.286.02.086-.024.3-.11.332-.165 0-.043.008-.05.02-.094.117-.148-.04-.25.164-.398.144-.113.554-.078.78-.164.34-.137.583-.149.856-.352.145-.129.258-.191.407-.363.09-.074.097-.133.125-.277.039-.121-.18-.059-.203-.164-.028-.157-.008-.22-.094-.29-.043-.027-.219-.027-.207-.132.008-.032.082-.067.12-.075a.8.8 0 0 1 .278.012c.086.016.164.031.254.012.04-.008.106-.004.191 0 .114.008.25.012.376-.008.601-.133.804-.648 1.128-1.035.282-.32.61-.602.903-.941.074-.09.078-.067.082-.047s.004.039.062-.047v.008c.176-.25.344-.461.606-.641.058-.293.097-.613.148-.938.012-.113 0-.101.012-.09.016.016.05.028.148-.062.114-.113.282-.14.403-.328.293-.387.547-.29.902-.633.035-.043.05-.113.145-.164.18-.121.359-.152.586-.207.203-.043.468-.273.566-.437.031-.047.043-.188.11-.278.214-.285.288-.418.515-.746.031-.043.101-.312.133-.43.011-.097.133-.246.199-.32.023-.035.082-.101.082-.164.035-.156.219-.848.254-1.07.047-.313-.125-.399.066-.649.133-.148.254-.21.399-.425.093-.137.136-.176.218-.305.383-.621.895-1.223 1.036-2.23.039-.297.011-.56-.188-.602a.4.4 0 0 0-.207.02.4.4 0 0 1-.191.019c-.18-.05-.465-.375-.559-.574-.14-.059-.297-.13-.527-.149-.137.035-.301.09-.461.13-.125.019-.188-.032-.262-.083a.4.4 0 0 0-.273-.086c-.114.02-.164.121-.29.192-.027.007-.058.004-.09.011.012-.11.036-.23.005-.36-.02-.105-.121-.07-.23-.136-.161-.094-.614-.332-.848-.312-.23.027-.395.343-.547.597-.032.063-.114.188-.16.192-.04.004-.063-.121-.06-.16-.1-.004-.202.03-.327.03a.38.38 0 0 0-.215-.327c-.063-.02-.195 0-.188-.149.047-.46.508-1.062.754-1.383-.004-.124-.164-.14-.234-.289-.055-.168-.215-.648-.211-.832-.238-.046-.516-.53-.746-.535-.027.004-.063.004-.086.004.008 0-.004-.023 0-.035-.137.016-.375-.105-.473-.148-.113.003-.261.003-.382.015-.407-.062-1.008.012-1.13-.437-.062.004-.199-.035-.226-.086-.191-.395-.305-.336-.602-.64-.136.015-.289.007-.433.015-.074-.223.004-.446-.211-.52-.23-.066-.559-.113-.676-.344-.004-.03.004-.097.004-.128.04.023.191.003.238-.04 0 0-.293-.042-.445-.042-.039.023-.383.058-.402.09-.125.195-.258.199-.504.242-.102 0-.324-.028-.324-.18-.29.012-.582.012-.883.016-.078-.012-.192-.13-.196-.297-.238-.043-.625-.137-.687-.407-.074 0-.219-.004-.293 0-.012.2.25.121.316.317a4 4 0 0 1-.402.004c-.152.105-.41.066-.426.32-.008.195.184.309.2.512-.004.047-.11.261-.16.27-.204-.009-.294-.321-.274-.497-.012-.113.101-.433.156-.683a.21.21 0 0 0 .172-.204c0-.011-.09-.195-.152-.199-.196.012-.27.246-.492.32-.438.133-.688.204-1.106.344-.219.078-.375.117-.465.39-.023.099-.066.34-.16.415-.082.035-.262.121-.273.289-.024.004-.098.059-.106.086a.2.2 0 0 1 0 .098c-.086.035-.074.027-.207.004-.035.023-.094.09-.129.113.028-.031.09-.098.117-.133-.277-.203-.3-.687-.8-.703-.418.004-.633.332-1.094.34-.3-.012-.29-.301-.485-.403-.28-.132-.628-.265-.64-.652-.004-.352.008-.672 0-1.035.105-.16.12-.82.12-.977.013-.062 0-.191 0-.254-.308-.07-.41-.351-.835-.355-.613.004-1.082.102-1.66.102-.078.003-.207-.067-.211-.184a.2.2 0 0 1 0-.086c.078-.066.308-.168.312-.34a19 19 0 0 1 0-.812c.036-.008.11 0 .141 0-.008.027.004.09 0 .12.11-.167.207-.28.211-.558.004-.332.289-.625.297-.863v-.152a5 5 0 0 1-.402-.036c-.047-.03-.196-.062-.348-.047-.477 0-1.09-.02-1.106.48-.007.255-.285.477-.367.677-.012.047-.105.261-.246.27-.05.003-.14-.102-.328-.102-.36 0-.621.23-.957.238-.102-.004-.14-.148-.293-.203-.465-.14-.453-.41-.758-.723-.117-.113-.344-.351-.41-.484-.078-.156.016-.246-.05-.403-.032-.043-.16-.19-.137-.332.007-.308.011-.613.007-.933.055-.258.18-.36.18-.672 0-.07-.047-.191-.066-.266-.008-.004-.016-.027-.012-.039q.007-.004.02.004.017.008.023.004c.008-.035-.078-.125-.082-.164.015-.496.222-.941.61-1.082.073-.031.14-.027.21-.023.09.007.172.011.254-.067.215-.195.445-.605.95-.617.198 0 .292.16.484.156.074-.004.18-.129.257-.133.352.008.747.543 1.243.325-.211-.137-.059-.29-.032-.528-.082.02-.066.051-.242.004.301-.101.656-.07.938-.14 0 .039.078.136.12.136.048 0 .095-.035.157-.066a.5.5 0 0 1 .273-.07c.207 0 .36.093.493.187.14.098.265.195.43.191.113 0 .222-.21.378-.21.774.011.567.992.836 1.543.14.273.305.367.528.617.093.175.085.406.343.422.297-.004.38-.309.38-.668 0-.309-.157-.461-.212-.664v-.082c-.015-.536-.476-.688-.492-1.243.008-1.203.84-1.261 1.648-1.675l-.046-.032c.078-.07.078-.136.285-.203.105-.012.222-.148.422-.187.07-.004.156-.121.195-.168a1.3 1.3 0 0 0-.203-.117c.004-.032-.004-.094 0-.13.113 0 .23.016.258-.152-.063-.02-.164-.031-.235-.148.063 0 .219-.047.219-.184 0-.043.004-.12-.004-.16-.016-.008-.043-.008-.07-.004q-.03.005-.047.004c-.074-.078 0-.086-.004-.238-.008-.16-.09-.446-.098-.551 0 0-.011-.145.012-.207.031.168.203.39.2.523.003.043.003.125.003.172.004.024.043.094.067.098.039-.012.367-.559.37-.633-.007-.098-.12-.164-.156-.3.02-.02.063-.055.083-.075.019.027.082.125.117.125.09-.004.422-.535.449-.652 0 0-.156-.125-.152-.188-.016-.031.058-.082.093-.105.04.008.114.012.153.023.078-.008.152-.004.218-.004.133 0 .25 0 .403-.05-.051-.043-.145-.032-.239-.02-.058.004-.117.012-.171.008a.5.5 0 0 0-.168-.008c.332-.191.879-.082 1.207-.285.047.047.332.027.53-.024-.003-.027 0-.078-.003-.105 0 0-.148.094-.172.098-.078 0-.176-.22-.176-.282-.039-.011-.062-.101-.07-.136-.004-.598.566-.383.828-.61.156-.062.168-.093.363-.082a.53.53 0 0 0 .493-.218c-.028-.02-.055-.079-.075-.106a.1.1 0 0 0-.011-.047c0-.012 0-.031-.004-.043.027.004.117.008.16.012.074.004.484.082.625.016.14-.09.121-.262.352-.262.019.191-.004.207.25.234-.364-.004-.899.195-.883.516.011.11.246.375.336.39.097-.007.39-.355.691-.43.066-.003 1.07-.304 1.09-.417-.024-.149-.399-.207-.5-.215-.445-.043-1.156-.492-1.203-.848-.086-.015-.223-.058-.336-.062.082-.106.62-.121.613-.414-.035-.242-.484-.25-.82-.274-.688-.043-.961.348-1.438.387.192-.367.512-.23.844-.5.215-.195.031-.316.36-.387.574-.117.902.004 1.492.059.765.074 1.351.41 1.754-.055.187-.219 1.265-.055 1.242-.379-.032-.242-.145-.351-.297-.511-.102-.02.039-.079-.133-.16 0-.044-.02-.087-.016-.122a4.9 4.9 0 0 1-1.32.121.3.3 0 0 1-.148-.062c.277-.074 1.043-.04 1.125-.219 0-.05-.114-.086-.133-.129-.352-.02-1.074-.215-1.125-.554-.008-.004-.004-.02-.004-.028-.32-.047-.524-.199-.723-.32.063-.027.203-.031.196-.149-.008-.093-.145-.195-.133-.277-.145-.055-.633-.289-.528-.46.121-.204-.48-.313-.57-.575-.039 0-.215-.105-.262-.148-.093.043-.359.101-.308.222.086.207-.168.223-.43.309-.176.066-.312.207-.469.191-.27-.027-.488-.347-.672-.37-.25-.036-.164-.462-.218-.673-.106-.258-.864-.156-.918-.488-.43-.07-.38-.238-.817-.266-.093-.011-.222-.015-.336-.02-.449-.03-.722-.198-1.168-.222-.234-.012-.457.04-.453.207.012.09.567.238.067.418-.2.063.297.305.336.434.066.308-.368.343-.578.379.222.207.636.277.828.464.152.16.066.426.078.73-.012.18-.93.59-1.258.634.578.21.371.746.594.949-.047.055-.223.277-.239.383-.199.011-.367.062-.53-.024-.415-.234-1.009-.632-1.028-.914-.012-.304.004-.558-.461-.73-.34-.074-.68-.125-1.024-.18-.609-.242-1.261-.41-1.984-.558-.098-.024-.488-.168-.715-.168-.246.007-.36.152-.597.152-.008-.219-.23-.703-.582-.711-.165.008-.239.082-.399.102.059-.102 0-.153.016-.399.015-.371.242-.7.613-.914.133-.102.41-.406.531-.441a.8.8 0 0 1 .282.007c.136.02.234.043.242-.085 0-.149-.59-.122-.805-.184.04.008.008-.008.008-.024-.008-.03.082-.058.922.06.336.03.133-.177.32-.18.094-.008.223-.012.34-.008.387-.004.582-.211.828-.313v-.121c-.527-.066-1.04-.012-1.277-.246.074-.008.203-.012.277-.004.2.047.39.168.691.172.25-.008.801-.055.817-.149-.008-.152-.04-.218-.067-.242.301.016.426.156.63.164.1-.008.195-.004.296.004q.107.002.219.004c-.07-.039-.02-.184.184-.035.113.082.863-.246.878-.348-.011-.078-.347-.148-.355-.203.004-.058-.219-.164.262-.281.062-.066.004-.05-.004-.188-.239-.003-.328-.05-.434-.097.367.011.7.031.906.043-.003.054-.066.136.125.148.145.012.274-.043.391-.098.106-.046.203-.097.297-.097.172.031.98.344 1.121.414h-.055c-.105-.004-.289-.004-.293.055.012.003.075.074.125.09.196 0 .278-.063.47-.044.308.036 1.26.41 1.296.582.008.106-.285.204-.418.258-.027.004-.07 0-.117-.004-.113-.004-.25-.011-.246.07 0 .06.218.134.277.16a5 5 0 0 1-.664.048c-.23-.02-.43-.043-.652-.047-.211-.027-.59.07-.598.144.016.106.492.22.668.23.098.013.168-.01.242-.034.063-.02.125-.04.207-.035.11.011.106.05.258.066a.57.57 0 0 0 .297-.078c.445.144.691.289 1.195.437-.222.203.653.29 1.028.41.39.141.648.141 1.093.282.035.015.094.094.157.101.05.008.136-.015.136-.066-.05-.195-.855-.43-1.125-.61.059.024.157.024.223.024.168.113 1.11.395 1.383.441.054-.078.183-.171.18-.246-.02-.078-.274-.136-.278-.187a1 1 0 0 1-.02-.137c-.07.004-.171-.023-.242-.031-.043-.121-.129-.063-.414-.133-.093-.043-.308-.207-.347-.293-.055-.008-.137-.012-.188-.023-.004-.036-.004-.067-.015-.098.05.023.128.031.218.027-.008-.031 0-.05-.011-.082-.114-.008-.157-.004-.29-.047a1 1 0 0 1 .282-.035c.707.094.77.528 1.484.637.16.016.168-.078.16-.156.27.027.297-.012.293-.032-.004-.03-.011-.054-.011-.085.175.027.402.054.398-.043-.016-.118-.129-.168-.398-.207-.063-.012-.192-.036-.254-.07-.086-.098-.137-.098-.239-.095a1 1 0 0 1-.257-.015c-.204-.031-.293-.137-.344-.266-.293-.05-.68-.164-.739-.316-.195.004-.265-.055-.402-.098.117-.105.227-.062.45-.086a.7.7 0 0 0-.223-.082c-.157-.02-.282-.05-.426-.066.102-.067.277-.035.484-.024-.117-.09-.215-.172-.418-.195-.066-.027-.172-.027-.242-.031-.004-.043 0-.063-.015-.102-.399-.086-.625-.187-1.02-.285.031-.125-.336-.152-.488-.168-.106 0-.235-.031-.36-.039-.484-.05-.597-.266-.93-.375-.199-.082-.808-.145-1.097-.168-.133-.012-.215.023-.297.055a.5.5 0 0 1-.281.054c-.11 0-.176-.066-.34-.078-.14-.011-.215.047-.289.047-.066-.008 0-.09-.008-.117-.004-.137-.215-.34-.601-.352-.586-.03-1.559.032-1.567.247-.004.074.149.085.149.16-.004.058-.207.113-.297.113-.184 0-.149-.043-.149-.102 0 0-.027-.054 0-.105-.062 0-.117-.012-.117-.059 0-.183.48-.18.629-.289l-.484-.066c-.5 0-.871.09-1.176.21-.047.036.004.13-.106.165-.23.055-.304.094-.304.27.004.066.218.156.218.156s.672.023.82.058c0 .031-.003.047-.003.078-.254-.015-.469-.039-.672-.015.04.097.242.105.328.18.125.007.25.003.375 0 .113 0 .227-.005.344 0 .078.054.332.128.45.128h.062c0 .117.226.125.226.203-.004.09-.344.075-.426.149-.117.121-.074.226-.297.375-.347.238-.648.031-.652-.059-.004-.117.25-.074.262-.195-.02-.059-.438-.262-.563-.258-.445.004-.136.32-.613.336-.012-.148-.016-.223-.34-.289a.5.5 0 0 1 .153-.09c-.243-.062-.567.008-.75-.09.09-.027.378-.093.382-.191 0-.14-.425-.117-.441-.223.004-.176-.191-.285-.559-.316.118-.05.192-.074.23-.152a1 1 0 0 1-.097.003h-.094c.067-.093.082-.078.192-.062.05.004.121.012.223.008.453-.02.644-.145.847-.254 0 0 .254-.074.266-.09-.004-.031.004-.043.004-.074-.274.011-.508 0-.739-.012-.171-.008-.34-.016-.52-.016q-.083.002-.167.004m1.773 9.461c.215-.062.243.008.422-.07.164-.074.098-.273.262-.281.191.015.336.25.387.289.027-.043.02-.164.02-.184h.124c.078.004.781.469.817.508.097.168 0 .285.132.402.38.309.868.278 1.293.477.067.016.16.016.258.012h.164c.196.12.438.254.45.46-.004.079-.086.169-.16.16-.196.016-.403-.206-.462-.241-.062.207-.199.875-.43.886-.175-.113-.171-.21-.238-.441-.16.039-.125.094-.328.094.047-.196.18-.32.176-.512-.004-.156-.605-.418-.738-.418-.27.008.02.32-.59.363-.18 0-.184.418-.18.606 0 .12.004.3 0 .449.008.195-.078.598-.328.605-.183.004-.375-.12-.379-.28 0-.36.133-1.075.414-1.388-.164.004-.226.106-.394.196.047-.282.687-.657 1.047-.66.101.003.488.074.738.003.004-.046 0-.113-.004-.164-.348-.011-.527-.168-.93-.18-.18 0-.242.134-.457.137-.086 0-.261-.082-.277-.164h-.325c.052-.09.177-.148.18-.336-.242.051-.535.293-.718.301-.114-.004-.164.168-.442.18-.097 0-.175-.004-.242-.129-.086.012-.18.05-.293.098-.066 0-.183.004-.242.004.39-.399.828-.543 1.273-.782m10.164 1.336c.024.04.02.106.024.153-.008-.043-.016-.11-.024-.153m.055.336c.016.035.027.098.043.137-.016-.031-.031-.102-.043-.137m.05.164c.028.016.048.086.056.121-.016-.03-.036-.093-.055-.12m-5.797.57c0-.055.172-.098.211-.11.36-.078 1.105-.215 1.52-.219 0 .52-1.024.368-1.5.344-.032 0-.051.004-.075.008a.6.6 0 0 1-.125.004c.02.023.043.066.059.094-.024-.036-.086-.082-.09-.121m.11.156c.007.015.023.054.035.066-.02-.004-.032-.05-.036-.066m.047.097c.016.032.032.086.047.114-.02-.028-.031-.082-.047-.114m-1.23.262c.152-.113.39-.12.62-.105.224.015.333.097.395.07.043-.02.106-.047.16-.07-.363.16-1.019.422-1.421.43-.168-.012-.23-.208-.235-.356.04.055.176.164.25.172h.004c.11 0 .18-.09.227-.14M18.949 6.226c-.02.062.086.046.145.03.093-.007.176-.034.281-.058.027 0 .016-.031.016-.058-.153.027-.293.054-.442.086m-1.12.117c-.106.039-.106.015-.212.043-.336.082-.433.234-.676.34-.222.109-.394.168-.593.25-.043.03-.278.144-.285.164-.016.007.062-.012.093.039.098-.016.133-.082.207-.098.125-.035.176-.023.328-.09.02.035.082.047.176.024a.45.45 0 0 0 .285-.176c.196-.047.391-.172.457-.254.051-.004.067.016.086.039.024.023.055.05.176.027.192-.09.375-.187.578-.28.012-.056-.078 0-.074-.075.086-.024.18-.063.184-.113q.009-.034-.051-.032c-.168 0-.68.192-.68.192m14.59-.094c-.004.082.156.09.297.137-.098.07.156.133.45.148.26.02.378-.023.538-.023.168.027.238.058.438.07.113 0 .203-.02.254-.074-.27-.078-.602-.219-1-.246-.313-.028-.407-.07-.73-.086-.102.008-.25 0-.247.074m-6.984-.02c-.204.024-.372.024-.575.04-.316.035-.62.03-.859.136-.023.008-.098.035-.105.055-.012.098.253.043.445.035 0 .063 0 .09-.016.152-.062.02-.152.016-.215.02a2 2 0 0 1-.347-.004c-.102-.004-.196-.012-.285-.004-.016.035-.012.05-.012.098.394.125.82.054 1.226.199.079.035.102.086.309.078.113-.012.168-.078.3-.11.49-.085.512-.003.606-.34a11 11 0 0 0-.328-.007c.004-.074.043-.004.047-.086.004-.054-.164-.027-.32-.004-.086.016-.172.032-.215.032.101-.043.457-.13.48-.243-.004-.03-.078-.047-.12-.047zm-3.313.301c-.223-.004-.41.074-.43.145.028 0 0 .031.008.058-.133.04-.16.036-.203.036a.6.6 0 0 0-.18.015c-.101.008-.25.047-.257.106-.024.062.156.289.242.347-.063.028-.074.051-.184.07-.265.028-.129-.12-.195-.18-.07-.073-.235-.1-.418-.093-.094.004-.195.027-.297.047.035.04.035.023.047.09a4 4 0 0 1-.406.105c-.078-.097-.188-.136-.563-.066-.2.039-.312.125-.426.176-.047-.047.012-.192-.172-.153-.476.086-1.632.524-1.722.805-.004.035.207.055.348.031.16-.054.246-.066.437-.09-.14.086-.496.094-.531.223-.035.145.656-.035.957-.094.222-.039.457-.086.695-.125a.6.6 0 0 1 .219-.004q.051.002.098.004c-.16.043-.235.051-.438.086-.55.106-.95.207-1.29.375.11.059.278.137.56.09.18-.043.585-.129.718-.101.16.027-.023.148.215.113.395-.067.793-.14 1.219-.188.3-.148.633-.129 1.02-.257.21-.07.132-.133.382-.153.207-.031.352 0 .516.028.164.03.348.062.629.03.36-.023.683-.07.832-.187-.047-.02-.117-.011-.133-.074-.05.016-.215.027-.211-.027.004-.055.082-.059.191-.082.27-.02.313-.004.586-.094-.28-.074-1.43-.074-1.425-.277.02-.157-.329-.239-.305-.45.008-.066.312-.128.332-.218.012-.067-.066-.09-.188-.09-.078 0-.175.012-.277.023m-4.93.438c.004.05.094.031.188.008a.8.8 0 0 0 .414-.262c-.125.008-.563.168-.602.254m.348.242c-.16.027-.332.133-.422.117-.27.05-.367.02-.617.059-.203.039-.344.117-.48.16-.286.074-.387.066-.688.2-.012.081.129.073.11.128-.06.18-.669.5-.739.68-.023.047.125.015.27-.012a1 1 0 0 1 .246-.035c.027.043.082.07.144.058.028-.007.047 0 .067.004a.16.16 0 0 0 .09.004c.093-.043.94-.37.976-.414.05-.125.629-.48 1.035-.625.121-.05.782-.219.824-.285.008-.066-.148-.09-.332-.09-.168 0-.359.02-.484.05m7.758.274c-.293.012-.25.18-.43.227-.047.012-.312-.004-.324.055.02.007 1.074.12 1.27.109.164-.012.222-.074.378-.117-.086-.082-.64-.274-.878-.274zm7.89.274c.192.012.286-.043.336-.125h-.02c-.179 0-.491.11-.316.125m.895.426c.004.086.156.156.383.164.187.023.539-.02.543-.102-.02-.133-.328-.223-.582-.223-.188 0-.344.047-.344.16m1.066-.007c.004.043.094.066.196.066.148.02.097.012.293.012a.9.9 0 0 0-.301-.129h-.008c-.039 0-.176.031-.18.05m-4.082.419c-.015.047.102.11.309.113-.086-.039-.11-.121-.242-.121q-.028.001-.067.008m-.96.422v.101c-.004.047-.09.067-.157.09-.023.04-.215.031-.23.137.101 0 .41-.024.664.008-.028.07-.074.136.11.144.062 0 .081-.02.124-.055.227.043.719-.097.723-.242.074.02.59.188.59.188.113.011.27.011.418.015.191.004.34-.023.504-.054-.141-.102-.414-.063-.664-.16-.067-.024-.032-.075-.114-.126-.277-.167-.765-.117-1.094-.304-.043.015-.105.027-.14.055-.067-.07-.149-.102-.23-.196-.438.008-.505.281-.505.399m12.926-.266c.04.078.184.23.309.27.09-.004.176.035.277.062.215.035.465.094.473 0-.34-.129-.473-.297-.805-.383-.055-.004-.11-.011-.152-.011-.067 0-.11.011-.102.062m-9.375.777c.157.067.192.067.352.016-.13-.023-.172-.059-.23-.059a.26.26 0 0 0-.122.043m-2.336.211c-.004.032-.008.063 0 .09.239-.004.63-.144.77-.219-.188-.039-.113-.039-.438-.039-.011.04-.203.094-.332.168m1.43.172s.21.113.234.117c.164.008.184-.09.274-.14a.75.75 0 0 0-.317-.075c-.105 0-.191.032-.191.098m-.316 3.73c.062.055.23.137.332.13.015.003.047.011.058 0-.011-.145-.195-.211-.39-.211a.3.3 0 0 1 0 .082m-22.13.293c-.015-.004-.038-.008-.117.02-.042.026-.124.05-.144.132-.031.133.055.207.21.176-.042.148-.019.23.079.308.137-.12.055-.222.105-.351-.019.023-.109.058-.105.031-.031-.148.027-.14.094-.375-.094.066-.102.063-.121.059m.328.718c.097-.078.09-.074.137-.066.023 0 .05.004.105 0-.04.05-.02.121-.043.187.004 0 .023.036.055.075.031.043.074.082.125.074.062-.02.093-.05.105-.117.043-.192-.246-.153-.16-.418-.219.031-.277.039-.324.265m32.637.649c-.18.25-.29.742-.676.86.011.03.086.066.12.07.013.015.013.05.009.07.007.004-.243.156-.243.199.004.027.094.129.157.137.082.011.14 0 .203-.012a.8.8 0 0 1 .242-.012c.168.008.254.098.441.133.09 0 .184 0 .282-.027.066.093.168.093.273.09q.064-.002.129.007c-.031.067-.14.047-.137.168-.004.016.028.016.055.012h.031c.172.016.27-.133.375-.266.121.114.063.32.172.336.035.016.078.016.113.036.012.043.032.148.141.156.137.023.203-.11.191-.25 0-.106-.105-.113-.125-.262-.082.04-.03.074-.171.05-.004-.073-.106-.148-.118-.198 0-.043.114-.059.118-.157-.047-.023-.118 0-.149.012-.027-.172-.016-.27-.031-.379-.067.028-.242.004-.402-.054a.5.5 0 0 1-.165.023c-.007-.012-.007-.043-.003-.055-.079-.011-.18-.023-.254-.035l-.012-.105c.023-.012.043-.032.062-.051a.6.6 0 0 0-.23-.086c-.086-.012-.086.055-.203.07l-.012-.11c.055-.187.34-.28.313-.53-.008-.04-.059-.11-.11-.125q-.023-.005-.047-.004c-.191 0-.246.16-.34.289m-32.374.086c-.07.027.082-.13.09-.133-.051.012-.087.004-.118 0-.035-.008-.07-.016-.125 0 .008.023 0 .05-.015.074.046.063.05.156.101.137.074-.004.063.078.152.082-.011.015-.058.062-.062.121-.027.07.039.176.121.148.133-.023-.062-.129-.055-.168.004-.035.063-.074.075-.109.011-.047-.032-.055-.032-.105.036-.086.051-.149.04-.211a.3.3 0 0 1-.172.164m29.32.011c.187.133.644.41.894.434q.146.024.203-.05c-.316-.173-.597-.387-1.023-.387q-.036 0-.074.003m-27.973.704c-.062.011-.129.054-.18.082.012.011.032-.008.051-.008.063 0 .11.004.176.004a.5.5 0 0 1-.137.117c.04.121.352.148.61.101-.04.032-.106.063-.14.125.19.09.585.266.89.23.035-.01.082-.007.117-.019-.004-.03.012-.066.012-.097-.309-.223-.57-.403-1.09-.457-.078-.004-.145-.082-.262-.082q-.023-.001-.047.004m27.723.257q-.001.005.004.004.006.005.011.004c-.003-.012-.007-.023-.011-.023 0 0-.004.004-.004.015m.055.016c-.008 0-.024-.004-.04-.008.012.035.032.098.04.008m.378.41c.024.067.59.36.696.371.023-.008.176-.054.172-.117-.016-.012 0-.055-.004-.074-.16-.012-.301-.024-.457-.04-.153-.054-.266-.081-.352-.222-.027.008-.058.05-.055.082m1.258.445c0 .067.098.153.25.157.168.027.324-.051.317-.13-.004-.019-.004-.058-.004-.081-.344-.04-.121-.086-.137-.196.004-.039-.086-.085-.113-.128-.133.03-.317.316-.313.378m-7.773 9.063c.027-.004.082 0 .14.004.09.004.2.008.301 0-.035-.031-.09-.125-.203-.14-.066.003-.21.085-.238.136m.847.21c-.023-.026-.062-.1-.085-.136-.012.04.046.149.085.137m22.622.613c-.079.094-.223.211-.293.445q-.142.614-.22 1.399c-.023.195-.151.348-.148.629.04.535.172.973.172 1.578.004.344-.105.988-.238 1.152.031.188.133.446.145.637-.008.113.011.223.015.43-.012 0-.004.004-.015.004.035.093.035.101.07.183 0 .051.258.645.297.711.11.246.12.555.195.914.031.2.102.262.18.371.054.075.023.157.086.332a31.736 31.736 0 0 0-.137-9.187c-.031.156-.066.332-.11.402m-23.035.34c.024-.004.075-.062.086-.086-.015-.086-.05-.219-.191-.238-.016 0-.05.004-.066-.004 0 .101 0 .324.171.328m-3.265 1.363a.4.4 0 0 1 .094 0c.023 0 .046.004.062 0 .176-.172.625-.406.961-.414.062-.004.187.008.238.055-.035.039-.062.113.035.191.168 0 .317.012.5 0 .235.012.352.258.598.262.098 0 .215-.047.36.02.046.027.042.156.187.156.043.27.316.246.582.363-.008.063-.11.156-.168.156.008.024 0 .078 0 .102.32.004.59.121.98.125.196.008.516.004.641-.203-.086-.043-.2-.29-.387-.344a3 3 0 0 0-.257-.02c-.008-.027 0-.097 0-.12-.383-.008-.809-.192-1.051-.438-.028-.02-.18-.195-.29-.207-.57-.004-.913-.422-1.679-.438-.781 0-1.121.27-1.406.754m.875-.101q-.011.006-.016 0c.008.031 0 .093 0 .12-.035.005-.148.028-.156.157.008.024.23.004.242 0 .024-.066.004-.195 0-.262-.012.004-.039-.015-.05-.015h-.02m4.445.386c-.004.024.004.075 0 .102.016.004.05 0 .066 0 .063 0 .22-.05.27-.102 0-.039 0-.117-.004-.152-.05.07-.2.188-.332.152m-33.66.207h.016c-.016.012-.02.012-.028.012-.008-.004-.015-.004-.035.012 0 0-.012.11.074.117.035-.031.047-.043.051-.078-.016-.035 0-.074.004-.11q-.017-.004-.027-.003c-.028 0-.016.011-.055.05m.25.157c-.012 0-.027 0-.082.004-.004.054-.027.136.043.14.098-.043.101-.082.133-.16-.075.02-.078.016-.094.016m.156.164c.043.074-.02.164.09.176.02 0 .043-.043.043-.043-.035-.082-.027-.137-.098-.137q-.011-.001-.035.004m33.543.21c-.008.071.145.192.219.192a.46.46 0 0 0 .117.356c-.21.101-.36.02-.754.02-.012.01-.058.07-.086.066.016.074.102.25.203.273-.004-.031.016-.102.02-.137.059.043.074.008.2 0 .05.004.12 0 .194 0 .196-.008.442-.015.555.055.055.05.035.223.203.227.184-.008.168-.301.38-.31.062 0 .089.087.167.087.086.004.18-.067.297-.137q.125.006.25 0 .18-.001.355.004c-.125-.16-.257-.23-.414-.355.02.02.04.039.051.046-.285-.16-.387-.437-.926-.449-.187 0-.277.067-.496.063-.113 0-.234-.121-.402-.121h-.004c-.039 0-.129.082-.129.12m-33.36.403c-.007.094-.003.149-.007.262 0 .058-.004.129.062.133.153.004.106-.059.208-.106v-.133c-.067-.109-.145-.156-.247-.156zm36.265.313c0 .171.22.187.407.187.074 0 .215.004.257-.098-.039-.082-.449-.187-.484-.191-.039 0-.184.04-.18.102m-5.257.015c0 .102.136.258.273.262.207 0 .367-.066.563-.106-.008-.05-.047-.117-.153-.156l.031.04c-.07-.032-.336-.141-.539-.141-.05 0-.175.05-.175.101m8.043 3.95h-.055c-.074.003-.168.18-.188.367.008.043.102.004.141-.004.07 0 .156-.184.184-.239-.008-.03.007-.093.004-.128-.024.007-.055.003-.086.003m4.382 5.118c-.011 0-.015-.004-.023 0-.18 0-.27.191-.293.437-.004.156.309.414.52.41.167-.02.367-.422.39-.562-.004-.035-.035-.149-.082-.149-.062.004-.2.2-.21-.015-.099.011-.2-.075-.27-.13-.004.013-.02.013-.032.009m-11.39 17.722c-.07 0-.196.246-.196.246-.007.043 0 .051-.011.098-.008.043.07.098.144.094a.5.5 0 0 1 .125-.016c.032-.097.012-.12.032-.226.003-.032.062-.024.062-.086.004-.075-.016-.114-.11-.114q-.017-.001-.046.004m5.277 1.399c-.086.023-.152.082-.234.105-.051.004-.051.067-.145.098-.015.035.012.047-.027.062.031-.011.062-.007.086-.02a.3.3 0 0 0 .191-.109c.102 0 .281-.07.324-.14.008-.028.008-.02.02-.047-.07.031-.098.012-.215.05m-.668.137c-.027.012.012.047.074.036-.043.074-.132.078-.203.132.028-.011.024.02.051.024.184-.078.297-.156.484-.242.012-.032.02-.02.02-.051-.156.05-.266.074-.426.101" style="stroke:none;fill-rule:nonzero;fill:url(#f)"/></g></g><path d="M58.504 10.277c-1.066 1.79-6.535 5.817-12.473 8.778l5.469 2.73c-2.574 6.031-9.027 14.875-20.832 21.117-10.91 5.774-21.043 7.98-27.773 5.246 4.925 6.977 18.351 6.758 32.652-.808 11.219-5.934 19.402-14.817 21.746-22.645l.219-.636 3.535 2.023c1.133-4.883-1.824-17.016-2.543-15.805" style="stroke:none;fill-rule:nonzero;fill:#be1e2d;fill-opacity:1"/><g clip-path="url(#g)"><g clip-path="url(#h)"><path d="M58.566 10.313c-1.066 1.789-5.379 5.699-11.32 8.66l5.184 2.379c-2.57 6.03-9.446 15.98-21.25 22.226-10.91 5.77-21.785 7.215-28.516 4.477 4.926 6.98 19.168 6.851 33.473-.715 11.218-5.934 19.402-14.817 21.746-22.645l.015.008 3.48 2.078c1.087-4.664-1.812-16.55-2.698-16.55q-.065 0-.114.082" style="stroke:none;fill-rule:nonzero;fill:url(#i)"/></g></g></svg>