<svg width="512" height="512" viewBox="0 0 512 512" fill="none" xmlns="http://www.w3.org/2000/svg">
  <defs>
    <linearGradient id="bg" x1="72" y1="64" x2="440" y2="448" gradientUnits="userSpaceOnUse">
      <stop offset="0" stop-color="#FFFFFF"/>
      <stop offset="1" stop-color="#F2EEFF"/>
    </linearGradient>
    <linearGradient id="edge" x1="160" y1="170" x2="352" y2="342" gradientUnits="userSpaceOnUse">
      <stop offset="0" stop-color="#7C63E8"/>
      <stop offset="1" stop-color="#4A2FCC"/>
    </linearGradient>
  </defs>
  <rect x="24" y="24" width="464" height="464" rx="108" fill="url(#bg)"/>
  <rect x="24" y="24" width="464" height="464" rx="108" stroke="#D8D1FA" stroke-width="3"/>
  <g stroke="url(#edge)" stroke-width="30" stroke-linecap="round">
    <line x1="256" y1="256" x2="160" y2="336"/>
    <line x1="256" y1="256" x2="168" y2="182"/>
    <line x1="256" y1="256" x2="344" y2="186"/>
    <line x1="256" y1="256" x2="352" y2="332"/>
  </g>
  <circle cx="160" cy="336" r="28" fill="#C9C1F8"/>
  <circle cx="168" cy="182" r="28" fill="#C9C1F8"/>
  <circle cx="344" cy="186" r="28" fill="#BBAFF5"/>
  <circle cx="352" cy="332" r="28" fill="#BBAFF5"/>
  <g transform="translate(256 256)">
    <circle cx="0" cy="0" r="54" fill="#2A1B72"/>
    <path d="M0 -36 L11 -11 L36 0 L11 11 L0 36 L-11 11 L-36 0 L-11 -11 Z" fill="#11C8D8"/>
    <circle cx="0" cy="0" r="10" fill="#FFFFFF"/>
  </g>
</svg>
