<svg width="512" height="512" viewBox="0 0 512 512" fill="none" xmlns="http://www.w3.org/2000/svg">
  <defs>
    <linearGradient id="bg" x1="66" y1="50" x2="448" y2="464" gradientUnits="userSpaceOnUse">
      <stop offset="0" stop-color="#F7F5FF"/>
      <stop offset="1" stop-color="#ECE9FF"/>
    </linearGradient>
    <linearGradient id="edge" x1="148" y1="170" x2="340" y2="334" gradientUnits="userSpaceOnUse">
      <stop offset="0" stop-color="#9A8BEE"/>
      <stop offset="1" stop-color="#5B3FD6"/>
    </linearGradient>
    <radialGradient id="aiGlow" cx="0" cy="0" r="1" gradientUnits="userSpaceOnUse" gradientTransform="translate(336 172) rotate(90) scale(54)">
      <stop offset="0" stop-color="#77E8F4"/>
      <stop offset="1" stop-color="#16C7D8"/>
    </radialGradient>
  </defs>
  <rect x="24" y="24" width="464" height="464" rx="108" fill="url(#bg)"/>
  <rect x="24" y="24" width="464" height="464" rx="108" stroke="#D9D3FA" stroke-width="2"/>
  <g stroke="url(#edge)" stroke-width="28" stroke-linecap="round">
    <line x1="148" y1="332" x2="226" y2="244"/>
    <line x1="226" y1="244" x2="314" y2="294"/>
    <line x1="226" y1="244" x2="336" y2="172"/>
  </g>
  <circle cx="148" cy="332" r="26" fill="#D3CCFA"/>
  <circle cx="226" cy="244" r="26" fill="#D3CCFA"/>
  <circle cx="314" cy="294" r="26" fill="#B9AEF4"/>
  <g transform="translate(336 172)">
    <circle cx="0" cy="0" r="44" fill="#2B1D70"/>
    <circle cx="0" cy="0" r="40" fill="url(#aiGlow)" opacity="0.35"/>
    <path d="M0 -30 L9 -9 L30 0 L9 9 L0 30 L-9 9 L-30 0 L-9 -9 Z" fill="#16C7D8"/>
    <circle cx="0" cy="0" r="8" fill="#F9FAFF"/>
  </g>
</svg>
