<svg xmlns="http://www.w3.org/2000/svg" width="64" height="64" viewBox="0 0 64 64" fill="none">
  <path d="M16 44L20 28C20.6881 25.2484 23.1606 23.3202 26 23H38C40.8394 23.3202 43.3119 25.2484 44 28L48 44" stroke="#111111" stroke-width="4" stroke-linecap="round" stroke-linejoin="round"/>
  <path d="M12 36H52C54.2091 36 56 37.7909 56 40V47C56 49.2091 54.2091 51 52 51H12C9.79086 51 8 49.2091 8 47V40C8 37.7909 9.79086 36 12 36Z" stroke="#111111" stroke-width="4" stroke-linecap="round" stroke-linejoin="round"/>
  <path d="M18 51V55" stroke="#111111" stroke-width="4" stroke-linecap="round" stroke-linejoin="round"/>
  <path d="M46 51V55" stroke="#111111" stroke-width="4" stroke-linecap="round" stroke-linejoin="round"/>
  <path d="M18 43H18.03" stroke="#111111" stroke-width="4" stroke-linecap="round" stroke-linejoin="round"/>
  <path d="M46 43H46.03" stroke="#111111" stroke-width="4" stroke-linecap="round" stroke-linejoin="round"/>
  <path d="M22 29H42" stroke="#111111" stroke-width="4" stroke-linecap="round" stroke-linejoin="round"/>
</svg>
